STARTFONT 2.1
COMMENT
COMMENT Converted from OpenType font "CONSOLA.TTF" by "otf2bdf 3.0".
COMMENT
FONT -FreeType-Consolas-Medium-R-Normal--100-120-600-600-P-425-ISO10646-1
SIZE 12 600 600
FONTBOUNDINGBOX 71 118 -9 -23
STARTPROPERTIES 19
FOUNDRY "FreeType"
FAMILY_NAME "Consolas"
WEIGHT_NAME "Medium"
SLANT "R"
SETWIDTH_NAME "Normal"
ADD_STYLE_NAME ""
PIXEL_SIZE 100
POINT_SIZE 120
RESOLUTION_X 600
RESOLUTION_Y 600
SPACING "P"
AVERAGE_WIDTH 425
CHARSET_REGISTRY "ISO10646"
CHARSET_ENCODING "1"
FONT_ASCENT 74
FONT_DESCENT 25
COPYRIGHT "© 2005 Microsoft Corporation. All Rights Reserved."
_OTF_FONTFILE "CONSOLA.TTF"
_OTF_PSNAME "Consolas"
ENDPROPERTIES
CHARS 598
STARTCHAR 0020
ENCODING 32
SWIDTH 550 0
DWIDTH 55 0
BBX 0 0 0 0
BITMAP
ENDCHAR
STARTCHAR 0021
ENCODING 33
SWIDTH 550 0
DWIDTH 55 0
BBX 13 70 21 -1
BITMAP
7FF0
7FE0
7FE0
7FE0
7FE0
7FE0
7FE0
7FE0
7FE0
3FE0
3FE0
3FE0
3FE0
3FE0
3FE0
3FE0
3FE0
3FE0
3FE0
3FE0
3FE0
3FE0
3FE0
3FE0
3FE0
3FE0
3FE0
3FE0
3FE0
3FE0
3FE0
3FE0
3FE0
3FE0
3FE0
3FE0
3FE0
3FE0
3FE0
3FC0
3FC0
3FC0
3FC0
3FC0
1FC0
1FC0
1FC0
1FC0
1FC0
1FC0
0000
0000
0000
0000
0000
0000
0000
0F80
3FC0
7FE0
7FF0
FFF0
FFF8
FFF8
FFF8
FFF0
7FF0
7FE0
3FC0
0F00
ENDCHAR
STARTCHAR 0022
ENCODING 34
SWIDTH 550 0
DWIDTH 55 0
BBX 29 23 13 46
BITMAP
FFC01FF8
FFC01FF8
FFC01FF8
FFC01FF8
FFC01FF8
FFC01FF8
FFC01FF8
FFC01FF8
FFC01FF8
FFC01FF8
FFC01FF8
FFC01FF8
FFC01FF8
FFC01FF8
FFC01FF8
7F800FF0
7F800FF0
7F800FF0
7F800FF0
7F800FF0
7F800FF0
7F800FF0
7F800FF0
ENDCHAR
STARTCHAR 0023
ENCODING 35
SWIDTH 550 0
DWIDTH 55 0
BBX 51 64 2 0
BITMAP
0001FC001FC000
0001FC001FC000
0001FC001FC000
0001FC003FC000
0001FC003FC000
0001FC003FC000
0001FC003F8000
0003FC003F8000
0003F8003F8000
0003F8003F8000
0003F8003F8000
0003F8003F8000
0003F8003F8000
0003F8007F8000
0003F8007F8000
0003F8007F0000
1FFFFFFFFFFFE0
1FFFFFFFFFFFE0
1FFFFFFFFFFFE0
1FFFFFFFFFFFE0
1FFFFFFFFFFFE0
1FFFFFFFFFFFE0
1FFFFFFFFFFFE0
0007F000FF0000
0007F000FF0000
0007F000FE0000
000FF000FE0000
000FF000FE0000
000FE000FE0000
000FE000FE0000
000FE000FE0000
000FE000FE0000
000FE000FE0000
000FE001FE0000
000FE001FE0000
000FE001FC0000
001FE001FC0000
001FE001FC0000
001FC001FC0000
001FC001FC0000
FFFFFFFFFFFF00
FFFFFFFFFFFF00
FFFFFFFFFFFF00
FFFFFFFFFFFF00
FFFFFFFFFFFF00
FFFFFFFFFFFF00
003FC003F80000
003FC003F80000
003FC003F80000
003F8003F80000
003F8003F80000
003F8003F80000
003F8003F80000
003F8007F80000
003F8007F80000
003F8007F00000
007F8007F00000
007F8007F00000
007F0007F00000
007F0007F00000
007F0007F00000
007F0007F00000
007F0007F00000
007F000FF00000
ENDCHAR
STARTCHAR 0024
ENCODING 36
SWIDTH 550 0
DWIDTH 55 0
BBX 44 85 5 -12
BITMAP
000000FE0000
000000FE0000
000000FE0000
000001FE0000
000001FC0000
000001FC0000
000001FC0000
000001FC0000
000001FC0000
00000FFC0000
0001FFFFF800
000FFFFFFF00
003FFFFFFF00
00FFFFFFFF00
01FFFFFFFF00
03FFFFFFFF00
07FFFFFFFF00
0FFF83F83F00
1FFC07F80100
1FF807F00000
3FF007F00000
3FE007F00000
7FE007F00000
7FC007F00000
7FC007F00000
7FC00FF00000
7FC00FE00000
7FC00FE00000
7FE00FE00000
7FE00FE00000
7FF00FE00000
3FF80FE00000
3FFC0FE00000
1FFF1FE00000
0FFFDFC00000
0FFFFFC00000
07FFFFC00000
03FFFFC00000
00FFFFF00000
007FFFFE0000
001FFFFF8000
0007FFFFE000
0000FFFFF000
00003FFFFC00
00003FFFFE00
00003FFFFF00
00003FBFFF80
00003F8FFFC0
00007F03FFC0
00007F01FFE0
00007F007FE0
00007F003FF0
00007F003FF0
00007F001FF0
00007F001FF0
0000FF001FF0
0000FE001FF0
0000FE001FF0
0000FE001FF0
0000FE003FF0
0000FE003FE0
0000FE007FE0
0000FE00FFC0
E001FE03FFC0
FE01FC0FFF80
FFFFFFFFFF00
FFFFFFFFFE00
FFFFFFFFFC00
FFFFFFFFF800
FFFFFFFFE000
FFFFFFFF8000
0FFFFFFC0000
003FFF800000
0003F8000000
0003F8000000
0003F8000000
0003F8000000
0003F8000000
0007F8000000
0007F0000000
0007F0000000
0007F0000000
0007F0000000
0007F0000000
0007F0000000
ENDCHAR
STARTCHAR 0025
ENCODING 37
SWIDTH 550 0
DWIDTH 55 0
BBX 53 71 1 -1
BITMAP
000F0000000000
00FFF0000007F8
01FFFC00000FF0
07FFFE00001FE0
0FFFFF00001FE0
0FFFFF80003FC0
1FFFFF80007F80
3FE07FC0007F80
3FC03FC000FF00
3F801FC001FE00
7F801FE001FE00
7F001FE003FC00
7F000FE007FC00
7F000FE007F800
7F000FE00FF000
7F000FE01FF000
7F000FE01FE000
7F000FE03FC000
7F001FE03FC000
7F801FC07F8000
7F803FC0FF0000
3FC03FC0FF0000
3FE07F81FE0000
1FFFFF83FC0000
1FFFFF03FC0000
0FFFFE07F80000
07FFFC0FF00000
03FFF80FF00000
00FFE01FE00000
0004003FC00000
0000003FC00000
0000007F800000
000000FF000000
000000FF000000
000001FE000000
000003FE000000
000003FC000000
000007F8000000
00000FF8000000
00000FF0000000
00001FE0000000
00001FE0000000
00003FC03FF800
00007F80FFFE00
00007F81FFFF00
0000FF03FFFF80
0001FE07FFFFC0
0001FE0FFFFFC0
0003FC0FF03FE0
0007F81FE01FE0
0007F81FC00FF0
000FF01FC00FF0
001FE03FC007F0
001FE03F8007F0
003FC03F8007F0
007F803F8007F0
007F803F8007F0
00FF003F8007F0
01FF003F8007F0
01FE003F8007F0
03FC003FC00FF0
03FC001FC00FE0
07F8001FE01FE0
0FF0001FF03FE0
0FF0000FFFFFC0
1FE0000FFFFF80
3FC00007FFFF80
3FC00003FFFF00
7F800001FFFC00
FF0000007FF800
000000000F8000
ENDCHAR
STARTCHAR 0026
ENCODING 38
SWIDTH 550 0
DWIDTH 55 0
BBX 52 69 3 -1
BITMAP
00000600000000
0000FFF8000000
0007FFFE000000
000FFFFF800000
003FFFFFC00000
007FFFFFE00000
00FFFFFFF00000
00FFFFFFF80000
01FFC03FF80000
01FF801FF80000
03FF000FFC0000
03FE0007FC0000
03FE0007FC0000
03FC0003FC0000
07FC0003FC0000
07FC0003FC0000
07FC0003FC0000
07FC0003FC0000
07FC0007FC0000
03FE0007FC0000
03FE000FF80000
03FE000FF80000
03FF001FF00000
01FF003FF00000
01FF80FFE00000
00FFC1FFC00000
00FFE7FF800000
007FEFFF000000
007FFFFE000000
003FFFF8000000
001FFFF0000000
000FFFC0000000
001FFF80000000
007FFF00000000
00FFFF80000000
01FFFFC003FE00
03FFFFE003FE00
07FFFFF003FE00
0FFE7FF003FE00
1FF83FF803FE00
3FF01FFC03FE00
3FE00FFE03FE00
7FE00FFF03FC00
7FC007FF03FC00
7FC003FF83FC00
FF8001FFC7FC00
FF8000FFE7FC00
FF8000FFF7F800
FF80007FFFF800
FF80003FFFF800
FF80001FFFF000
FF80000FFFF000
FF80000FFFF000
FF800007FFE000
FF800003FFE000
FFC00001FFC000
7FC00000FFE000
7FE00001FFF000
7FF00003FFF000
3FF8000FFFF800
3FFE003FFFFC00
1FFFFFFFFFFE00
0FFFFFFFFFFF00
07FFFFFFE7FF00
03FFFFFFC3FF80
01FFFFFF01FFC0
007FFFFC01FFE0
001FFFF000FFF0
00007C00000000
ENDCHAR
STARTCHAR 0027
ENCODING 39
SWIDTH 550 0
DWIDTH 55 0
BBX 11 23 22 46
BITMAP
FFE0
FFE0
FFE0
FFE0
FFE0
FFE0
FFE0
FFE0
FFE0
FFE0
7FC0
7FC0
7FC0
7FC0
7FC0
7FC0
7FC0
7FC0
7FC0
7FC0
7FC0
7FC0
7FC0
ENDCHAR
STARTCHAR 0028
ENCODING 40
SWIDTH 550 0
DWIDTH 55 0
BBX 27 93 15 -21
BITMAP
00000200
00000700
00000F80
00001F80
00003FC0
00007FE0
0000FFC0
0001FF80
0001FF00
0003FE00
0007FC00
000FFC00
001FF800
001FF000
003FE000
007FE000
007FC000
00FF8000
01FF8000
01FF0000
03FE0000
03FE0000
07FC0000
07FC0000
0FF80000
0FF80000
0FF00000
1FF00000
1FF00000
3FE00000
3FE00000
3FE00000
3FC00000
7FC00000
7FC00000
7FC00000
7F800000
FF800000
FF800000
FF800000
FF800000
FF800000
FF800000
FF000000
FF000000
FF000000
FF000000
FF000000
FF000000
FF000000
FF000000
FF800000
FF800000
FF800000
FF800000
FF800000
FF800000
7F800000
7FC00000
7FC00000
7FC00000
7FC00000
3FE00000
3FE00000
3FE00000
1FF00000
1FF00000
1FF80000
0FF80000
0FFC0000
07FC0000
07FE0000
03FE0000
03FF0000
01FF0000
01FF8000
00FFC000
007FC000
007FE000
003FF000
001FF000
001FF800
000FFC00
0007FE00
0003FF00
0003FF80
0001FFC0
0000FFC0
00007FE0
00003FC0
00001F80
00000F00
00000600
ENDCHAR
STARTCHAR 0029
ENCODING 41
SWIDTH 550 0
DWIDTH 55 0
BBX 27 92 13 -20
BITMAP
0C000000
1E000000
3F000000
7F800000
FFC00000
7FE00000
3FF00000
1FF80000
1FF80000
0FFC0000
07FE0000
03FF0000
01FF0000
01FF8000
00FFC000
007FC000
003FE000
003FF000
001FF000
001FF800
000FF800
000FFC00
0007FC00
0007FE00
0003FE00
0003FE00
0001FF00
0001FF00
0000FF80
0000FF80
0000FF80
00007F80
00007FC0
00007FC0
00007FC0
00007FC0
00003FE0
00003FE0
00003FE0
00003FE0
00003FE0
00003FE0
00003FE0
00001FE0
00001FE0
00001FE0
00001FE0
00001FE0
00001FE0
00003FE0
00003FE0
00003FE0
00003FE0
00003FE0
00003FE0
00003FC0
00003FC0
00007FC0
00007FC0
00007FC0
00007F80
0000FF80
0000FF80
0000FF00
0001FF00
0001FF00
0003FE00
0003FE00
0003FC00
0007FC00
0007FC00
000FF800
001FF800
001FF000
003FE000
003FE000
007FC000
00FFC000
00FF8000
01FF0000
03FE0000
07FE0000
0FFC0000
1FF80000
1FF00000
3FE00000
7FE00000
FFC00000
7F800000
3F000000
1E000000
0C000000
ENDCHAR
STARTCHAR 002A
ENCODING 42
SWIDTH 550 0
DWIDTH 55 0
BBX 39 41 8 28
BITMAP
0000FE0000
0000FE0000
0000FE0000
0000FE0000
0000FE0000
0000FE0000
0000FE0000
00007C0010
18007C0030
3C007C00F8
3F007C01F8
7F807C07FC
FFE07C0FFE
7FF07C1FFE
1FFC7C7FF8
07FE7CFFE0
01FFFFFF80
007FFFFE00
001FFFF800
0007FFE000
0001FF8000
0007FF8000
001FFFF000
007FFFFC00
01FFFFFF00
07FF7DFFC0
1FFC7C7FF0
7FF87C3FFC
FFE07C0FFE
7FC07C07FC
7F007C01FC
3E007C00F8
38007C0030
10007C0010
0000FE0000
0000FE0000
0000FE0000
0000FE0000
0000FE0000
0000FE0000
0000FE0000
ENDCHAR
STARTCHAR 002B
ENCODING 43
SWIDTH 550 0
DWIDTH 55 0
BBX 47 47 4 3
BITMAP
00001FF00000
00001FF00000
00001FF00000
00001FF00000
00001FF00000
00001FF00000
00001FF00000
00001FF00000
00001FF00000
00001FF00000
00001FF00000
00001FF00000
00001FF00000
00001FF00000
00001FF00000
00001FF00000
00001FF00000
00001FF00000
00001FF00000
00001FF00000
FFFFFFFFFFFE
FFFFFFFFFFFE
FFFFFFFFFFFE
FFFFFFFFFFFE
FFFFFFFFFFFE
FFFFFFFFFFFE
FFFFFFFFFFFE
00001FF00000
00001FF00000
00001FF00000
00001FF00000
00001FF00000
00001FF00000
00001FF00000
00001FF00000
00001FF00000
00001FF00000
00001FF00000
00001FF00000
00001FF00000
00001FF00000
00001FF00000
00001FF00000
00001FF00000
00001FF00000
00001FF00000
00001FF00000
ENDCHAR
STARTCHAR 002C
ENCODING 44
SWIDTH 550 0
DWIDTH 55 0
BBX 23 33 12 -17
BITMAP
000700
003FE0
007FF0
007FF8
00FFF8
00FFFC
00FFFC
00FFFE
00FFFE
00FFFE
007FFE
003FFE
003FFE
001FFE
000FFE
000FFE
000FFE
0007FC
000FFC
000FFC
000FF8
001FF8
003FF0
007FF0
00FFE0
07FFC0
FFFF80
FFFF00
FFFE00
FFF800
FFE000
FF0000
C00000
ENDCHAR
STARTCHAR 002D
ENCODING 45
SWIDTH 550 0
DWIDTH 55 0
BBX 29 8 13 23
BITMAP
FFFFFFF8
FFFFFFF8
FFFFFFF8
FFFFFFF8
FFFFFFF8
FFFFFFF8
FFFFFFF8
FFFFFFF8
ENDCHAR
STARTCHAR 002E
ENCODING 46
SWIDTH 550 0
DWIDTH 55 0
BBX 16 16 19 -1
BITMAP
0FF0
1FF8
3FFC
7FFE
7FFF
FFFF
FFFF
FFFF
FFFF
FFFF
FFFF
7FFE
7FFE
3FFC
0FF8
03C0
ENDCHAR
STARTCHAR 002F
ENCODING 47
SWIDTH 550 0
DWIDTH 55 0
BBX 41 79 6 -10
BITMAP
000000007F80
00000000FF80
00000000FF00
00000000FF00
00000001FE00
00000001FE00
00000003FE00
00000003FC00
00000003FC00
00000007F800
00000007F800
0000000FF000
0000000FF000
0000001FF000
0000001FE000
0000001FE000
0000003FC000
0000003FC000
0000007F8000
0000007F8000
000000FF8000
000000FF0000
000000FF0000
000001FE0000
000001FE0000
000003FC0000
000003FC0000
000003FC0000
000007F80000
000007F80000
00000FF00000
00000FF00000
00001FF00000
00001FE00000
00001FE00000
00003FC00000
00003FC00000
00007F800000
00007F800000
0000FF800000
0000FF000000
0000FF000000
0001FE000000
0001FE000000
0003FC000000
0003FC000000
0007FC000000
0007F8000000
0007F8000000
000FF0000000
000FF0000000
001FF0000000
001FE0000000
001FE0000000
003FC0000000
003FC0000000
007F80000000
007F80000000
00FF80000000
00FF00000000
00FF00000000
01FE00000000
01FE00000000
03FC00000000
03FC00000000
07FC00000000
07F800000000
07F800000000
0FF000000000
0FF000000000
1FF000000000
1FE000000000
1FE000000000
3FC000000000
3FC000000000
7F8000000000
7F8000000000
FF8000000000
FF0000000000
ENDCHAR
STARTCHAR 0030
ENCODING 48
SWIDTH 550 0
DWIDTH 55 0
BBX 47 66 4 -1
BITMAP
000007C00000
0000FFFE0000
0003FFFFC000
000FFFFFF000
001FFFFFF800
003FFFFFFC00
007FFFFFFE00
00FFFFFFFF00
01FFE00FFF80
03FF8003FF80
07FF0001FFC0
07FE0000FFC0
0FFC00007FE0
0FF800003FE0
1FF800003FF0
1FF000001FF0
1FF000001FF0
3FE000000FF8
3FE000000FF8
3FE000001FF8
3FC000003FFC
7FC00000FFFC
7FC00001FFFC
7FC00003FFFC
7F80000FFFFC
7F80001FFFFC
7F80003FFFFC
7F8000FFFBFC
FF8001FFF3FE
FF8003FFC3FE
FF800FFF83FE
FF801FFF03FE
FF803FFC03FE
FF80FFF803FE
FF81FFF003FE
FF83FFC003FE
FF8FFF8003FE
FF9FFE0003FE
FFFFFC0003FC
7FFFF80003FC
7FFFE00003FC
7FFFC00003FC
7FFF800007FC
7FFE000007FC
7FFC000007FC
7FF8000007F8
3FE000000FF8
3FE000000FF8
3FE000000FF8
3FF000001FF0
1FF000001FF0
1FF000001FF0
1FF800003FE0
0FFC00007FE0
0FFC0000FFC0
07FE0001FFC0
07FF8003FF80
03FFC007FF00
01FFFCFFFF00
00FFFFFFFE00
007FFFFFFC00
003FFFFFF000
001FFFFFE000
0007FFFF8000
0001FFFE0000
00001FE00000
ENDCHAR
STARTCHAR 0031
ENCODING 49
SWIDTH 550 0
DWIDTH 55 0
BBX 42 64 7 0
BITMAP
00001FE00000
00007FE00000
0001FFE00000
0007FFE00000
001FFFE00000
007FFFE00000
01FFFFE00000
07FFFFE00000
0FFFFFE00000
3FFFFFE00000
FFFF3FE00000
FFFC3FE00000
FFF83FE00000
7FE03FE00000
7F803FE00000
3E003FE00000
38003FE00000
00003FE00000
00003FE00000
00003FE00000
00003FE00000
00003FE00000
00003FE00000
00003FE00000
00003FE00000
00003FE00000
00003FE00000
00003FE00000
00003FE00000
00003FE00000
00003FE00000
00003FE00000
00003FE00000
00003FE00000
00003FE00000
00003FE00000
00003FE00000
00003FE00000
00003FE00000
00003FE00000
00003FE00000
00003FE00000
00003FE00000
00003FE00000
00003FE00000
00003FE00000
00003FE00000
00003FE00000
00003FE00000
00003FE00000
00003FE00000
00003FE00000
00003FE00000
00003FE00000
00003FE00000
00003FE00000
3FFFFFFFFFC0
3FFFFFFFFFC0
3FFFFFFFFFC0
3FFFFFFFFFC0
3FFFFFFFFFC0
3FFFFFFFFFC0
3FFFFFFFFFC0
3FFFFFFFFFC0
ENDCHAR
STARTCHAR 0032
ENCODING 50
SWIDTH 550 0
DWIDTH 55 0
BBX 42 65 7 0
BITMAP
0000FC000000
000FFFE00000
007FFFFC0000
01FFFFFE0000
07FFFFFF8000
0FFFFFFFC000
1FFFFFFFE000
3FFFFFFFE000
7FFC01FFF000
7FF0007FF800
3FC0003FF800
1F00001FFC00
0E00000FFC00
0C00000FFC00
00000007FC00
00000007FE00
00000007FE00
00000007FE00
00000003FE00
00000003FE00
00000003FE00
00000003FE00
00000007FE00
00000007FC00
00000007FC00
00000007FC00
0000000FFC00
0000000FF800
0000001FF800
0000001FF000
0000003FF000
0000007FE000
0000007FC000
000000FFC000
000001FF8000
000003FF0000
000007FE0000
00000FFE0000
00001FFC0000
00003FF80000
00007FF00000
0000FFE00000
0001FFC00000
0003FF800000
0007FF000000
000FFE000000
001FFC000000
003FF8000000
007FF0000000
00FFE0000000
01FFC0000000
03FF80000000
07FF00000000
0FFE00000000
1FFC00000000
3FF800000000
7FF000000000
FFFFFFFFFFC0
FFFFFFFFFFC0
FFFFFFFFFFC0
FFFFFFFFFFC0
FFFFFFFFFFC0
FFFFFFFFFFC0
FFFFFFFFFFC0
FFFFFFFFFFC0
ENDCHAR
STARTCHAR 0033
ENCODING 51
SWIDTH 550 0
DWIDTH 55 0
BBX 40 66 8 -1
BITMAP
000FF00000
03FFFFC000
1FFFFFF000
3FFFFFFC00
3FFFFFFF00
3FFFFFFF80
3FFFFFFFC0
3FFFFFFFC0
3F0003FFE0
300000FFF0
0000007FF0
0000003FF0
0000001FF8
0000001FF8
0000000FF8
0000000FF8
0000000FF8
0000000FF8
0000000FF8
0000000FF8
0000000FF0
0000001FF0
0000001FF0
0000003FE0
0000003FE0
0000007FC0
000001FF80
000007FF00
00007FFE00
00FFFFFC00
00FFFFF000
00FFFFF000
00FFFFFE00
00FFFFFF80
00FFFFFFC0
00FFFFFFE0
000003FFF0
0000007FF8
0000001FFC
0000000FFC
00000007FE
00000003FE
00000003FF
00000001FF
00000001FF
00000001FF
00000001FF
00000001FF
00000001FF
00000001FF
00000003FE
00000003FE
00000007FE
00000007FC
0000000FFC
0000001FF8
0000007FF8
800003FFF0
FFFFFFFFE0
FFFFFFFFC0
FFFFFFFF00
FFFFFFFE00
FFFFFFF800
FFFFFFE000
FFFFFF0000
0FFFE00000
ENDCHAR
STARTCHAR 0034
ENCODING 52
SWIDTH 550 0
DWIDTH 55 0
BBX 50 64 2 0
BITMAP
0000001FFF0000
0000003FFF0000
0000003FFF0000
0000007FFF0000
0000007FFF0000
000000FFFF0000
000001FFFF0000
000001FFFF0000
000003FFFF0000
000007FDFF0000
000007F9FF0000
00000FF9FF0000
00001FF1FF0000
00001FE1FF0000
00003FE1FF0000
00007FC1FF0000
00007FC1FF0000
0000FF81FF0000
0001FF01FF0000
0001FF01FF0000
0003FE01FF0000
0003FC01FF0000
0007FC01FF0000
000FF801FF0000
000FF001FF0000
001FF001FF0000
003FE001FF0000
003FC001FF0000
007FC001FF0000
00FF8001FF0000
00FF0001FF0000
01FF0001FF0000
03FE0001FF0000
03FC0001FF0000
07FC0001FF0000
07F80001FF0000
0FF00001FF0000
1FF00001FF0000
1FE00001FF0000
3FE00001FF0000
7FC00001FF0000
7F800001FF0000
FFFFFFFFFFFFC0
FFFFFFFFFFFFC0
FFFFFFFFFFFFC0
FFFFFFFFFFFFC0
FFFFFFFFFFFFC0
FFFFFFFFFFFFC0
FFFFFFFFFFFFC0
FFFFFFFFFFFFC0
00000001FF0000
00000001FF0000
00000001FF0000
00000001FF0000
00000001FF0000
00000001FF0000
00000001FF0000
00000001FF0000
00000001FF0000
00000001FF0000
00000001FF0000
00000001FF0000
00000001FF0000
00000001FF0000
ENDCHAR
STARTCHAR 0035
ENCODING 53
SWIDTH 550 0
DWIDTH 55 0
BBX 39 65 9 -1
BITMAP
7FFFFFFFE0
7FFFFFFFE0
7FFFFFFFE0
7FFFFFFFE0
7FFFFFFFE0
7FFFFFFFE0
7FFFFFFFE0
7FFFFFFFE0
7F80000000
7F80000000
7F80000000
7F80000000
7F80000000
7F80000000
7F80000000
7F80000000
7F80000000
7F80000000
7F80000000
7F80000000
7F80000000
7F80000000
7F80000000
7F80000000
7F80000000
7F80000000
7FFFFF0000
7FFFFFE000
7FFFFFFC00
7FFFFFFE00
7FFFFFFF80
7FFFFFFFC0
7FFFFFFFE0
00000FFFF0
000001FFF0
0000007FF8
0000003FF8
0000001FFC
0000000FFC
00000007FC
00000007FC
00000007FC
00000007FE
00000007FE
00000007FE
00000007FE
00000007FC
00000007FC
00000007FC
0000000FFC
0000000FF8
0000001FF8
0000003FF0
0000007FF0
000000FFE0
000003FFC0
80000FFFC0
FFFFFFFF80
FFFFFFFE00
FFFFFFFC00
FFFFFFF800
FFFFFFE000
FFFFFF8000
FFFFFC0000
0FFF800000
ENDCHAR
STARTCHAR 0036
ENCODING 54
SWIDTH 550 0
DWIDTH 55 0
BBX 44 65 6 -1
BITMAP
0000001FFE00
000007FFFE00
00003FFFFE00
0000FFFFFE00
0003FFFFFE00
000FFFFFFE00
001FFFFFFE00
003FFFFFFE00
007FFF000000
00FFF8000000
01FFE0000000
03FF80000000
03FF00000000
07FE00000000
0FFC00000000
0FF800000000
0FF000000000
1FF000000000
1FE000000000
3FE000000000
3FC000000000
3FC000000000
3FC000000000
7F8000000000
7F8000000000
7F807FFE0000
7F83FFFFC000
7F9FFFFFF000
FFFFFFFFF800
FFFFFFFFFE00
FFFFFFFFFF00
FFFFFFFFFF00
FFFF800FFF80
FFFC0003FFC0
FFE00000FFC0
FF8000007FE0
FF8000007FE0
FF8000003FE0
FF8000003FE0
FF8000001FF0
FF8000001FF0
FF8000001FF0
FF8000001FF0
FF8000001FF0
FF8000001FF0
7F8000001FF0
7FC000001FF0
7FC000001FF0
7FC000001FF0
7FC000003FE0
3FE000003FE0
3FE000003FE0
3FF000007FC0
1FF00000FFC0
1FF80001FF80
0FFC0003FF80
0FFF0007FF00
07FFE03FFE00
03FFFFFFFC00
01FFFFFFF800
00FFFFFFF000
007FFFFFC000
001FFFFF8000
0007FFFC0000
00007FC00000
ENDCHAR
STARTCHAR 0037
ENCODING 55
SWIDTH 550 0
DWIDTH 55 0
BBX 43 64 6 0
BITMAP
FFFFFFFFFFE0
FFFFFFFFFFE0
FFFFFFFFFFE0
FFFFFFFFFFE0
FFFFFFFFFFE0
FFFFFFFFFFE0
FFFFFFFFFFE0
FFFFFFFFFFE0
000000003FE0
000000007FC0
000000007FC0
00000000FF80
00000000FF80
00000001FF00
00000001FF00
00000003FE00
00000003FE00
00000007FC00
00000007FC00
00000007F800
0000000FF800
0000000FF000
0000001FF000
0000001FF000
0000003FE000
0000003FE000
0000007FC000
0000007FC000
000000FF8000
000000FF8000
000001FF0000
000001FF0000
000003FE0000
000003FE0000
000007FC0000
000007FC0000
00000FF80000
00000FF80000
00001FF00000
00001FF00000
00003FE00000
00003FE00000
00007FC00000
00007FC00000
0000FF800000
0000FF800000
0001FF800000
0001FF000000
0003FF000000
0003FE000000
0007FE000000
0007FC000000
000FFC000000
000FF8000000
001FF8000000
001FF0000000
003FF0000000
003FE0000000
007FE0000000
007FC0000000
00FFC0000000
00FF80000000
01FF80000000
01FF00000000
ENDCHAR
STARTCHAR 0038
ENCODING 56
SWIDTH 550 0
DWIDTH 55 0
BBX 43 66 6 -1
BITMAP
00001F800000
0007FFFE0000
001FFFFFC000
007FFFFFE000
01FFFFFFF800
03FFFFFFFC00
07FFFFFFFE00
0FFFE0FFFF00
1FFE000FFF00
1FF80003FF80
3FF00001FF80
3FE00000FF80
3FE00000FFC0
7FC000007FC0
7FC000007FC0
7FC000007FC0
7FC000007FC0
7FC000007FC0
7FC000007FC0
7FE00000FF80
3FE00000FF80
3FF00001FF80
3FF80003FF00
1FFC0007FF00
0FFF000FFE00
0FFF801FFC00
07FFE07FF800
03FFF9FFF000
01FFFFFFE000
00FFFFFFC000
003FFFFF0000
000FFFFC0000
0007FFFF0000
001FFFFF8000
007FFFFFE000
00FFFFFFF000
01FFF3FFF800
07FFC0FFFC00
0FFF003FFE00
1FFE001FFF00
1FFC0007FF80
3FF00003FF80
7FE00001FFC0
7FE00000FFC0
7FC000007FE0
FFC000007FE0
FF8000003FE0
FF8000003FE0
FF8000003FE0
FF8000003FE0
FF8000003FE0
FF8000003FE0
FF8000003FE0
FFC000007FE0
FFE00000FFC0
7FF00000FFC0
7FF80003FF80
3FFE000FFF80
3FFFE0FFFF00
1FFFFFFFFE00
0FFFFFFFFC00
07FFFFFFF800
01FFFFFFE000
007FFFFF8000
001FFFFE0000
0000FFC00000
ENDCHAR
STARTCHAR 0039
ENCODING 57
SWIDTH 550 0
DWIDTH 55 0
BBX 44 65 5 0
BITMAP
00000F000000
0003FFFC0000
000FFFFF0000
003FFFFFC000
00FFFFFFE000
01FFFFFFF000
03FFFFFFF800
07FFE0FFFC00
0FFF001FFE00
1FFC0007FE00
1FF80003FF00
3FF00001FF00
3FE00000FF80
7FE00000FF80
7FC000007FC0
7FC000007FC0
FF8000003FC0
FF8000003FE0
FF8000003FE0
FF8000003FE0
FF8000003FE0
FF8000001FE0
FF8000001FE0
FF8000001FF0
FF8000001FF0
FF8000001FF0
FFC000001FF0
7FC000001FF0
7FC000001FF0
7FE000001FF0
3FF000007FF0
3FF80001FFF0
1FFE000FFFF0
1FFFF3FFFFF0
0FFFFFFFFFF0
07FFFFFFFFF0
03FFFFFFFFF0
00FFFFFF9FE0
007FFFFE1FE0
000FFFF01FE0
000000001FE0
000000003FE0
000000003FC0
000000003FC0
000000003FC0
000000007FC0
000000007F80
00000000FF80
00000000FF00
00000001FF00
00000003FF00
00000007FE00
0000000FFC00
0000001FFC00
0000007FF800
000001FFF000
00000FFFE000
001FFFFFC000
0FFFFFFF8000
0FFFFFFE0000
0FFFFFFC0000
0FFFFFF00000
0FFFFF800000
0FFFFC000000
0FFF80000000
ENDCHAR
STARTCHAR 003A
ENCODING 58
SWIDTH 550 0
DWIDTH 55 0
BBX 15 51 20 -1
BITMAP
07C0
1FF0
3FF8
7FFC
7FFC
FFFE
FFFE
FFFE
FFFE
FFFE
7FFC
7FFC
3FF8
1FF0
07C0
0000
0000
0000
0000
0000
0000
0000
0000
0000
0000
0000
0000
0000
0000
0000
0000
0000
0000
0000
0000
0000
07C0
1FF0
3FF8
7FFC
7FFC
FFFE
FFFE
FFFE
FFFE
FFFE
7FFC
7FFC
3FF8
1FF0
07C0
ENDCHAR
STARTCHAR 003B
ENCODING 59
SWIDTH 550 0
DWIDTH 55 0
BBX 24 67 12 -17
BITMAP
0007C0
001FF0
003FF8
007FFC
007FFC
00FFFE
00FFFE
00FFFE
00FFFE
00FFFE
007FFC
007FFC
003FF8
001FF0
0007C0
000000
000000
000000
000000
000000
000000
000000
000000
000000
000000
000000
000000
000000
000000
000000
000000
000000
000000
000000
000780
001FE0
003FF8
007FF8
007FFC
007FFE
007FFE
007FFE
007FFE
007FFF
003FFF
003FFF
001FFF
000FFF
000FFF
0007FF
0007FE
0007FE
0007FE
0007FC
000FFC
000FFC
001FF8
003FF0
00FFF0
07FFE0
FFFFC0
FFFF80
FFFE00
FFFC00
FFF000
FF8000
E00000
ENDCHAR
STARTCHAR 003C
ENCODING 60
SWIDTH 550 0
DWIDTH 55 0
BBX 38 55 7 -1
BITMAP
0000000080
00000001C0
00000007E0
0000000FF0
0000001FF8
0000003FFC
0000007FF8
000001FFE0
000003FFC0
000007FF80
00000FFF00
00001FFC00
00003FF800
0000FFF000
0001FFE000
0003FFC000
0007FF0000
000FFE0000
003FFC0000
007FF80000
00FFF00000
01FFC00000
03FF800000
0FFF000000
1FFE000000
3FF8000000
7FF0000000
FFE0000000
7FF8000000
3FFC000000
1FFE000000
07FF000000
03FF800000
01FFE00000
00FFF00000
007FF80000
001FFC0000
000FFF0000
0007FF8000
0003FFC000
0001FFE000
00007FF000
00003FFC00
00001FFE00
00000FFF00
000007FF80
000001FFC0
000000FFF0
0000007FF8
0000003FFC
0000001FF8
00000007F0
00000003E0
00000001C0
0000000080
ENDCHAR
STARTCHAR 003D
ENCODING 61
SWIDTH 550 0
DWIDTH 55 0
BBX 41 24 7 15
BITMAP
FFFFFFFFFF80
FFFFFFFFFF80
FFFFFFFFFF80
FFFFFFFFFF80
FFFFFFFFFF80
FFFFFFFFFF80
FFFFFFFFFF80
000000000000
000000000000
000000000000
000000000000
000000000000
000000000000
000000000000
000000000000
000000000000
000000000000
FFFFFFFFFF80
FFFFFFFFFF80
FFFFFFFFFF80
FFFFFFFFFF80
FFFFFFFFFF80
FFFFFFFFFF80
FFFFFFFFFF80
ENDCHAR
STARTCHAR 003E
ENCODING 62
SWIDTH 550 0
DWIDTH 55 0
BBX 38 55 10 -1
BITMAP
0400000000
0E00000000
1F00000000
3FC0000000
7FE0000000
FFF0000000
3FF8000000
1FFC000000
0FFF000000
07FF800000
03FFC00000
00FFE00000
007FF00000
003FFC0000
001FFE0000
000FFF0000
0003FF8000
0001FFC000
0000FFF000
00007FF800
00003FFC00
00000FFE00
000007FF00
000003FFC0
000001FFE0
000000FFF0
0000003FF8
0000001FFC
0000003FF8
000000FFF0
000001FFE0
000003FF80
000007FF00
00001FFE00
00003FFC00
00007FF800
0000FFE000
0001FFC000
0007FF8000
000FFF0000
001FFE0000
003FF80000
007FF00000
01FFE00000
03FFC00000
07FF800000
0FFE000000
3FFC000000
7FF8000000
FFF0000000
7FE0000000
3F80000000
1F00000000
0E00000000
0400000000
ENDCHAR
STARTCHAR 003F
ENCODING 63
SWIDTH 550 0
DWIDTH 55 0
BBX 30 70 15 -1
BITMAP
FF000000
FFF00000
FFFE0000
FFFF8000
FFFFE000
FFFFF800
FFFFFC00
FFFFFE00
00FFFF00
000FFF80
0003FFC0
0001FFE0
0000FFE0
00007FF0
00003FF0
00001FF8
00001FF8
00000FF8
00000FFC
00000FFC
000007FC
000007FC
000007FC
000007FC
000007FC
00000FFC
00000FFC
00000FF8
00001FF8
00003FF8
0000FFF0
000FFFE0
07FFFFE0
07FFFFC0
07FFFF80
07FFFE00
07FFF800
07FFC000
07F80000
07F80000
07F80000
07F80000
07F80000
07F80000
07F80000
07F80000
07F80000
07F80000
07F80000
07F80000
00000000
00000000
00000000
00000000
00000000
00000000
00000000
03E00000
07F80000
0FFC0000
1FFC0000
1FFE0000
3FFE0000
3FFE0000
3FFE0000
1FFE0000
1FFC0000
0FFC0000
07F80000
01E00000
ENDCHAR
STARTCHAR 0040
ENCODING 64
SWIDTH 550 0
DWIDTH 55 0
BBX 54 90 0 -20
BITMAP
00000001800000
0000007FFE0000
000003FFFF8000
000007FFFFE000
00001FFFFFF000
00003FFFFFF800
00007FFC7FFC00
0001FFC007FE00
0003FF0001FF00
0003FE0000FF80
0007FC00007F80
000FF000003FC0
001FE000001FC0
003FE000001FE0
003FC000000FE0
007F8000000FF0
007F00000007F0
00FF00000007F0
00FE00000007F0
01FE00000003F8
01FC00000003F8
03FC00000003F8
03F800000003F8
07F800000001F8
07F000000001FC
07F0003FC1C1FC
0FF000FFFFC1FC
0FE003FFFFC1FC
0FE007FFFF81FC
1FE00FFFFF81FC
1FC01FFFFF81FC
1FC01FF1FF81FC
1FC03FE07F81FC
3FC03FC07F81FC
3F807F807F81FC
3F807F807F01FC
3F80FF007F01FC
3F80FF00FF01FC
3F80FE00FF01FC
7F01FE00FF01FC
7F01FE00FF01FC
7F01FE00FE01FC
7F01FC00FE01FC
7F03FC01FE01FC
7F03FC01FE01FC
7F03FC01FE01FC
7F03FC01FE01FC
7F03FC01FE01FC
7F03FC01FC01F8
7E03FC01FC03F8
FE03F803FC03F8
FE03F803FC03F8
FE03F803FC03F8
FE03F803FC03F0
FE03FC03FC07F0
7E03FC07FC07F0
7E03FC07FC07F0
7E03FC0FFC0FE0
7F03FC1FFC0FE0
7F03FC1FFC1FC0
7F01FF7FFF7FC0
7F01FFFEFFFF80
7F01FFFCFFFF00
7F00FFFC7FFF00
7F007FF83FFE00
7F003FF03FF800
7F800FC007E000
3F800000000000
3F800000000000
3F800000000000
3F800000000000
1FC00000000000
1FC00000000000
1FE00000000000
1FE00000000000
0FF00000000000
0FF00000000000
07F80000000000
07F80000000000
03FC0000000000
03FE0000000000
01FF0000018000
00FFC0000F8000
00FFF0007F8000
007FFFFFFF8000
003FFFFFFF8000
000FFFFFFF8000
0007FFFFFE0000
0001FFFFF80000
00003FFF800000
ENDCHAR
STARTCHAR 0041
ENCODING 65
SWIDTH 550 0
DWIDTH 55 0
BBX 53 64 1 0
BITMAP
000007FF800000
00000FFF800000
00000FFF800000
00000FFFC00000
00001FFFC00000
00001FFFC00000
00001FFFE00000
00003FFFE00000
00003FFFE00000
00003FDFF00000
00007FDFF00000
00007F9FF00000
00007F8FF80000
0000FF8FF80000
0000FF0FF80000
0000FF07FC0000
0001FF07FC0000
0001FE07FC0000
0001FE03FE0000
0003FE03FE0000
0003FC03FE0000
0003FC01FF0000
0007FC01FF0000
0007F801FF0000
0007F801FF8000
000FF800FF8000
000FF800FF8000
000FF000FFC000
001FF0007FC000
001FF0007FC000
001FE0007FE000
003FE0003FE000
003FE0003FE000
003FC0003FF000
007FC0001FF000
007FC0001FF000
007F80001FF000
00FF80000FF800
00FF80000FF800
00FF00000FF800
01FF000007FC00
01FF000007FC00
01FFFFFFFFFC00
03FFFFFFFFFE00
03FFFFFFFFFE00
03FFFFFFFFFE00
07FFFFFFFFFF00
07FFFFFFFFFF00
07FFFFFFFFFF00
0FFFFFFFFFFF80
0FF8000000FF80
0FF8000000FF80
1FF0000000FFC0
1FF00000007FC0
1FF00000007FC0
3FE00000007FE0
3FE00000003FE0
3FE00000003FE0
7FC00000003FF0
7FC00000001FF0
7FC00000001FF0
FF800000001FF8
FF800000000FF8
FF800000000FF8
ENDCHAR
STARTCHAR 0042
ENCODING 66
SWIDTH 550 0
DWIDTH 55 0
BBX 42 64 8 0
BITMAP
FFFFFE000000
FFFFFFF00000
FFFFFFFE0000
FFFFFFFF8000
FFFFFFFFC000
FFFFFFFFF000
FFFFFFFFF000
FF007FFFF800
FF0000FFFC00
FF00001FFC00
FF00000FFE00
FF000007FE00
FF000007FE00
FF000003FE00
FF000003FE00
FF000003FE00
FF000003FE00
FF000003FE00
FF000003FE00
FF000003FE00
FF000003FE00
FF000007FC00
FF000007FC00
FF00000FFC00
FF00001FF800
FF00003FF000
FF0000FFE000
FFFFFFFFC000
FFFFFFFF8000
FFFFFFFE0000
FFFFFFFC0000
FFFFFFFF8000
FFFFFFFFE000
FFFFFFFFF000
FFFFFFFFF800
FF0000FFFC00
FF00001FFE00
FF00000FFF00
FF000003FF00
FF000003FF80
FF000001FF80
FF000000FF80
FF000000FF80
FF000000FFC0
FF000000FFC0
FF000000FFC0
FF000000FFC0
FF000000FF80
FF000000FF80
FF000000FF80
FF000001FF80
FF000001FF80
FF000003FF00
FF000007FF00
FF00000FFE00
FF00003FFC00
FF0007FFF800
FFFFFFFFF800
FFFFFFFFE000
FFFFFFFFC000
FFFFFFFF0000
FFFFFFFC0000
FFFFFFF00000
FFFFFE000000
ENDCHAR
STARTCHAR 0043
ENCODING 67
SWIDTH 550 0
DWIDTH 55 0
BBX 44 66 5 -1
BITMAP
0000003C0000
00000FFFFC00
00007FFFFF80
0001FFFFFFF0
0007FFFFFFF0
001FFFFFFFF0
003FFFFFFFF0
007FFFFFFFF0
00FFFF007FF0
01FFF80003F0
03FFE00000F0
03FF80000010
07FF00000000
0FFE00000000
0FFC00000000
1FF800000000
1FF800000000
3FF000000000
3FF000000000
3FE000000000
7FE000000000
7FC000000000
7FC000000000
7FC000000000
FFC000000000
FF8000000000
FF8000000000
FF8000000000
FF8000000000
FF8000000000
FF8000000000
FF8000000000
FF8000000000
FF8000000000
FF8000000000
FF8000000000
FF8000000000
FF8000000000
FF8000000000
FF8000000000
FF8000000000
FF8000000000
FFC000000000
FFC000000000
FFC000000000
7FC000000000
7FE000000000
7FE000000000
3FF000000000
3FF000000000
3FF800000000
1FFC00000000
1FFC00000000
0FFE00000000
0FFF80000010
07FFC0000070
03FFF00003F0
01FFFE003FF0
01FFFFFFFFF0
007FFFFFFFF0
003FFFFFFFF0
001FFFFFFFF0
0007FFFFFFF0
0001FFFFFF80
00003FFFFC00
000001FF0000
ENDCHAR
STARTCHAR 0044
ENCODING 68
SWIDTH 550 0
DWIDTH 55 0
BBX 46 64 5 0
BITMAP
FFFFF8000000
FFFFFFF00000
FFFFFFFE0000
FFFFFFFF8000
FFFFFFFFE000
FFFFFFFFF000
FFFFFFFFFC00
FF80FFFFFE00
FF80007FFF00
FF80001FFF00
FF800007FF80
FF800001FFC0
FF800000FFC0
FF8000007FE0
FF8000007FE0
FF8000003FF0
FF8000003FF0
FF8000001FF8
FF8000001FF8
FF8000000FF8
FF8000000FF8
FF8000000FFC
FF8000000FFC
FF80000007FC
FF80000007FC
FF80000007FC
FF80000007FC
FF80000007FC
FF80000007FC
FF80000007FC
FF80000007FC
FF80000007FC
FF80000007FC
FF80000007FC
FF80000007FC
FF80000007FC
FF80000007FC
FF80000007FC
FF80000007FC
FF80000007FC
FF8000000FFC
FF8000000FF8
FF8000000FF8
FF8000000FF8
FF8000001FF8
FF8000001FF0
FF8000003FF0
FF8000003FF0
FF8000007FE0
FF8000007FE0
FF800000FFC0
FF800001FFC0
FF800003FF80
FF80000FFF00
FF80003FFE00
FF8001FFFE00
FFFFFFFFFC00
FFFFFFFFF000
FFFFFFFFE000
FFFFFFFF8000
FFFFFFFF0000
FFFFFFF80000
FFFFFFC00000
FFFFF8000000
ENDCHAR
STARTCHAR 0045
ENCODING 69
SWIDTH 550 0
DWIDTH 55 0
BBX 36 64 10 0
BITMAP
FFFFFFFFF0
FFFFFFFFF0
FFFFFFFFF0
FFFFFFFFF0
FFFFFFFFF0
FFFFFFFFF0
FFFFFFFFF0
FF80000000
FF80000000
FF80000000
FF80000000
FF80000000
FF80000000
FF80000000
FF80000000
FF80000000
FF80000000
FF80000000
FF80000000
FF80000000
FF80000000
FF80000000
FF80000000
FF80000000
FF80000000
FF80000000
FF80000000
FFFFFFFFE0
FFFFFFFFE0
FFFFFFFFE0
FFFFFFFFE0
FFFFFFFFE0
FFFFFFFFE0
FFFFFFFFE0
FFFFFFFFE0
FF80000000
FF80000000
FF80000000
FF80000000
FF80000000
FF80000000
FF80000000
FF80000000
FF80000000
FF80000000
FF80000000
FF80000000
FF80000000
FF80000000
FF80000000
FF80000000
FF80000000
FF80000000
FF80000000
FF80000000
FF80000000
FF80000000
FFFFFFFFF0
FFFFFFFFF0
FFFFFFFFF0
FFFFFFFFF0
FFFFFFFFF0
FFFFFFFFF0
FFFFFFFFF0
ENDCHAR
STARTCHAR 0046
ENCODING 70
SWIDTH 550 0
DWIDTH 55 0
BBX 36 64 10 0
BITMAP
FFFFFFFFF0
FFFFFFFFF0
FFFFFFFFF0
FFFFFFFFF0
FFFFFFFFF0
FFFFFFFFF0
FFFFFFFFF0
FFFFFFFFF0
FF80000000
FF80000000
FF80000000
FF80000000
FF80000000
FF80000000
FF80000000
FF80000000
FF80000000
FF80000000
FF80000000
FF80000000
FF80000000
FF80000000
FF80000000
FF80000000
FF80000000
FF80000000
FF80000000
FF80000000
FFFFFFFFE0
FFFFFFFFE0
FFFFFFFFE0
FFFFFFFFE0
FFFFFFFFE0
FFFFFFFFE0
FFFFFFFFE0
FFFFFFFFE0
FF80000000
FF80000000
FF80000000
FF80000000
FF80000000
FF80000000
FF80000000
FF80000000
FF80000000
FF80000000
FF80000000
FF80000000
FF80000000
FF80000000
FF80000000
FF80000000
FF80000000
FF80000000
FF80000000
FF80000000
FF80000000
FF80000000
FF80000000
FF80000000
FF80000000
FF80000000
FF80000000
FF80000000
ENDCHAR
STARTCHAR 0047
ENCODING 71
SWIDTH 550 0
DWIDTH 55 0
BBX 46 66 3 -1
BITMAP
0000001FE000
000007FFFF80
00003FFFFFF0
0000FFFFFFFC
0003FFFFFFFC
0007FFFFFFFC
001FFFFFFFFC
003FFFFFFFFC
007FFFC00FFC
00FFFE0000FC
01FFF000001C
01FFE0000004
03FF80000000
07FF00000000
07FE00000000
0FFE00000000
0FFC00000000
1FF800000000
1FF800000000
3FF000000000
3FF000000000
3FE000000000
3FE000000000
7FE000000000
7FC000000000
7FC000000000
7FC000000000
7FC000000000
FFC000000000
FF80007FFFFC
FF80007FFFFC
FF80007FFFFC
FF80007FFFFC
FF80007FFFFC
FF80007FFFFC
FF80007FFFFC
FF80007FFFFC
FF80000003FC
FFC0000003FC
7FC0000003FC
7FC0000003FC
7FC0000003FC
7FC0000003FC
7FC0000003FC
7FE0000003FC
3FE0000003FC
3FE0000003FC
3FF0000003FC
3FF0000003FC
1FF8000003FC
1FF8000003FC
0FFC000003FC
0FFE000003FC
07FF000003FC
07FF800003FC
03FFE00003FC
01FFF00003FC
00FFFE000FFC
007FFFFFFFFC
003FFFFFFFFC
001FFFFFFFFC
000FFFFFFFFC
0003FFFFFFF8
0000FFFFFFE0
00001FFFFE00
000001FFC000
ENDCHAR
STARTCHAR 0048
ENCODING 72
SWIDTH 550 0
DWIDTH 55 0
BBX 45 64 5 0
BITMAP
FF8000000FF8
FF8000000FF8
FF8000000FF8
FF8000000FF8
FF8000000FF8
FF8000000FF8
FF8000000FF8
FF8000000FF8
FF8000000FF8
FF8000000FF8
FF8000000FF8
FF8000000FF8
FF8000000FF8
FF8000000FF8
FF8000000FF8
FF8000000FF8
FF8000000FF8
FF8000000FF8
FF8000000FF8
FF8000000FF8
FF8000000FF8
FF8000000FF8
FF8000000FF8
FF8000000FF8
FF8000000FF8
FF8000000FF8
FF8000000FF8
FFFFFFFFFFF8
FFFFFFFFFFF8
FFFFFFFFFFF8
FFFFFFFFFFF8
FFFFFFFFFFF8
FFFFFFFFFFF8
FFFFFFFFFFF8
FFFFFFFFFFF8
FF8000000FF8
FF8000000FF8
FF8000000FF8
FF8000000FF8
FF8000000FF8
FF8000000FF8
FF8000000FF8
FF8000000FF8
FF8000000FF8
FF8000000FF8
FF8000000FF8
FF8000000FF8
FF8000000FF8
FF8000000FF8
FF8000000FF8
FF8000000FF8
FF8000000FF8
FF8000000FF8
FF8000000FF8
FF8000000FF8
FF8000000FF8
FF8000000FF8
FF8000000FF8
FF8000000FF8
FF8000000FF8
FF8000000FF8
FF8000000FF8
FF8000000FF8
FF8000000FF8
ENDCHAR
STARTCHAR 0049
ENCODING 73
SWIDTH 550 0
DWIDTH 55 0
BBX 39 64 8 0
BITMAP
FFFFFFFFFE
FFFFFFFFFE
FFFFFFFFFE
FFFFFFFFFE
FFFFFFFFFE
FFFFFFFFFE
FFFFFFFFFE
FFFFFF0000
0001FF0000
0001FF0000
0001FF0000
0001FF0000
0001FF0000
0001FF0000
0001FF0000
0001FF0000
0001FF0000
0001FF0000
0001FF0000
0001FF0000
0001FF0000
0001FF0000
0001FF0000
0001FF0000
0001FF0000
0001FF0000
0001FF0000
0001FF0000
0001FF0000
0001FF0000
0001FF0000
0001FF0000
0001FF0000
0001FF0000
0001FF0000
0001FF0000
0001FF0000
0001FF0000
0001FF0000
0001FF0000
0001FF0000
0001FF0000
0001FF0000
0001FF0000
0001FF0000
0001FF0000
0001FF0000
0001FF0000
0001FF0000
0001FF0000
0001FF0000
0001FF0000
0001FF0000
0001FF0000
0001FF0000
0001FF0000
0001FF0000
FFFFFFFFFE
FFFFFFFFFE
FFFFFFFFFE
FFFFFFFFFE
FFFFFFFFFE
FFFFFFFFFE
FFFFFFFFFE
ENDCHAR
STARTCHAR 004A
ENCODING 74
SWIDTH 550 0
DWIDTH 55 0
BBX 34 65 9 -1
BITMAP
7FFFFFFFC0
7FFFFFFFC0
7FFFFFFFC0
7FFFFFFFC0
7FFFFFFFC0
7FFFFFFFC0
7FFFFFFFC0
7FFFFFFFC0
0000007FC0
0000007FC0
0000007FC0
0000007FC0
0000007FC0
0000007FC0
0000007FC0
0000007FC0
0000007FC0
0000007FC0
0000007FC0
0000007FC0
0000007FC0
0000007FC0
0000007FC0
0000007FC0
0000007FC0
0000007FC0
0000007FC0
0000007FC0
0000007FC0
0000007FC0
0000007FC0
0000007FC0
0000007FC0
0000007FC0
0000007FC0
0000007FC0
0000007FC0
0000007FC0
0000007FC0
0000007FC0
0000007FC0
0000007FC0
0000007FC0
0000007FC0
0000007FC0
0000007FC0
0000007FC0
0000007FC0
0000007FC0
000000FF80
000000FF80
000000FF80
000001FF80
C00003FF00
E00007FF00
FC000FFE00
FF803FFE00
FFFFFFFC00
FFFFFFF800
FFFFFFF000
FFFFFFE000
FFFFFFC000
1FFFFF0000
07FFFC0000
001F000000
ENDCHAR
STARTCHAR 004B
ENCODING 75
SWIDTH 550 0
DWIDTH 55 0
BBX 43 64 8 0
BITMAP
FF000001FFC0
FF000001FF80
FF000003FF00
FF000007FE00
FF00000FFC00
FF00001FFC00
FF00001FF800
FF00003FF000
FF00007FE000
FF0000FFC000
FF0000FF8000
FF0001FF8000
FF0003FF0000
FF0007FE0000
FF000FFC0000
FF000FF80000
FF001FF00000
FF003FF00000
FF007FE00000
FF00FFC00000
FF00FF800000
FF01FF000000
FF03FE000000
FF07FE000000
FF0FFC000000
FF0FF8000000
FF1FF0000000
FF3FE0000000
FF7FC0000000
FF7FC0000000
FFFF80000000
FFFFC0000000
FFFFC0000000
FF7FE0000000
FF3FF0000000
FF3FF8000000
FF1FFC000000
FF0FFC000000
FF07FE000000
FF03FF000000
FF03FF800000
FF01FF800000
FF00FFC00000
FF007FE00000
FF007FF00000
FF003FF80000
FF001FF80000
FF000FFC0000
FF000FFE0000
FF0007FF0000
FF0003FF8000
FF0001FF8000
FF0001FFC000
FF0000FFE000
FF00007FF000
FF00003FF000
FF00003FF800
FF00001FFC00
FF00000FFE00
FF000007FF00
FF000003FF00
FF000003FF80
FF000001FFC0
FF000000FFE0
ENDCHAR
STARTCHAR 004C
ENCODING 76
SWIDTH 550 0
DWIDTH 55 0
BBX 37 64 11 0
BITMAP
FF80000000
FF80000000
FF80000000
FF80000000
FF80000000
FF80000000
FF80000000
FF80000000
FF80000000
FF80000000
FF80000000
FF80000000
FF80000000
FF80000000
FF80000000
FF80000000
FF80000000
FF80000000
FF80000000
FF80000000
FF80000000
FF80000000
FF80000000
FF80000000
FF80000000
FF80000000
FF80000000
FF80000000
FF80000000
FF80000000
FF80000000
FF80000000
FF80000000
FF80000000
FF80000000
FF80000000
FF80000000
FF80000000
FF80000000
FF80000000
FF80000000
FF80000000
FF80000000
FF80000000
FF80000000
FF80000000
FF80000000
FF80000000
FF80000000
FF80000000
FF80000000
FF80000000
FF80000000
FF80000000
FF80000000
FF80000000
FF80000000
FFFFFFFFF8
FFFFFFFFF8
FFFFFFFFF8
FFFFFFFFF8
FFFFFFFFF8
FFFFFFFFF8
FFFFFFFFF8
ENDCHAR
STARTCHAR 004D
ENCODING 77
SWIDTH 550 0
DWIDTH 55 0
BBX 51 64 2 0
BITMAP
1FFC000007FF00
1FFC00000FFF00
1FFE00000FFF00
1FFE00000FFF00
1FFE00001FFF00
1FFF00001FFF00
1FFF00001FFF00
1FFF00003FFF00
1FFF80003FFF00
1FFF80007FFF00
1FFFC0007FFF00
1FDFC0007EFF00
1FDFC000FEFF00
1FDFE000FEFF00
1FCFE000FCFF00
1FCFE001FC7F00
1FCFF001FC7F00
1FC7F003F87F00
1FC7F003F87F00
1FC7F803F87F00
1FC3F807F07F00
3FC3F807F07F80
3FC3FC07F07F80
3FC1FC0FE07F80
3FC1FE0FE07F80
3FC1FE1FC07F80
3FC0FE1FC07F80
3FC0FF1FC07F80
3FC0FF3F807F80
3FC07F3F807F80
3FC07FBF807F80
3FC03FFF007F80
3FC03FFF007F80
3F803FFF007F80
3F801FFE007F80
3F801FFE007F80
3F801FFC007F80
3F800FFC007F80
3F800FFC007F80
3F8007F8007F80
3F8007F8007F80
7F8007F8007FC0
7F8003F0007FC0
7F800000007FC0
7F800000007FC0
7F800000003FC0
7F800000003FC0
7F800000003FC0
7F800000003FC0
7F800000003FC0
7F800000003FC0
7F800000003FC0
7F800000003FC0
7F800000003FC0
7F800000003FC0
7F800000003FC0
7F800000003FC0
7F800000003FC0
7F800000003FC0
7F800000003FC0
7F800000003FC0
7F800000003FC0
FF800000003FE0
FF800000003FE0
ENDCHAR
STARTCHAR 004E
ENCODING 78
SWIDTH 550 0
DWIDTH 55 0
BBX 43 64 6 0
BITMAP
FFE000001FE0
FFF000001FE0
FFF000001FE0
FFF800001FE0
FFF800001FE0
FFF800001FE0
FFFC00001FE0
FFFC00001FE0
FFFE00001FE0
FFFE00001FE0
FFFF00001FE0
FFFF00001FE0
FFFF80001FE0
FF7F80001FE0
FF7FC0001FE0
FF3FC0001FE0
FF3FE0001FE0
FF3FE0001FE0
FF1FF0001FE0
FF1FF0001FE0
FF0FF8001FE0
FF0FF8001FE0
FF07F8001FE0
FF07FC001FE0
FF07FC001FE0
FF03FE001FE0
FF03FE001FE0
FF01FF001FE0
FF01FF001FE0
FF00FF801FE0
FF00FF801FE0
FF007FC01FE0
FF007FC01FE0
FF003FE01FE0
FF003FE01FE0
FF001FF01FE0
FF001FF01FE0
FF001FF81FE0
FF000FF81FE0
FF000FF81FE0
FF0007FC1FE0
FF0007FC1FE0
FF0003FE1FE0
FF0003FE1FE0
FF0001FF1FE0
FF0001FF1FE0
FF0000FF9FE0
FF0000FF9FE0
FF00007F9FE0
FF00007FDFE0
FF00003FDFE0
FF00003FFFE0
FF00001FFFE0
FF00001FFFE0
FF00001FFFE0
FF00000FFFE0
FF00000FFFE0
FF000007FFE0
FF000007FFE0
FF000003FFE0
FF000003FFE0
FF000001FFE0
FF000001FFE0
FF000000FFE0
ENDCHAR
STARTCHAR 004F
ENCODING 79
SWIDTH 550 0
DWIDTH 55 0
BBX 49 66 3 -1
BITMAP
000003F0000000
00007FFF800000
0001FFFFF00000
0007FFFFF80000
001FFFFFFE0000
003FFFFFFF0000
007FFFFFFF8000
00FFFFFFFFC000
01FFF007FFE000
03FFC001FFF000
03FF80007FF000
07FE00003FF800
0FFE00001FF800
0FFC00000FFC00
1FF800000FFC00
1FF0000007FE00
1FF0000007FE00
3FE0000003FE00
3FE0000003FF00
3FE0000001FF00
7FC0000001FF00
7FC0000001FF00
7FC0000001FF00
7FC0000001FF80
FF80000000FF80
FF80000000FF80
FF80000000FF80
FF80000000FF80
FF80000000FF80
FF80000000FF80
FF80000000FF80
FF80000000FF80
FF80000000FF80
FF80000000FF80
FF80000000FF80
FF80000000FF80
FF80000000FF80
FF80000000FF80
FF80000000FF80
FF80000000FF80
FF80000000FF80
FF80000000FF80
FFC0000001FF80
7FC0000001FF00
7FC0000001FF00
7FC0000001FF00
7FC0000003FF00
7FE0000003FE00
3FE0000003FE00
3FF0000007FE00
3FF0000007FC00
1FF800000FFC00
1FF800001FF800
0FFC00001FF800
0FFE00003FF000
07FF00007FF000
07FF8001FFE000
03FFE007FFC000
01FFFFFFFF8000
00FFFFFFFF0000
007FFFFFFE0000
003FFFFFFC0000
001FFFFFF00000
0007FFFFE00000
0001FFFF000000
00001FF0000000
ENDCHAR
STARTCHAR 0050
ENCODING 80
SWIDTH 550 0
DWIDTH 55 0
BBX 42 64 8 0
BITMAP
FFFFFE000000
FFFFFFF00000
FFFFFFFE0000
FFFFFFFF8000
FFFFFFFFC000
FFFFFFFFE000
FFFFFFFFF800
FF001FFFFC00
FF0000FFFC00
FF00001FFE00
FF00000FFF00
FF000007FF00
FF000003FF00
FF000001FF80
FF000001FF80
FF000000FF80
FF000000FF80
FF000000FFC0
FF000000FFC0
FF0000007FC0
FF0000007FC0
FF000000FFC0
FF000000FF80
FF000000FF80
FF000000FF80
FF000000FF80
FF000001FF00
FF000001FF00
FF000003FF00
FF000007FE00
FF00000FFE00
FF00001FFC00
FF0000FFF800
FF000FFFF000
FFFFFFFFE000
FFFFFFFFC000
FFFFFFFF8000
FFFFFFFE0000
FFFFFFF80000
FFFFFFE00000
FFFFFE000000
FF0000000000
FF0000000000
FF0000000000
FF0000000000
FF0000000000
FF0000000000
FF0000000000
FF0000000000
FF0000000000
FF0000000000
FF0000000000
FF0000000000
FF0000000000
FF0000000000
FF0000000000
FF0000000000
FF0000000000
FF0000000000
FF0000000000
FF0000000000
FF0000000000
FF0000000000
FF0000000000
ENDCHAR
STARTCHAR 0051
ENCODING 81
SWIDTH 550 0
DWIDTH 55 0
BBX 52 83 3 -18
BITMAP
000003F0000000
00007FFF800000
0001FFFFF00000
0007FFFFF80000
001FFFFFFE0000
003FFFFFFF0000
007FFFFFFF8000
00FFFFFFFFC000
01FFF80FFFE000
03FFC001FFF000
03FF80007FF000
07FF00003FF800
0FFE00001FF800
0FFC00000FFC00
1FF800000FFC00
1FF0000007FE00
1FF0000007FE00
3FE0000003FE00
3FE0000003FF00
3FE0000001FF00
7FC0000001FF00
7FC0000001FF00
7FC0000001FF80
7FC0000001FF80
FF80000000FF80
FF80000000FF80
FF80000000FF80
FF80000000FF80
FF80000000FF80
FF80000000FF80
FF80000000FF80
FF80000000FF80
FF80000000FF80
FF80000000FF80
FF80000000FF80
FF80000000FF80
FF80000000FF80
FF80000000FF80
FF80000000FF80
FF80000000FF80
FF80000000FF80
FF80000000FF80
FFC0000001FF00
FFC0000001FF00
7FC0000001FF00
7FC0000001FF00
7FC0000003FF00
7FE0000003FE00
3FE0000003FE00
3FF0000007FC00
3FF0000007FC00
1FF800000FFC00
1FF800001FF800
1FFC00001FF800
0FFE00003FF000
07FF00007FF000
07FFC001FFE000
03FFF007FFC000
01FFFFFFFF8000
00FFFFFFFF0000
007FFFFFFE0000
003FFFFFFC0000
001FFFFFF00000
0007FFFFE00000
0001FFFF000000
00001FF0000000
00000FF0000000
00000FF0000000
00000FF8000000
00000FF8000000
000007FC000000
000007FC000000
000007FE000180
000003FF800780
000003FFE01FC0
000001FFFFFFE0
000000FFFFFFE0
0000007FFFFFF0
0000003FFFFFE0
0000001FFFFF80
00000007FFFF00
00000001FFF800
00000000060000
ENDCHAR
STARTCHAR 0052
ENCODING 82
SWIDTH 550 0
DWIDTH 55 0
BBX 43 64 8 0
BITMAP
FFFFFE000000
FFFFFFE00000
FFFFFFFC0000
FFFFFFFF0000
FFFFFFFF8000
FFFFFFFFC000
FFFFFFFFE000
FF807FFFF000
FF8001FFF800
FF80007FF800
FF80001FF800
FF80000FFC00
FF80000FFC00
FF800007FC00
FF800007FC00
FF800007FC00
FF800007FC00
FF800007FC00
FF800007FC00
FF800007FC00
FF800007FC00
FF800007FC00
FF80000FFC00
FF80000FF800
FF80001FF800
FF80003FF000
FF80007FF000
FF8001FFE000
FF803FFFC000
FFFFFFFF8000
FFFFFFFF0000
FFFFFFFC0000
FFFFFFF00000
FFFFFF800000
FFFFFFE00000
FFFFFFF00000
FF803FF80000
FF800FFC0000
FF8007FE0000
FF8003FE0000
FF8003FF0000
FF8001FF0000
FF8001FF8000
FF8000FF8000
FF8000FFC000
FF80007FC000
FF80007FE000
FF80003FE000
FF80003FF000
FF80001FF000
FF80001FF800
FF80000FF800
FF80000FFC00
FF800007FC00
FF800007FE00
FF800003FE00
FF800003FF00
FF800003FF00
FF800001FF80
FF800001FF80
FF800000FFC0
FF800000FFC0
FF8000007FE0
FF8000007FE0
ENDCHAR
STARTCHAR 0053
ENCODING 83
SWIDTH 550 0
DWIDTH 55 0
BBX 44 66 5 -1
BITMAP
000003F80000
0001FFFFF000
000FFFFFFF00
003FFFFFFF00
007FFFFFFF00
01FFFFFFFF00
03FFFFFFFF00
07FFFFFFFF00
0FFFC0007F00
0FFE00000300
1FFC00000000
1FF000000000
3FF000000000
3FE000000000
3FE000000000
7FC000000000
7FC000000000
7FC000000000
7FC000000000
7FE000000000
7FE000000000
3FF000000000
3FF800000000
3FFC00000000
1FFE00000000
1FFF80000000
0FFFE0000000
07FFF8000000
03FFFE000000
01FFFFC00000
00FFFFF00000
003FFFFE0000
001FFFFF8000
0007FFFFE000
0000FFFFF000
00003FFFFC00
000007FFFE00
000001FFFF00
0000007FFF80
0000000FFF80
00000007FFC0
00000001FFC0
00000000FFE0
000000007FE0
000000003FE0
000000003FF0
000000003FF0
000000001FF0
000000001FF0
000000003FF0
000000003FE0
000000003FE0
000000003FE0
000000007FE0
00000000FFC0
80000001FFC0
F0000007FF80
FF80003FFF80
FFFFFFFFFF00
FFFFFFFFFE00
FFFFFFFFFC00
FFFFFFFFF000
FFFFFFFFE000
FFFFFFFF8000
0FFFFFFC0000
000FFF000000
ENDCHAR
STARTCHAR 0054
ENCODING 84
SWIDTH 550 0
DWIDTH 55 0
BBX 47 64 4 0
BITMAP
FFFFFFFFFFFE
FFFFFFFFFFFE
FFFFFFFFFFFE
FFFFFFFFFFFE
FFFFFFFFFFFE
FFFFFFFFFFFE
FFFFFFFFFFFE
FFFFFFFFFFFE
00001FF00000
00001FF00000
00001FF00000
00001FF00000
00001FF00000
00001FF00000
00001FF00000
00001FF00000
00001FF00000
00001FF00000
00001FF00000
00001FF00000
00001FF00000
00001FF00000
00001FF00000
00001FF00000
00001FF00000
00001FF00000
00001FF00000
00001FF00000
00001FF00000
00001FF00000
00001FF00000
00001FF00000
00001FF00000
00001FF00000
00001FF00000
00001FF00000
00001FF00000
00001FF00000
00001FF00000
00001FF00000
00001FF00000
00001FF00000
00001FF00000
00001FF00000
00001FF00000
00001FF00000
00001FF00000
00001FF00000
00001FF00000
00001FF00000
00001FF00000
00001FF00000
00001FF00000
00001FF00000
00001FF00000
00001FF00000
00001FF00000
00001FF00000
00001FF00000
00001FF00000
00001FF00000
00001FF00000
00001FF00000
00001FF00000
ENDCHAR
STARTCHAR 0055
ENCODING 85
SWIDTH 550 0
DWIDTH 55 0
BBX 45 65 5 -1
BITMAP
FF8000000FF8
FF8000000FF8
FF8000000FF8
FF8000000FF8
FF8000000FF8
FF8000000FF8
FF8000000FF8
FF8000000FF8
FF8000000FF8
FF8000000FF8
FF8000000FF8
FF8000000FF8
FF8000000FF8
FF8000000FF8
FF8000000FF8
FF8000000FF8
FF8000000FF8
FF8000000FF8
FF8000000FF8
FF8000000FF8
FF8000000FF8
FF8000000FF8
FF8000000FF8
FF8000000FF8
FF8000000FF8
FF8000000FF8
FF8000000FF8
FF8000000FF8
FF8000000FF8
FF8000000FF8
FF8000000FF8
FF8000000FF8
FF8000000FF8
FF8000000FF8
FF8000000FF8
FF8000000FF8
FF8000000FF8
FF8000000FF8
FF8000000FF8
FF8000000FF8
FF8000000FF8
FF8000000FF8
FF8000000FF8
FF8000000FF8
FF8000000FF8
FF8000000FF8
FF8000000FF0
7F8000001FF0
7FC000001FF0
7FC000001FF0
7FC000001FE0
7FE000003FE0
3FE000007FE0
3FF000007FC0
3FF80000FFC0
1FFC0001FF80
1FFF0007FF80
0FFFF8FFFF00
07FFFFFFFE00
03FFFFFFFC00
01FFFFFFF800
00FFFFFFE000
003FFFFFC000
0007FFFE0000
00007FE00000
ENDCHAR
STARTCHAR 0056
ENCODING 86
SWIDTH 550 0
DWIDTH 55 0
BBX 55 64 0 0
BITMAP
FFC000000007FE
7FC000000007FC
7FE000000007FC
7FE00000000FFC
3FE00000000FF8
3FF00000000FF8
3FF00000001FF8
1FF00000001FF0
1FF80000001FF0
1FF80000003FF0
0FF80000003FE0
0FFC0000003FE0
0FFC0000003FE0
07FC0000007FC0
07FE0000007FC0
07FE0000007FC0
03FE000000FF80
03FF000000FF80
03FF000000FF80
01FF000001FF00
01FF800001FF00
01FF800001FF00
00FF800003FE00
00FF800003FE00
00FFC00003FE00
007FC00007FC00
007FC00007FC00
007FE00007FC00
003FE0000FF800
003FE0000FF800
003FF0000FF000
001FF0001FF000
001FF0001FF000
001FF8001FE000
000FF8003FE000
000FF8003FE000
000FFC003FC000
0007FC007FC000
0007FC007FC000
0007FE007F8000
0003FE007F8000
0003FE00FF8000
0003FF00FF0000
0001FF00FF0000
0001FF01FF0000
0001FF01FE0000
0000FF81FE0000
0000FF83FE0000
0000FF83FC0000
00007FC3FC0000
00007FC7FC0000
00007FC7F80000
00003FE7F80000
00003FEFF80000
00003FEFF00000
00001FFFF00000
00001FFFF00000
00001FFFE00000
00000FFFE00000
00000FFFE00000
00000FFFC00000
000007FFC00000
000007FFC00000
000007FF800000
ENDCHAR
STARTCHAR 0057
ENCODING 87
SWIDTH 550 0
DWIDTH 55 0
BBX 51 64 2 0
BITMAP
FF000000001FE0
FF000000001FE0
FF800000001FE0
FF800000001FE0
7F800000001FE0
7F800000001FC0
7F800000001FC0
7F800000001FC0
7F800000001FC0
7F800000003FC0
7F800000003FC0
7F800000003FC0
7F800000003FC0
7F800000003FC0
7F800000003FC0
7F800000003FC0
7F800000003FC0
7F800000003FC0
7F800000003FC0
3FC00000003FC0
3FC00000003F80
3FC00000003F80
3FC003F8003F80
3FC003F8003F80
3FC003F8003F80
3FC007FC003F80
3FC007FC003F80
3FC007FC003F80
3FC00FFE007F80
3FC00FFE007F80
3FC00FFF007F80
3FC01FFF007F80
3FC01FFF007F80
3FC01FFF807F80
1FC03FFF807F00
1FC03FBF807F00
1FC03F3FC07F00
1FE07F3FC07F00
1FE07F3FC07F00
1FE07F1FE07F00
1FE0FE1FE07F00
1FE0FE1FE07F00
1FE0FE0FF07F00
1FE1FC0FF07F00
1FE1FC0FF07F00
1FE1FC07F87F00
1FE3F807F8FF00
1FE3F807F8FF00
0FE3F803FCFF00
0FE7F003FCFE00
0FE7F001FEFE00
0FE7F001FEFE00
0FE7E001FEFE00
0FFFE000FFFE00
0FFFE000FFFE00
0FFFC000FFFE00
0FFFC0007FFE00
0FFFC0007FFE00
0FFF80007FFE00
0FFF80003FFE00
0FFF80003FFE00
0FFF00003FFE00
0FFF00001FFE00
07FF00001FFE00
ENDCHAR
STARTCHAR 0058
ENCODING 88
SWIDTH 550 0
DWIDTH 55 0
BBX 53 64 1 0
BITMAP
3FF00000007FE0
3FF8000000FFC0
1FF8000000FFC0
0FFC000001FF80
0FFE000001FF00
07FE000003FF00
03FF000007FE00
03FF000007FE00
01FF80000FFC00
01FFC0001FF800
00FFC0001FF800
007FE0003FF000
007FE0003FE000
003FF0007FE000
001FF800FFC000
001FF800FF8000
000FFC01FF8000
000FFC01FF0000
0007FE03FF0000
0003FF07FE0000
0003FF07FC0000
0001FF8FFC0000
0000FF8FF80000
0000FFDFF00000
00007FFFF00000
00007FFFE00000
00003FFFC00000
00001FFFC00000
00001FFF800000
00000FFF800000
000007FF000000
000007FF000000
00000FFF800000
00000FFF800000
00001FFFC00000
00003FFFE00000
00003FFFE00000
00007FFFF00000
0000FFFFF00000
0000FFDFF80000
0001FF8FFC0000
0001FF0FFC0000
0003FF07FE0000
0007FE07FF0000
0007FE03FF0000
000FFC01FF8000
001FF801FFC000
001FF800FFC000
003FF000FFE000
007FE0007FF000
007FE0003FF000
00FFC0003FF800
01FFC0001FF800
01FF80000FFC00
03FF00000FFE00
07FF000007FE00
07FE000007FF00
0FFE000003FF80
1FFC000001FF80
1FF8000001FFC0
3FF8000000FFE0
7FF0000000FFE0
7FF00000007FF0
FFE00000003FF8
ENDCHAR
STARTCHAR 0059
ENCODING 89
SWIDTH 550 0
DWIDTH 55 0
BBX 55 64 0 0
BITMAP
FFE000000007FE
7FE00000000FFC
7FF00000000FFC
3FF00000001FF8
3FF80000001FF8
1FF80000003FF0
0FFC0000003FE0
0FFC0000007FE0
07FE0000007FC0
07FF000000FFC0
03FF000000FF80
03FF800001FF80
01FF800003FF00
00FFC00003FF00
00FFC00007FE00
007FE00007FC00
007FE0000FFC00
003FF0000FF800
003FF0001FF800
001FF8001FF000
001FFC003FF000
000FFC003FE000
0007FE007FC000
0007FE007FC000
0003FF00FF8000
0003FF00FF8000
0001FF81FF0000
0001FF81FF0000
0000FFC3FE0000
00007FC3FC0000
00007FE7FC0000
00003FE7F80000
00003FFFF80000
00001FFFF00000
00001FFFF00000
00000FFFE00000
000007FFE00000
000007FFC00000
000003FF800000
000003FF800000
000001FF000000
000001FF000000
000001FF000000
000001FF000000
000001FF000000
000001FF000000
000001FF000000
000001FF000000
000001FF000000
000001FF000000
000001FF000000
000001FF000000
000001FF000000
000001FF000000
000001FF000000
000001FF000000
000001FF000000
000001FF000000
000001FF000000
000001FF000000
000001FF000000
000001FF000000
000001FF000000
000001FF000000
ENDCHAR
STARTCHAR 005A
ENCODING 90
SWIDTH 550 0
DWIDTH 55 0
BBX 45 64 5 0
BITMAP
7FFFFFFFFFF0
7FFFFFFFFFF0
7FFFFFFFFFF0
7FFFFFFFFFF0
7FFFFFFFFFF0
7FFFFFFFFFF0
7FFFFFFFFFF0
7FFFFFFFFFF0
000000007FE0
00000000FFC0
00000000FFC0
00000001FF80
00000003FF00
00000003FF00
00000007FE00
0000000FFC00
0000000FFC00
0000001FF800
0000003FF000
0000003FF000
0000007FE000
000000FFC000
000000FFC000
000001FF8000
000003FF0000
000003FF0000
000007FE0000
00000FFC0000
00000FFC0000
00001FF80000
00003FF00000
00003FF00000
00007FE00000
0000FFC00000
0000FFC00000
0001FF800000
0003FF000000
0003FF000000
0007FE000000
000FFC000000
000FFC000000
001FF8000000
003FF0000000
003FF0000000
007FE0000000
00FFC0000000
00FFC0000000
01FF80000000
03FF00000000
03FF00000000
07FE00000000
0FFC00000000
0FFC00000000
1FF800000000
3FF000000000
3FF000000000
7FFFFFFFFFF8
FFFFFFFFFFF8
FFFFFFFFFFF8
FFFFFFFFFFF8
FFFFFFFFFFF8
FFFFFFFFFFF8
FFFFFFFFFFF8
FFFFFFFFFFF8
ENDCHAR
STARTCHAR 005B
ENCODING 91
SWIDTH 550 0
DWIDTH 55 0
BBX 24 91 17 -20
BITMAP
FFFFFF
FFFFFF
FFFFFF
FFFFFF
FFFFFF
FFFFFF
FFFFFF
FF0000
FF0000
FF0000
FF0000
FF0000
FF0000
FF0000
FF0000
FF0000
FF0000
FF0000
FF0000
FF0000
FF0000
FF0000
FF0000
FF0000
FF0000
FF0000
FF0000
FF0000
FF0000
FF0000
FF0000
FF0000
FF0000
FF0000
FF0000
FF0000
FF0000
FF0000
FF0000
FF0000
FF0000
FF0000
FF0000
FF0000
FF0000
FF0000
FF0000
FF0000
FF0000
FF0000
FF0000
FF0000
FF0000
FF0000
FF0000
FF0000
FF0000
FF0000
FF0000
FF0000
FF0000
FF0000
FF0000
FF0000
FF0000
FF0000
FF0000
FF0000
FF0000
FF0000
FF0000
FF0000
FF0000
FF0000
FF0000
FF0000
FF0000
FF0000
FF0000
FF0000
FF0000
FF0000
FF0000
FF0000
FFFFFF
FFFFFF
FFFFFF
FFFFFF
FFFFFF
FFFFFF
FFFFFF
ENDCHAR
STARTCHAR 005C
ENCODING 92
SWIDTH 550 0
DWIDTH 55 0
BBX 41 79 8 -10
BITMAP
FF0000000000
FF8000000000
7F8000000000
7F8000000000
3FC000000000
3FC000000000
1FE000000000
1FE000000000
1FE000000000
0FF000000000
0FF000000000
07F800000000
07F800000000
03FC00000000
03FC00000000
03FC00000000
01FE00000000
01FE00000000
00FF00000000
00FF00000000
00FF80000000
007F80000000
007F80000000
003FC0000000
003FC0000000
001FE0000000
001FE0000000
001FF0000000
000FF0000000
000FF0000000
0007F8000000
0007F8000000
0003FC000000
0003FC000000
0003FC000000
0001FE000000
0001FE000000
0000FF000000
0000FF000000
0000FF800000
00007F800000
00007F800000
00003FC00000
00003FC00000
00001FE00000
00001FE00000
00001FF00000
00000FF00000
00000FF00000
000007F80000
000007F80000
000003FC0000
000003FC0000
000003FC0000
000001FE0000
000001FE0000
000000FF0000
000000FF0000
000000FF8000
0000007F8000
0000007F8000
0000003FC000
0000003FC000
0000001FE000
0000001FE000
0000001FF000
0000000FF000
0000000FF000
00000007F800
00000007F800
00000003FC00
00000003FC00
00000003FC00
00000001FE00
00000001FE00
00000000FF00
00000000FF00
00000000FF80
000000007F80
ENDCHAR
STARTCHAR 005D
ENCODING 93
SWIDTH 550 0
DWIDTH 55 0
BBX 24 91 14 -20
BITMAP
FFFFFF
FFFFFF
FFFFFF
FFFFFF
FFFFFF
FFFFFF
FFFFFF
0000FF
0000FF
0000FF
0000FF
0000FF
0000FF
0000FF
0000FF
0000FF
0000FF
0000FF
0000FF
0000FF
0000FF
0000FF
0000FF
0000FF
0000FF
0000FF
0000FF
0000FF
0000FF
0000FF
0000FF
0000FF
0000FF
0000FF
0000FF
0000FF
0000FF
0000FF
0000FF
0000FF
0000FF
0000FF
0000FF
0000FF
0000FF
0000FF
0000FF
0000FF
0000FF
0000FF
0000FF
0000FF
0000FF
0000FF
0000FF
0000FF
0000FF
0000FF
0000FF
0000FF
0000FF
0000FF
0000FF
0000FF
0000FF
0000FF
0000FF
0000FF
0000FF
0000FF
0000FF
0000FF
0000FF
0000FF
0000FF
0000FF
0000FF
0000FF
0000FF
0000FF
0000FF
0000FF
0000FF
0000FF
FFFFFF
FFFFFF
FFFFFF
FFFFFF
FFFFFF
FFFFFF
FFFFFF
ENDCHAR
STARTCHAR 005E
ENCODING 94
SWIDTH 550 0
DWIDTH 55 0
BBX 43 31 6 33
BITMAP
00003F800000
00007FC00000
0000FFC00000
0000FFE00000
0001FFE00000
0001FFF00000
0003FFF80000
0003FFF80000
0007F3FC0000
000FF3FC0000
000FE1FE0000
001FC0FF0000
001FC0FF0000
003F807F8000
003F807F8000
007F003FC000
00FF003FE000
00FE001FE000
01FE000FF000
01FC000FF000
03FC0007F800
03F80007FC00
07F00003FC00
0FF00003FE00
0FE00001FE00
1FE00000FF00
1FC00000FF80
3FC000007F80
3F8000007FC0
7F8000003FC0
FF0000001FE0
ENDCHAR
STARTCHAR 005F
ENCODING 95
SWIDTH 550 0
DWIDTH 55 0
BBX 55 7 0 -20
BITMAP
FFFFFFFFFFFFFE
FFFFFFFFFFFFFE
FFFFFFFFFFFFFE
FFFFFFFFFFFFFE
FFFFFFFFFFFFFE
FFFFFFFFFFFFFE
FFFFFFFFFFFFFE
ENDCHAR
STARTCHAR 0060
ENCODING 96
SWIDTH 550 0
DWIDTH 55 0
BBX 23 12 9 49
BITMAP
FFF000
7FF800
1FFC00
0FFE00
07FF00
01FF80
00FFC0
007FE0
001FF0
000FF8
0007FC
0001FE
ENDCHAR
STARTCHAR 0061
ENCODING 97
SWIDTH 550 0
DWIDTH 55 0
BBX 40 51 7 -1
BITMAP
0001FFC000
007FFFFC00
03FFFFFF00
0FFFFFFFC0
0FFFFFFFE0
0FFFFFFFF0
0FFFFFFFF8
0FFF81FFFC
0FE0003FFC
0E00000FFE
08000007FE
00000003FE
00000003FF
00000001FF
00000001FF
00000001FF
00000001FF
00000001FF
00000001FF
00000001FF
00000001FF
0000FFFFFF
001FFFFFFF
00FFFFFFFF
03FFFFFFFF
07FFFFFFFF
0FFFFFFFFF
1FFFFFFFFF
3FFE0001FF
7FF00001FF
7FE00001FF
FFC00001FF
FF800001FF
FF800001FF
FF800001FF
FF800001FF
FF000001FF
FF800003FF
FF800007FF
FF80000FFF
FF80003FFF
FFC000FFFF
FFE003FFFF
7FFC1FFFFF
7FFFFFFEFF
3FFFFFFCFF
1FFFFFF8FF
0FFFFFE0FF
07FFFF80FF
01FFFE00FF
001FE00000
ENDCHAR
STARTCHAR 0062
ENCODING 98
SWIDTH 550 0
DWIDTH 55 0
BBX 42 70 8 -1
BITMAP
FF0000000000
FF0000000000
FF0000000000
FF0000000000
FF0000000000
FF0000000000
FF0000000000
FF0000000000
FF0000000000
FF0000000000
FF0000000000
FF0000000000
FF0000000000
FF0000000000
FF0000000000
FF0000000000
FF0000000000
FF0000000000
FF0000000000
FF0007F00000
FF007FFE0000
FF01FFFF8000
FF07FFFFC000
FF0FFFFFF000
FF1FFFFFF000
FF3FFFFFF800
FF7FFFFFFC00
FFFFE01FFC00
FFFF800FFE00
FFFE0007FE00
FFFC0003FF00
FFF80001FF00
FFF00001FF00
FFE00000FF80
FFC00000FF80
FF800000FF80
FF800000FF80
FF0000007F80
FF0000007F80
FF0000007FC0
FF0000007FC0
FF0000007FC0
FF0000007FC0
FF0000007FC0
FF0000007FC0
FF0000007FC0
FF0000007FC0
FF0000007FC0
FF0000007F80
FF0000007F80
FF000000FF80
FF000000FF80
FF000000FF80
FF000000FF00
FF000001FF00
FF000001FF00
FF000003FE00
FF000003FE00
FF000007FC00
FF00000FFC00
FF00003FF800
FFE0007FF000
FFFF07FFE000
FFFFFFFFC000
FFFFFFFF8000
FFFFFFFF0000
7FFFFFFC0000
0FFFFFF00000
00FFFFC00000
0000E0000000
ENDCHAR
STARTCHAR 0063
ENCODING 99
SWIDTH 550 0
DWIDTH 55 0
BBX 38 51 8 -1
BITMAP
000003F800
0000FFFFE0
0003FFFFFC
000FFFFFFC
003FFFFFFC
007FFFFFFC
01FFFFFFFC
03FFFFFFFC
03FFE000FC
07FF80001C
0FFE000000
1FFC000000
1FF8000000
3FF0000000
3FF0000000
7FE0000000
7FE0000000
7FC0000000
7FC0000000
FF80000000
FF80000000
FF80000000
FF80000000
FF80000000
FF80000000
FF80000000
FF80000000
FF80000000
FF80000000
FF80000000
FF80000000
FF80000000
FF80000000
FFC0000000
7FC0000000
7FC0000000
7FE0000000
3FF0000000
3FF0000000
3FF8000000
1FFE000004
0FFF00001C
0FFFE000FC
07FFFFFFFC
03FFFFFFFC
01FFFFFFFC
00FFFFFFFC
003FFFFFFC
000FFFFFF8
0001FFFFC0
000007F000
ENDCHAR
STARTCHAR 0064
ENCODING 100
SWIDTH 550 0
DWIDTH 55 0
BBX 42 70 5 -1
BITMAP
000000007FC0
000000007FC0
000000007FC0
000000007FC0
000000007FC0
000000007FC0
000000007FC0
000000007FC0
000000007FC0
000000007FC0
000000007FC0
000000007FC0
000000007FC0
000000007FC0
000000007FC0
000000007FC0
000000007FC0
000000007FC0
000000007FC0
000001C07FC0
0000FFFFFFC0
0003FFFFFFC0
000FFFFFFFC0
003FFFFFFFC0
007FFFFFFFC0
00FFFFFFFFC0
01FFFE7FFFC0
03FFC001FFC0
07FF00007FC0
0FFC00007FC0
0FF800007FC0
1FF000007FC0
1FF000007FC0
3FE000007FC0
3FE000007FC0
3FC000007FC0
7FC000007FC0
7FC000007FC0
7FC000007FC0
7F8000007FC0
7F8000007FC0
FF8000007FC0
FF8000007FC0
FF8000007FC0
FF8000007FC0
FF8000007FC0
FF8000007FC0
FF8000007FC0
FF8000007FC0
FF8000007FC0
7F8000007FC0
7F8000007FC0
7FC00000FFC0
7FC00000FFC0
7FC00001FFC0
7FC00003FFC0
3FE00007FFC0
3FE0000FFFC0
3FF0001FFFC0
1FF0003FFFC0
1FF8007FBFC0
0FFE01FFBFC0
0FFFCFFF3FC0
07FFFFFE3FC0
03FFFFFC3FC0
03FFFFF83FC0
00FFFFF03FC0
007FFFC03FC0
001FFF003FC0
0003F8000000
ENDCHAR
STARTCHAR 0065
ENCODING 101
SWIDTH 550 0
DWIDTH 55 0
BBX 43 51 6 -1
BITMAP
00003FE00000
0003FFFC0000
000FFFFF8000
003FFFFFC000
007FFFFFF000
00FFFFFFF800
01FFFFFFFC00
03FFC03FFE00
07FF000FFE00
0FFC0003FF00
0FF80001FF80
1FF00000FF80
3FE00000FF80
3FE000007FC0
3FC000007FC0
7FC000003FC0
7FC000003FE0
7F8000003FE0
FF8000003FE0
FF8000003FE0
FF8000003FE0
FF8000003FE0
FFFFFFFFFFE0
FFFFFFFFFFE0
FFFFFFFFFFE0
FFFFFFFFFFE0
FFFFFFFFFFE0
FFFFFFFFFFE0
FF8000000000
FF8000000000
FF8000000000
FF8000000000
FF8000000000
FF8000000000
7F8000000000
7FC000000000
7FC000000000
7FE000000000
3FF000000000
3FF800000000
1FFC00000000
1FFE00000000
0FFF80000780
07FFF803FF80
03FFFFFFFF80
01FFFFFFFF80
00FFFFFFFF80
007FFFFFFF80
001FFFFFFF80
0003FFFFF800
00003FFC0000
ENDCHAR
STARTCHAR 0066
ENCODING 102
SWIDTH 550 0
DWIDTH 55 0
BBX 47 70 4 0
BITMAP
000000001800
0000000FFFFE
0000007FFFFE
000001FFFFFE
000003FFFFFE
000007FFFFFE
00000FFFFFFE
00001FFFFFFE
00003FFC0006
00003FF00000
00007FE00000
00007FC00000
00007FC00000
0000FF800000
0000FF800000
0000FF800000
0000FF800000
0000FF000000
0000FF000000
0000FF000000
0000FF000000
0000FF000000
0000FF000000
0000FF000000
0000FF000000
0000FF000000
0000FF000000
0000FF000000
FFFFFFFFFFFC
FFFFFFFFFFFC
FFFFFFFFFFFC
FFFFFFFFFFFC
FFFFFFFFFFFC
FFFFFFFFFFFC
FFFFFFFFFFFC
0000FF000000
0000FF000000
0000FF000000
0000FF000000
0000FF000000
0000FF000000
0000FF000000
0000FF000000
0000FF000000
0000FF000000
0000FF000000
0000FF000000
0000FF000000
0000FF000000
0000FF000000
0000FF000000
0000FF000000
0000FF000000
0000FF000000
0000FF000000
0000FF000000
0000FF000000
0000FF000000
0000FF000000
0000FF000000
0000FF000000
0000FF000000
0000FF000000
0000FF000000
0000FF000000
0000FF000000
0000FF000000
0000FF000000
0000FF000000
0000FF000000
ENDCHAR
STARTCHAR 0067
ENCODING 103
SWIDTH 550 0
DWIDTH 55 0
BBX 46 71 5 -21
BITMAP
00007FC00000
0003FFFFFFFC
001FFFFFFFFC
003FFFFFFFFC
00FFFFFFFFFC
01FFFFFFFFFC
03FFFFFFFFFC
03FF801FFFFC
07FE000FFE00
0FFC0003FE00
0FF80003FF00
1FF80001FF00
1FF00000FF00
1FF00000FF80
1FE00000FF80
1FE00000FF80
1FE00000FF80
1FE00000FF80
1FE00000FF80
1FE00000FF80
1FF00000FF80
1FF00001FF00
1FF80001FF00
0FF80003FF00
0FFC0007FE00
07FE000FFE00
03FF801FFC00
03FFFFFFF800
03FFFFFFF000
07FFFFFFE000
0FFFFFFFC000
0FFFFFFF0000
1FE3FFFC0000
1FE07FC00000
3FC000000000
3FC000000000
3FC000000000
3FC000000000
7FC000000000
3FE000000000
3FF000000000
3FFFF8000000
3FFFFFFFE000
1FFFFFFFFC00
0FFFFFFFFF00
07FFFFFFFFC0
03FFFFFFFFE0
07FFFFFFFFF0
0FFFFFFFFFF0
1FF80003FFF8
3FF000003FF8
7FE000001FF8
7FC000000FFC
FF8000000FFC
FF80000007FC
FF80000007FC
FF80000007FC
FF8000000FF8
FF8000000FF8
FF8000001FF8
FFC000003FF0
FFE000007FF0
7FF80001FFE0
7FFFE03FFFC0
3FFFFFFFFF80
1FFFFFFFFF00
0FFFFFFFFE00
03FFFFFFF800
00FFFFFFE000
001FFFFE0000
000004000000
ENDCHAR
STARTCHAR 0068
ENCODING 104
SWIDTH 550 0
DWIDTH 55 0
BBX 39 69 8 0
BITMAP
FF00000000
FF00000000
FF00000000
FF00000000
FF00000000
FF00000000
FF00000000
FF00000000
FF00000000
FF00000000
FF00000000
FF00000000
FF00000000
FF00000000
FF00000000
FF00000000
FF00000000
FF00000000
FF00000000
FF000FF000
FF007FFE00
FF01FFFF80
FF07FFFFC0
FF0FFFFFE0
FF1FFFFFF0
FF3FFFFFF8
FF7FFDFFF8
FFFFC01FFC
FFFF000FFC
FFFE0007FC
FFFC0007FE
FFF80003FE
FFF00003FE
FFE00003FE
FFC00001FE
FF800001FE
FF000001FE
FF000001FE
FF000001FE
FF000001FE
FF000001FE
FF000001FE
FF000001FE
FF000001FE
FF000001FE
FF000001FE
FF000001FE
FF000001FE
FF000001FE
FF000001FE
FF000001FE
FF000001FE
FF000001FE
FF000001FE
FF000001FE
FF000001FE
FF000001FE
FF000001FE
FF000001FE
FF000001FE
FF000001FE
FF000001FE
FF000001FE
FF000001FE
FF000001FE
FF000001FE
FF000001FE
FF000001FE
FF000001FE
ENDCHAR
STARTCHAR 0069
ENCODING 105
SWIDTH 550 0
DWIDTH 55 0
BBX 40 70 8 0
BITMAP
0000100000
0000FE0000
0001FF0000
0003FF8000
0007FFC000
0007FFC000
0007FFC000
0007FFC000
0007FFC000
0007FFC000
0003FF8000
0003FF8000
0001FF0000
0000380000
0000000000
0000000000
0000000000
0000000000
0000000000
0000000000
0000000000
3FFFFF8000
3FFFFF8000
3FFFFF8000
3FFFFF8000
3FFFFF8000
3FFFFF8000
3FFFFF8000
00007F8000
00007F8000
00007F8000
00007F8000
00007F8000
00007F8000
00007F8000
00007F8000
00007F8000
00007F8000
00007F8000
00007F8000
00007F8000
00007F8000
00007F8000
00007F8000
00007F8000
00007F8000
00007F8000
00007F8000
00007F8000
00007F8000
00007F8000
00007F8000
00007F8000
00007F8000
00007F8000
00007F8000
00007F8000
00007F8000
00007F8000
00007F8000
00007F8000
00007F8000
00007F8000
FFFFFFFFFF
FFFFFFFFFF
FFFFFFFFFF
FFFFFFFFFF
FFFFFFFFFF
FFFFFFFFFF
FFFFFFFFFF
ENDCHAR
STARTCHAR 006A
ENCODING 106
SWIDTH 550 0
DWIDTH 55 0
BBX 37 91 6 -21
BITMAP
0000000600
0000003FC0
0000007FE0
000000FFF0
000000FFF0
000001FFF0
000001FFF8
000001FFF8
000001FFF0
000000FFF0
000000FFF0
0000007FE0
0000003FC0
0000000F00
0000000000
0000000000
0000000000
0000000000
0000000000
0000000000
0000000000
3FFFFFFFE0
3FFFFFFFE0
3FFFFFFFE0
3FFFFFFFE0
3FFFFFFFE0
3FFFFFFFE0
3FFFFFFFE0
0000003FE0
0000003FE0
0000003FE0
0000003FE0
0000003FE0
0000003FE0
0000003FE0
0000003FE0
0000003FE0
0000003FE0
0000003FE0
0000003FE0
0000003FE0
0000003FE0
0000003FE0
0000003FE0
0000003FE0
0000003FE0
0000003FE0
0000003FE0
0000003FE0
0000003FE0
0000003FE0
0000003FE0
0000003FE0
0000003FE0
0000003FE0
0000003FE0
0000003FE0
0000003FE0
0000003FE0
0000003FE0
0000003FE0
0000003FE0
0000003FE0
0000003FE0
0000003FE0
0000003FE0
0000003FE0
0000003FE0
0000003FE0
0000003FE0
0000003FE0
0000003FE0
0000003FE0
0000003FE0
0000003FE0
0000003FC0
0000007FC0
0000007FC0
000000FF80
000001FF80
C00001FF80
F00007FF00
FF001FFE00
FFFFFFFE00
FFFFFFFC00
FFFFFFF800
FFFFFFF000
FFFFFFC000
3FFFFF0000
07FFF80000
0004000000
ENDCHAR
STARTCHAR 006B
ENCODING 107
SWIDTH 550 0
DWIDTH 55 0
BBX 42 69 9 0
BITMAP
FF0000000000
FF0000000000
FF0000000000
FF0000000000
FF0000000000
FF0000000000
FF0000000000
FF0000000000
FF0000000000
FF0000000000
FF0000000000
FF0000000000
FF0000000000
FF0000000000
FF0000000000
FF0000000000
FF0000000000
FF0000000000
FF0000000000
FF0000000000
FF000003FF80
FF000007FF00
FF00000FFE00
FF00001FFC00
FF00003FF800
FF00007FF000
FF0000FFE000
FF0001FFC000
FF0003FF8000
FF0007FF0000
FF000FFE0000
FF001FFC0000
FF003FF80000
FF007FF00000
FF00FFE00000
FF01FFC00000
FF03FF800000
FF07FF000000
FF0FFE000000
FF1FFC000000
FF3FF8000000
FF7FF0000000
FFFFE0000000
FF7FE0000000
FF3FF0000000
FF1FF8000000
FF0FFC000000
FF07FE000000
FF07FF000000
FF03FF800000
FF01FFC00000
FF00FFE00000
FF007FF00000
FF003FF80000
FF001FFC0000
FF001FFE0000
FF000FFE0000
FF0007FF0000
FF0003FF8000
FF0001FFC000
FF0000FFE000
FF00007FF000
FF00003FF800
FF00003FFC00
FF00001FFE00
FF00000FFF00
FF000007FF80
FF000003FFC0
FF000001FFC0
ENDCHAR
STARTCHAR 006C
ENCODING 108
SWIDTH 550 0
DWIDTH 55 0
BBX 40 69 8 0
BITMAP
3FFFFF8000
3FFFFF8000
3FFFFF8000
3FFFFF8000
3FFFFF8000
3FFFFF8000
3FFFFF8000
00007F8000
00007F8000
00007F8000
00007F8000
00007F8000
00007F8000
00007F8000
00007F8000
00007F8000
00007F8000
00007F8000
00007F8000
00007F8000
00007F8000
00007F8000
00007F8000
00007F8000
00007F8000
00007F8000
00007F8000
00007F8000
00007F8000
00007F8000
00007F8000
00007F8000
00007F8000
00007F8000
00007F8000
00007F8000
00007F8000
00007F8000
00007F8000
00007F8000
00007F8000
00007F8000
00007F8000
00007F8000
00007F8000
00007F8000
00007F8000
00007F8000
00007F8000
00007F8000
00007F8000
00007F8000
00007F8000
00007F8000
00007F8000
00007F8000
00007F8000
00007F8000
00007F8000
00007F8000
00007F8000
00007F8000
FFFFFFFFFF
FFFFFFFFFF
FFFFFFFFFF
FFFFFFFFFF
FFFFFFFFFF
FFFFFFFFFF
FFFFFFFFFF
ENDCHAR
STARTCHAR 006D
ENCODING 109
SWIDTH 550 0
DWIDTH 55 0
BBX 47 50 4 0
BITMAP
0001F8001F00
FE07FE007FC0
FE0FFF01FFE0
FE1FFF83FFF0
FE3FFF83FFF8
FE3FFFC7FFF8
FE7FFFCFFFFC
FE7E3FCFC7FC
FEFC1FDF83FC
FEF81FDF03FC
FFF01FFF01FC
FFF01FFE01FC
FFE01FFC01FE
FFE00FFC01FE
FFC00FF801FE
FFC00FF801FE
FF800FF001FE
FF800FF001FE
FF000FE001FE
FF000FE001FE
FF000FE001FE
FF000FE001FE
FF000FE001FE
FF000FE001FE
FF000FE001FE
FF000FE001FE
FF000FE001FE
FF000FE001FE
FF000FE001FE
FF000FE001FE
FF000FE001FE
FF000FE001FE
FF000FE001FE
FF000FE001FE
FF000FE001FE
FF000FE001FE
FF000FE001FE
FF000FE001FE
FF000FE001FE
FF000FE001FE
FF000FE001FE
FF000FE001FE
FF000FE001FE
FF000FE001FE
FF000FE001FE
FF000FE001FE
FF000FE001FE
FF000FE001FE
FF000FE001FE
FF000FE001FE
ENDCHAR
STARTCHAR 006E
ENCODING 110
SWIDTH 550 0
DWIDTH 55 0
BBX 39 50 8 0
BITMAP
00000FF000
FE007FFE00
FE01FFFF80
FE07FFFFC0
FF0FFFFFE0
FF1FFFFFF0
FF3FFFFFF8
FF7FFDFFF8
FFFFC01FFC
FFFF000FFC
FFFE0007FC
FFFC0007FE
FFF80003FE
FFF00003FE
FFE00003FE
FFC00003FE
FF800001FE
FF000001FE
FF000001FE
FF000001FE
FF000001FE
FF000001FE
FF000001FE
FF000001FE
FF000001FE
FF000001FE
FF000001FE
FF000001FE
FF000001FE
FF000001FE
FF000001FE
FF000001FE
FF000001FE
FF000001FE
FF000001FE
FF000001FE
FF000001FE
FF000001FE
FF000001FE
FF000001FE
FF000001FE
FF000001FE
FF000001FE
FF000001FE
FF000001FE
FF000001FE
FF000001FE
FF000001FE
FF000001FE
FF000001FE
ENDCHAR
STARTCHAR 006F
ENCODING 111
SWIDTH 550 0
DWIDTH 55 0
BBX 45 51 5 -1
BITMAP
00001FF00000
0003FFFF0000
000FFFFFC000
003FFFFFF000
007FFFFFF800
01FFFFFFFC00
03FFFFFFFE00
03FFF8FFFF00
07FF800FFF80
0FFE0003FFC0
1FFC0000FFC0
1FF800007FE0
3FF000007FE0
3FE000003FF0
7FE000001FF0
7FC000001FF0
7FC000001FF8
FF8000000FF8
FF8000000FF8
FF8000000FF8
FF8000000FF8
FF00000007F8
FF00000007F8
FF00000007F8
FF00000007F8
FF00000007F8
FF00000007F8
FF00000007F8
FF00000007F8
FF00000007F8
FF8000000FF8
FF8000000FF8
FF8000000FF8
FF8000000FF0
FFC000001FF0
7FC000001FF0
7FC000003FF0
7FE000003FE0
3FF000007FE0
3FF00000FFC0
1FF80001FFC0
1FFE0003FF80
0FFF000FFF00
07FFF0FFFE00
03FFFFFFFE00
03FFFFFFF800
00FFFFFFF000
007FFFFFE000
001FFFFF8000
0007FFFE0000
00007FC00000
ENDCHAR
STARTCHAR 0070
ENCODING 112
SWIDTH 550 0
DWIDTH 55 0
BBX 42 70 8 -20
BITMAP
000007F00000
FE007FFE0000
FE01FFFF8000
FF07FFFFC000
FF0FFFFFF000
FF1FFFFFF000
FF3FFFFFF800
FF7FFFFFFC00
FFFFE01FFC00
FFFF800FFE00
FFFE0007FE00
FFFC0003FF00
FFF80001FF00
FFF00001FF00
FFE00000FF80
FFC00000FF80
FF800000FF80
FF800000FF80
FF0000007F80
FF0000007F80
FF0000007FC0
FF0000007FC0
FF0000007FC0
FF0000007FC0
FF0000007FC0
FF0000007FC0
FF0000007FC0
FF0000007FC0
FF0000007FC0
FF0000007F80
FF0000007F80
FF000000FF80
FF000000FF80
FF000000FF80
FF000000FF00
FF000001FF00
FF000001FF00
FF000003FE00
FF000003FE00
FF000007FC00
FF00000FFC00
FF00003FF800
FFE0007FF000
FFFE07FFE000
FFFFFFFFC000
FFFFFFFF8000
FFFFFFFF0000
FFFFFFFC0000
FFFFFFF00000
FFFFFFC00000
FF00E0000000
FF0000000000
FF0000000000
FF0000000000
FF0000000000
FF0000000000
FF0000000000
FF0000000000
FF0000000000
FF0000000000
FF0000000000
FF0000000000
FF0000000000
FF0000000000
FF0000000000
FF0000000000
FF0000000000
FF0000000000
FF0000000000
FF0000000000
ENDCHAR
STARTCHAR 0071
ENCODING 113
SWIDTH 550 0
DWIDTH 55 0
BBX 42 70 5 -20
BITMAP
000003C000C0
0000FFFF8FC0
0007FFFFFFC0
000FFFFFFFC0
003FFFFFFFC0
007FFFFFFFC0
00FFFFFFFFC0
01FFFC3FFFC0
03FF8001FFC0
07FF00007FC0
0FFC00007FC0
0FF800007FC0
1FF000007FC0
1FF000007FC0
3FE000007FC0
3FE000007FC0
3FC000007FC0
7FC000007FC0
7FC000007FC0
7FC000007FC0
7F8000007FC0
7F8000007FC0
7F8000007FC0
FF8000007FC0
FF8000007FC0
FF8000007FC0
FF8000007FC0
FF8000007FC0
FF8000007FC0
FF8000007FC0
FF8000007FC0
7F8000007FC0
7F8000007FC0
7FC00000FFC0
7FC00000FFC0
7FC00001FFC0
7FC00003FFC0
3FE00007FFC0
3FE0000FFFC0
3FF0001FFFC0
1FF8003FFFC0
1FF8007FBFC0
0FFE01FFBFC0
0FFFCFFF3FC0
07FFFFFE3FC0
03FFFFFC3FC0
03FFFFF83FC0
01FFFFF03FC0
007FFFC07FC0
001FFF007FC0
0003F8007FC0
000000007FC0
000000007FC0
000000007FC0
000000007FC0
000000007FC0
000000007FC0
000000007FC0
000000007FC0
000000007FC0
000000007FC0
000000007FC0
000000007FC0
000000007FC0
000000007FC0
000000007FC0
000000007FC0
000000007FC0
000000007FC0
000000007FC0
ENDCHAR
STARTCHAR 0072
ENCODING 114
SWIDTH 550 0
DWIDTH 55 0
BBX 40 50 10 0
BITMAP
000003F800
FF003FFF00
FF00FFFFC0
FF01FFFFE0
FF07FFFFF0
FF0FFFFFF8
FF1FFFFFF8
FF3FFEFFFC
FF7FE00FFC
FFFF8007FE
FFFF0003FE
FFFE0003FE
FFFC0001FF
FFF80001FF
FFF00001FF
FFE00001FF
FFC00001FF
FF800001FF
FF000001FF
FF000001FF
FF00000000
FF00000000
FF00000000
FF00000000
FF00000000
FF00000000
FF00000000
FF00000000
FF00000000
FF00000000
FF00000000
FF00000000
FF00000000
FF00000000
FF00000000
FF00000000
FF00000000
FF00000000
FF00000000
FF00000000
FF00000000
FF00000000
FF00000000
FF00000000
FF00000000
FF00000000
FF00000000
FF00000000
FF00000000
FF00000000
ENDCHAR
STARTCHAR 0073
ENCODING 115
SWIDTH 550 0
DWIDTH 55 0
BBX 38 51 9 -1
BITMAP
0001FFF000
001FFFFFC0
00FFFFFFC0
01FFFFFFC0
07FFFFFFC0
0FFFFFFFC0
1FFFFFFFC0
1FFF007FC0
3FF80000C0
7FE0000000
7FC0000000
7FC0000000
7F80000000
7F80000000
7F80000000
7FC0000000
7FC0000000
7FE0000000
7FF0000000
3FFC000000
3FFF800000
1FFFF00000
0FFFFE0000
07FFFFC000
03FFFFF800
00FFFFFE00
003FFFFF00
000FFFFFC0
0000FFFFE0
00001FFFF0
000003FFF0
000000FFF8
0000003FF8
0000001FF8
0000000FF8
00000007FC
00000007FC
00000007FC
00000007F8
0000000FF8
0000000FF8
8000001FF8
F800007FF0
FFF00FFFF0
FFFFFFFFE0
FFFFFFFFC0
FFFFFFFF80
FFFFFFFE00
FFFFFFF800
3FFFFFC000
007FFC0000
ENDCHAR
STARTCHAR 0074
ENCODING 116
SWIDTH 550 0
DWIDTH 55 0
BBX 44 66 3 -1
BITMAP
000004000000
00003C000000
0003FC000000
0003FC000000
0003FC000000
0003FC000000
0003FC000000
0003FC000000
0003FC000000
0003FC000000
0003FC000000
0003FC000000
0003FC000000
0003FC000000
0003FC000000
0003FC000000
FFFFFFFFFFF0
FFFFFFFFFFF0
FFFFFFFFFFF0
FFFFFFFFFFF0
FFFFFFFFFFF0
FFFFFFFFFFF0
FFFFFFFFFFF0
0003FC000000
0003FC000000
0003FC000000
0003FC000000
0003FC000000
0003FC000000
0003FC000000
0003FC000000
0003FC000000
0003FC000000
0003FC000000
0003FC000000
0003FC000000
0003FC000000
0003FC000000
0003FC000000
0003FC000000
0003FC000000
0003FC000000
0003FC000000
0003FC000000
0003FC000000
0003FC000000
0003FC000000
0003FC000000
0003FC000000
0003FC000000
0003FC000000
0003FE000000
0003FE000000
0003FE000000
0003FF000000
0001FF800000
0001FFC00000
0001FFF00030
0000FFFFFFF0
00007FFFFFF0
00007FFFFFF0
00003FFFFFF0
00001FFFFFF0
000007FFFFF0
000000FFFFF0
00000007F000
ENDCHAR
STARTCHAR 0075
ENCODING 117
SWIDTH 550 0
DWIDTH 55 0
BBX 39 50 8 -1
BITMAP
FF000001FE
FF000001FE
FF000001FE
FF000001FE
FF000001FE
FF000001FE
FF000001FE
FF000001FE
FF000001FE
FF000001FE
FF000001FE
FF000001FE
FF000001FE
FF000001FE
FF000001FE
FF000001FE
FF000001FE
FF000001FE
FF000001FE
FF000001FE
FF000001FE
FF000001FE
FF000001FE
FF000001FE
FF000001FE
FF000001FE
FF000001FE
FF000001FE
FF000001FE
FF000001FE
FF000001FE
FF000001FE
FF000001FE
FF000003FE
FF000007FE
FF80000FFE
FF80001FFE
FF80003FFE
FFC0007FFE
7FC000FFFE
7FE001FFFE
7FF007FFFE
3FFF3FFDFE
3FFFFFF9FE
1FFFFFF1FE
0FFFFFE1FE
07FFFFC0FE
03FFFF00FE
00FFFC00FE
001FE00000
ENDCHAR
STARTCHAR 0076
ENCODING 118
SWIDTH 550 0
DWIDTH 55 0
BBX 48 49 3 0
BITMAP
FFC0000001FF
7FC0000001FF
7FE0000003FE
3FE0000003FE
3FF0000007FE
3FF0000007FC
1FF0000007FC
1FF800000FF8
0FF800000FF8
0FF800000FF8
0FFC00001FF0
07FC00001FF0
07FE00003FF0
03FE00003FE0
03FE00003FE0
03FF00007FC0
01FF00007FC0
01FF00007FC0
01FF8000FF80
00FF8000FF80
00FFC001FF00
007FC001FF00
007FC001FF00
007FE003FE00
003FE003FE00
003FE003FC00
001FF007FC00
001FF007FC00
001FF007F800
000FF80FF800
000FF80FF000
0007FC1FF000
0007FC1FF000
0007FC1FE000
0003FE3FE000
0003FE3FC000
0001FE3FC000
0001FF7FC000
0001FF7F8000
0000FF7F8000
0000FFFF8000
0000FFFF0000
00007FFF0000
00007FFE0000
00003FFE0000
00003FFE0000
00003FFC0000
00001FFC0000
00001FF80000
ENDCHAR
STARTCHAR 0077
ENCODING 119
SWIDTH 550 0
DWIDTH 55 0
BBX 51 49 2 0
BITMAP
FF000000001FE0
FF000000001FE0
FF000000001FE0
FF800000003FE0
FF800000003FE0
7F800000003FC0
7F800000003FC0
7F800000003FC0
7F800000003FC0
7F800000003FC0
7F800000003FC0
7FC00000003FC0
3FC003F8007F80
3FC003F8007F80
3FC003F8007F80
3FC007FC007F80
3FC007FC007F80
3FC007FC007F80
3FC00FFE007F80
1FE00FFE007F00
1FE00FFE00FF00
1FE01FFF00FF00
1FE01FFF00FF00
1FE01FFF00FF00
1FE03FBF80FF00
1FE03FBF80FF00
0FE03F3F80FE00
0FE07F3FC0FE00
0FF07F1FC0FE00
0FF07E1FE1FE00
0FF0FE1FE1FE00
0FF0FE0FE1FE00
07F0FC0FF1FE00
07F1FC0FF1FC00
07F1FC07F1FC00
07F1F807F9FC00
07FBF807F9FC00
07FBF803F9FC00
07FBF003FFFC00
03FFF001FFF800
03FFF001FFF800
03FFE001FFF800
03FFE000FFF800
03FFE000FFF800
03FFC000FFF800
03FFC0007FF800
01FFC0007FF000
01FF80007FF000
01FF80003FF000
ENDCHAR
STARTCHAR 0078
ENCODING 120
SWIDTH 550 0
DWIDTH 55 0
BBX 48 49 4 0
BITMAP
7FF000000FFE
7FF000000FFC
3FF800001FF8
1FFC00003FF8
0FFC00003FF0
0FFE00007FE0
07FF0000FFC0
03FF0000FFC0
01FF8001FF80
01FFC003FF00
00FFC003FE00
007FE007FE00
003FF00FFC00
003FF00FF800
001FF81FF000
000FFC3FF000
0007FC3FE000
0007FE7FC000
0003FFFF8000
0001FFFF8000
0000FFFF0000
0000FFFE0000
00007FFC0000
00003FFC0000
00003FF80000
00003FFC0000
00007FFC0000
0000FFFE0000
0001FFFF0000
0003FFFF8000
0003FEFF8000
0007FEFFC000
000FFC7FE000
001FF83FF000
001FF83FF800
003FF01FF800
007FE00FFC00
00FFC007FE00
00FFC007FF00
01FF8003FF80
03FF0001FF80
07FF0001FFC0
0FFE0000FFE0
0FFC00007FF0
1FFC00003FF0
3FF800003FF8
7FF000001FFC
7FE000000FFE
FFE000000FFF
ENDCHAR
STARTCHAR 0079
ENCODING 121
SWIDTH 550 0
DWIDTH 55 0
BBX 48 69 3 -20
BITMAP
FFC0000001FF
7FC0000001FF
7FE0000003FE
3FE0000003FE
3FF0000007FE
3FF0000007FC
1FF0000007FC
1FF800000FFC
0FF800000FF8
0FFC00000FF8
0FFC00001FF0
07FC00001FF0
07FE00001FF0
03FE00003FE0
03FE00003FE0
03FF00003FE0
01FF00007FC0
01FF80007FC0
00FF8000FF80
00FF8000FF80
00FFC000FF80
007FC001FF00
007FE001FF00
003FE001FE00
003FE003FE00
003FF003FE00
001FF003FC00
001FF007FC00
000FF807FC00
000FF807F800
000FFC0FF800
0007FC0FF000
0007FC1FF000
0003FE1FF000
0003FE1FE000
0003FE3FE000
0001FF3FE000
0001FF3FC000
0000FF7FC000
0000FFFF8000
0000FFFF8000
00007FFF8000
00007FFF0000
00003FFF0000
00003FFE0000
00003FFE0000
00001FFE0000
00001FFC0000
00000FFC0000
00000FF80000
00001FF80000
00001FF00000
00003FF00000
00007FE00000
00007FE00000
0000FFC00000
0001FFC00000
0001FF800000
0003FF000000
000FFF000000
001FFE000000
80FFFC000000
FFFFF8000000
FFFFF0000000
FFFFE0000000
FFFFC0000000
FFFF00000000
FFFC00000000
FFE000000000
ENDCHAR
STARTCHAR 007A
ENCODING 122
SWIDTH 550 0
DWIDTH 55 0
BBX 40 49 8 0
BITMAP
7FFFFFFFFC
7FFFFFFFFC
7FFFFFFFFC
7FFFFFFFFC
7FFFFFFFFC
7FFFFFFFFC
7FFFFFFFFC
0000001FF8
0000001FF0
0000003FF0
0000007FE0
000000FFC0
000001FF80
000001FF80
000003FF00
000007FE00
00000FFC00
00000FFC00
00001FF800
00003FF000
00007FE000
00007FC000
0000FFC000
0001FF8000
0003FF0000
0007FE0000
0007FE0000
000FFC0000
001FF80000
003FF00000
003FE00000
007FE00000
00FFC00000
01FF800000
03FF000000
03FF000000
07FE000000
0FFC000000
1FF8000000
1FF8000000
3FF0000000
7FE0000000
FFFFFFFFFF
FFFFFFFFFF
FFFFFFFFFF
FFFFFFFFFF
FFFFFFFFFF
FFFFFFFFFF
FFFFFFFFFF
ENDCHAR
STARTCHAR 007B
ENCODING 123
SWIDTH 550 0
DWIDTH 55 0
BBX 36 91 8 -20
BITMAP
00000007F0
000000FFF0
000007FFF0
00000FFFF0
00003FFFF0
00007FFFF0
00007FFFF0
0000FFF800
0001FFC000
0001FF8000
0001FF0000
0003FE0000
0003FE0000
0003FC0000
0003FC0000
0003FC0000
0003FC0000
0003FC0000
0003FC0000
0003FC0000
0003FC0000
0003FC0000
0003FC0000
0003FC0000
0003FC0000
0003FC0000
0003FC0000
0003FC0000
0003FC0000
0003FC0000
0003FC0000
0007FC0000
0007F80000
0007F80000
0007F80000
0007F80000
000FF00000
001FF00000
007FE00000
3FFFC00000
FFFF800000
FFFF000000
FFF8000000
FFFC000000
FFFF000000
FFFFC00000
07FFE00000
007FF00000
001FF00000
000FF80000
000FF80000
0007F80000
0007F80000
0007FC0000
0007FC0000
0003FC0000
0003FC0000
0003FC0000
0003FC0000
0003FC0000
0003FC0000
0003FC0000
0003FC0000
0003FC0000
0003FC0000
0003FC0000
0003FC0000
0003FC0000
0003FC0000
0003FC0000
0003FC0000
0003FC0000
0003FC0000
0003FC0000
0003FC0000
0003FC0000
0003FC0000
0003FC0000
0003FE0000
0003FE0000
0001FF0000
0001FF8000
0001FFC000
0000FFF000
0000FFFFF0
00007FFFF0
00003FFFF0
00001FFFF0
000007FFF0
000001FFF0
0000003FF0
ENDCHAR
STARTCHAR 007C
ENCODING 124
SWIDTH 550 0
DWIDTH 55 0
BBX 9 100 23 -20
BITMAP
FF80
FF80
FF80
FF80
FF80
FF80
FF80
FF80
FF80
FF80
FF80
FF80
FF80
FF80
FF80
FF80
FF80
FF80
FF80
FF80
FF80
FF80
FF80
FF80
FF80
FF80
FF80
FF80
FF80
FF80
FF80
FF80
FF80
FF80
FF80
FF80
FF80
FF80
FF80
FF80
FF80
FF80
FF80
FF80
FF80
FF80
FF80
FF80
FF80
FF80
FF80
FF80
FF80
FF80
FF80
FF80
FF80
FF80
FF80
FF80
FF80
FF80
FF80
FF80
FF80
FF80
FF80
FF80
FF80
FF80
FF80
FF80
FF80
FF80
FF80
FF80
FF80
FF80
FF80
FF80
FF80
FF80
FF80
FF80
FF80
FF80
FF80
FF80
FF80
FF80
FF80
FF80
FF80
FF80
FF80
FF80
FF80
FF80
FF80
FF80
ENDCHAR
STARTCHAR 007D
ENCODING 125
SWIDTH 550 0
DWIDTH 55 0
BBX 36 91 11 -20
BITMAP
FE00000000
FFF0000000
FFFE000000
FFFF000000
FFFFC00000
FFFFE00000
FFFFE00000
01FFF00000
003FF00000
001FF80000
000FF80000
0007FC0000
0007FC0000
0003FC0000
0003FC0000
0003FC0000
0003FC0000
0003FC0000
0003FC0000
0003FC0000
0003FC0000
0003FC0000
0003FC0000
0003FC0000
0003FC0000
0003FC0000
0003FC0000
0003FC0000
0003FC0000
0003FC0000
0003FC0000
0003FE0000
0003FE0000
0001FE0000
0001FE0000
0001FF0000
0001FF0000
0000FFC000
0000FFE000
00007FFFF0
00003FFFF0
00000FFFF0
000003FFF0
000003FFF0
00000FFFF0
00003FFFF0
00007FFE00
00007FC000
0000FF8000
0000FF0000
0001FE0000
0001FE0000
0001FE0000
0001FE0000
0003FC0000
0003FC0000
0003FC0000
0003FC0000
0003FC0000
0003FC0000
0003FC0000
0003FC0000
0003FC0000
0003FC0000
0003FC0000
0003FC0000
0003FC0000
0003FC0000
0003FC0000
0003FC0000
0003FC0000
0003FC0000
0003FC0000
0003FC0000
0003FC0000
0003FC0000
0003FC0000
0003FC0000
0007FC0000
0007FC0000
000FF80000
001FF80000
003FF80000
00FFF00000
FFFFF00000
FFFFE00000
FFFFC00000
FFFF800000
FFFE000000
FFF8000000
FFC0000000
ENDCHAR
STARTCHAR 007E
ENCODING 126
SWIDTH 550 0
DWIDTH 55 0
BBX 49 20 3 17
BITMAP
001F8000000000
00FFF000000000
03FFFC00000000
07FFFE00007F80
0FFFFF00007F80
1FFFFF80007F80
1FFFFFC0007F80
3FFFFFE0007F80
3FE0FFF000FF00
7FC03FF800FF00
7F801FFE01FF00
7F800FFF01FF00
7F8007FFFFFE00
FF0003FFFFFE00
FF0001FFFFFC00
FF0000FFFFF800
FF00007FFFF000
0000001FFFE000
0000000FFFC000
00000001FF0000
ENDCHAR
STARTCHAR 00A0
ENCODING 160
SWIDTH 550 0
DWIDTH 55 0
BBX 0 0 0 0
BITMAP
ENDCHAR
STARTCHAR 00A1
ENCODING 161
SWIDTH 550 0
DWIDTH 55 0
BBX 13 70 21 -20
BITMAP
0F80
1FE0
3FF0
7FF0
7FF8
FFF8
FFF8
FFF8
FFF8
7FF0
3FF0
1FE0
0F80
0000
0000
0000
0000
0000
0000
0000
1FC0
1FC0
1FC0
1FC0
1FC0
1FC0
1FE0
1FE0
1FE0
1FE0
3FE0
3FE0
3FE0
3FE0
3FE0
3FE0
3FE0
3FE0
3FE0
3FE0
3FE0
3FE0
3FE0
3FE0
3FE0
3FE0
3FE0
3FE0
3FE0
3FE0
3FE0
3FE0
3FE0
3FE0
3FE0
3FE0
3FE0
3FE0
3FE0
3FF0
3FF0
3FF0
3FF0
3FF0
3FF0
3FF0
3FF0
3FF0
3FF0
3FF0
ENDCHAR
STARTCHAR 00A2
ENCODING 162
SWIDTH 550 0
DWIDTH 55 0
BBX 38 85 6 -12
BITMAP
0000003F80
0000003F80
0000007F80
0000007F80
0000007F00
0000007F00
0000007F00
0000007F00
0000007F00
0000007F00
000000FF00
000000FF00
000000FE00
000000FE00
000000FE00
000000FE00
000007FE00
0000FFFFE0
0003FFFFFC
000FFFFFFC
003FFFFFFC
007FFFFFFC
01FFFFFFFC
03FFFFFFFC
03FFE1FC7C
07FF83FC0C
0FFE03FC00
1FFC03F800
1FF803F800
3FF003F800
3FF003F800
3FE003F800
7FE007F800
7FC007F800
7FC007F000
7FC007F000
FF8007F000
FF8007F000
FF8007F000
FF8007F000
FF800FF000
FF800FE000
FF800FE000
FF800FE000
FF800FE000
FF800FE000
7FC00FE000
7FC01FE000
7FC01FE000
7FE01FC000
7FE01FC000
3FF01FC000
3FF81FC000
1FF81FC000
1FFE1FC000
0FFF3FC00C
0FFFFF807C
07FFFFBFFC
03FFFFFFFC
01FFFFFFFC
007FFFFFFC
003FFFFFFC
000FFFFFFC
0001FFFFC0
00007FF800
00007F0000
00007F0000
00007F0000
00007F0000
00007F0000
0000FF0000
0000FF0000
0000FE0000
0000FE0000
0000FE0000
0000FE0000
0000FE0000
0000FE0000
0001FE0000
0001FC0000
0001FC0000
0001FC0000
0001FC0000
0001FC0000
0001FC0000
ENDCHAR
STARTCHAR 00A3
ENCODING 163
SWIDTH 550 0
DWIDTH 55 0
BBX 44 65 5 0
BITMAP
0000007C0000
00000FFFE000
00007FFFFC00
0000FFFFFF00
0003FFFFFF80
0007FFFFFFE0
000FFFFFFFF0
001FFFFFFFE0
001FFE003FE0
003FF8000FC0
007FE0000780
007FE0000100
007FC0000000
00FF80000000
00FF80000000
00FF80000000
00FF00000000
01FF00000000
01FF00000000
01FF00000000
01FF00000000
01FF00000000
01FF00000000
01FF00000000
01FF00000000
01FF00000000
01FF00000000
01FF00000000
01FF00000000
01FF00000000
FFFFFFFFF800
FFFFFFFFF800
FFFFFFFFF800
FFFFFFFFF800
FFFFFFFFF800
FFFFFFFFF800
FFFFFFFFF800
01FF00000000
01FF00000000
01FF00000000
01FF00000000
01FF00000000
01FF00000000
01FF00000000
01FF00000000
01FF00000000
01FF00000000
01FF00000000
01FF00000000
01FF00000000
01FF00000000
01FF00000000
01FF00000000
01FF00000000
01FF00000000
01FF00000000
01FF00000000
01FF00000000
FFFFFFFFFFF0
FFFFFFFFFFF0
FFFFFFFFFFF0
FFFFFFFFFFF0
FFFFFFFFFFF0
FFFFFFFFFFF0
FFFFFFFFFFF0
ENDCHAR
STARTCHAR 00A4
ENCODING 164
SWIDTH 550 0
DWIDTH 55 0
BBX 47 59 4 3
BITMAP
010000000100
030000000180
0F80000003E0
3FC0000003F8
7FC0000007FC
7FE000000FFC
7FF000000FFC
3FF000001FF8
1FF800003FF0
0FFC03803FE0
0FFC7FFE7FC0
07FFFFFFFFC0
03FFFFFFFF80
01FFFFFFFF00
01FFFFFFFE00
00FFFFFFFE00
007FFFFFFE00
007FF01FFE00
00FFC007FF00
01FF8003FF00
01FF8001FF00
01FF0001FF80
03FE0000FF80
03FE0000FF80
03FE00007FC0
07FC00007FC0
07FC00007FC0
07FC00007FC0
07FC00007FC0
07FC00007FC0
07FC00007FC0
07FC00007FC0
07FC00007FC0
07FC00007FC0
07FC0000FF80
03FE0000FF80
03FE0000FF80
03FE0001FF80
03FF0001FF00
01FF8003FF00
01FFC007FE00
00FFE00FFE00
00FFFEFFFC00
007FFFFFFC00
00FFFFFFFE00
01FFFFFFFF00
03FFFFFFFF80
03FFFFFFFF80
07FDFFFE7FC0
0FFC3FF07FE0
1FF800003FF0
1FF000003FF0
3FF000001FF8
7FE000000FFC
FFC000000FFE
3FC0000007F8
1F80000003F0
0780000003C0
010000000100
ENDCHAR
STARTCHAR 00A5
ENCODING 165
SWIDTH 550 0
DWIDTH 55 0
BBX 49 64 3 0
BITMAP
FFC0000000FF80
FFC0000001FF80
7FE0000001FF00
3FF0000003FF00
3FF0000003FE00
1FF8000007FC00
1FF800000FFC00
0FFC00000FF800
07FC00001FF800
07FE00001FF000
03FF00003FE000
03FF00003FE000
01FF80007FC000
00FF8000FFC000
00FFC000FF8000
007FC001FF0000
007FE001FF0000
003FF003FE0000
001FF003FE0000
001FF807FC0000
000FF807F80000
000FFC0FF80000
0007FC1FF00000
0003FE1FF00000
0003FE3FE00000
0001FF3FC00000
0001FF7FC00000
0000FFFF800000
0000FFFF800000
00007FFF000000
00003FFE000000
00003FFE000000
00001FFC000000
00001FFC000000
00000FF8000000
00000FF8000000
07FFFFFFFFF000
07FFFFFFFFF000
07FFFFFFFFF000
07FFFFFFFFF000
07FFFFFFFFF000
07FFFFFFFFF000
07FFFFFFFFF000
00000FF8000000
00000FF8000000
00000FF8000000
00000FF8000000
00000FF8000000
00000FF8000000
00000FF8000000
00000FF8000000
07FFFFFFFFF000
07FFFFFFFFF000
07FFFFFFFFF000
07FFFFFFFFF000
07FFFFFFFFF000
07FFFFFFFFF000
00000FF8000000
00000FF8000000
00000FF8000000
00000FF8000000
00000FF8000000
00000FF8000000
00000FF8000000
ENDCHAR
STARTCHAR 00A6
ENCODING 166
SWIDTH 550 0
DWIDTH 55 0
BBX 9 100 23 -20
BITMAP
FF80
FF80
FF80
FF80
FF80
FF80
FF80
FF80
FF80
FF80
FF80
FF80
FF80
FF80
FF80
FF80
FF80
FF80
FF80
FF80
FF80
FF80
FF80
FF80
FF80
FF80
FF80
FF80
FF80
FF80
FF80
FF80
FF80
FF80
FF80
FF80
FF80
FF80
FF80
FF80
0000
0000
0000
0000
0000
0000
0000
0000
0000
0000
0000
0000
0000
0000
0000
0000
0000
0000
0000
FF80
FF80
FF80
FF80
FF80
FF80
FF80
FF80
FF80
FF80
FF80
FF80
FF80
FF80
FF80
FF80
FF80
FF80
FF80
FF80
FF80
FF80
FF80
FF80
FF80
FF80
FF80
FF80
FF80
FF80
FF80
FF80
FF80
FF80
FF80
FF80
FF80
FF80
FF80
FF80
FF80
ENDCHAR
STARTCHAR 00A7
ENCODING 167
SWIDTH 550 0
DWIDTH 55 0
BBX 41 81 7 -11
BITMAP
000000C00000
0000FFFFF000
0003FFFFF000
000FFFFFF000
003FFFFFF000
007FFFFFF000
00FFFFFFF000
01FFFE3FF000
01FFC0003000
03FF00000000
03FE00000000
07FC00000000
07FC00000000
07FC00000000
07FC00000000
07FC00000000
07FC00000000
07FE00000000
07FF00000000
03FF80000000
03FFC0000000
01FFE0000000
00FFF8000000
00FFFE000000
03FFFF000000
07FFFFC00000
0FFFFFF00000
1FFFFFF80000
1FF8FFFE0000
3FE07FFF0000
7FE01FFFC000
7FC007FFE000
7F8003FFF000
FF8000FFF800
FF00007FFC00
FF00001FFC00
FF00000FFE00
FF000007FF00
FF000003FF00
FF800001FF80
FF800000FF80
7FC00000FF80
7FE000007F80
7FE000007F80
3FF000007F80
1FFC00007F80
1FFE00007F80
0FFF00007F80
07FFC000FF80
03FFF000FF00
01FFF801FF00
007FFE03FF00
003FFF87FE00
001FFFCFFC00
0007FFFFF800
0001FFFFF800
0000FFFFE000
00003FFFC000
00000FFF8000
000007FFC000
000001FFE000
000000FFE000
0000003FF000
0000001FF000
0000001FF000
0000000FF800
0000000FF800
0000000FF800
0000000FF000
0000001FF000
0000001FF000
0000003FF000
600000FFE000
7E0003FFC000
7FFFFFFFC000
7FFFFFFF8000
7FFFFFFF0000
7FFFFFFC0000
7FFFFFF80000
7FFFFFC00000
07FFFE000000
ENDCHAR
STARTCHAR 00A8
ENCODING 168
SWIDTH 550 0
DWIDTH 55 0
BBX 31 11 12 49
BITMAP
08000040
3F0001F8
7F8003FC
FFC007FE
FFC007FE
FFC007FE
FFC007FE
FFC007FE
FFC007FE
7F8003FC
3F0001F8
ENDCHAR
STARTCHAR 00A9
ENCODING 169
SWIDTH 550 0
DWIDTH 55 0
BBX 53 66 1 -1
BITMAP
00000070000000
00001FFFC00000
0000FFFFF80000
0003FFFFFE0000
0007FFFFFF8000
001FFFFFFFC000
003FFFFFFFE000
007FFC01FFF000
00FFE0003FF800
01FF80000FFC00
03FF000007FE00
03FC000003FE00
07F8000001FF00
0FF8000000FF80
0FF00000007F80
1FE00000003FC0
1FE00000003FC0
3FC000FFC01FE0
3FC007FFF81FE0
3F800FFFF80FE0
7F803FFFF80FF0
7F007FFFF80FF0
7F007FFFF807F0
7F00FFC07807F0
FF01FF000807F8
FE01FE000007F8
FE01FE000003F8
FE03FC000003F8
FE03FC000003F8
FE03F8000003F8
FE03F8000003F8
FE03F8000003F8
FE03F8000003F8
FE03F8000003F8
FE03F8000003F8
FE03F8000003F8
FE03F8000003F8
FE03F8000003F8
FE03FC000003F8
FE03FC000003F8
FE01FE000003F8
FF01FF000007F8
7F01FF803807F0
7F00FFFFF807F0
7F80FFFFF807F0
7F807FFFF80FF0
3F803FFFF80FE0
3FC00FFFF81FE0
3FC003FFE01FE0
1FE00000003FC0
1FE00000003FC0
0FF00000007F80
0FF80000007F80
07F8000000FF00
07FC000001FF00
03FF000003FE00
01FF80000FFC00
00FFE0001FF800
007FF800FFF000
003FFFFFFFE000
001FFFFFFFC000
000FFFFFFF8000
0003FFFFFE0000
0000FFFFF80000
00003FFFE00000
000001FC000000
ENDCHAR
STARTCHAR 00AA
ENCODING 170
SWIDTH 550 0
DWIDTH 55 0
BBX 33 47 11 18
BITMAP
01FFFE0000
0FFFFF8000
1FFFFFE000
1FFFFFF000
1FFFFFF000
1FFFFFF800
1F000FF800
180007FC00
000003FC00
000003FC00
000003FC00
000003FC00
000003FC00
0001FFFC00
007FFFFC00
03FFFFFC00
07FFFFFC00
0FFFFFFC00
1FFFFFFC00
3FF003FC00
3FC003FC00
7FC003FC00
7F8003FC00
7F8003FC00
7F8007FC00
7F800FFC00
7FC03FFC00
7FE0FFFC00
3FFFFFFC00
3FFFFDFC00
1FFFF9FC00
0FFFF1FC00
07FFC1FC00
00FE000000
0000000000
0000000000
0000000000
0000000000
0000000000
0000000000
FFFFFFFF80
FFFFFFFF80
FFFFFFFF80
FFFFFFFF80
FFFFFFFF80
FFFFFFFF80
FFFFFFFF80
ENDCHAR
STARTCHAR 00AB
ENCODING 171
SWIDTH 550 0
DWIDTH 55 0
BBX 40 39 7 7
BITMAP
000C000020
001F000078
001FC000FE
003FE001FF
003FC001FF
007FC003FE
00FF8007FC
00FF8007FC
01FF000FF8
03FE001FF0
03FE001FE0
07FC003FE0
0FF8007FC0
0FF8007F80
1FF000FF80
1FE001FF00
3FE001FE00
7FC003FC00
7F8007FC00
FF800FF800
7F8007FC00
7FC003FC00
3FE001FE00
1FE001FF00
1FF000FF80
0FF8007F80
0FF8007FC0
07FC003FE0
03FE001FE0
03FE001FF0
01FF000FF8
00FF0007FC
00FF8007FC
007FC003FE
003FC001FF
003FE001FF
001FC000FE
001F000078
000C000020
ENDCHAR
STARTCHAR 00AC
ENCODING 172
SWIDTH 550 0
DWIDTH 55 0
BBX 41 21 6 9
BITMAP
FFFFFFFFFF80
FFFFFFFFFF80
FFFFFFFFFF80
FFFFFFFFFF80
FFFFFFFFFF80
FFFFFFFFFF80
FFFFFFFFFF80
000000007F80
000000007F80
000000007F80
000000007F80
000000007F80
000000007F80
000000007F80
000000007F80
000000007F80
000000007F80
000000007F80
000000007F80
000000007F80
000000007F80
ENDCHAR
STARTCHAR 00AD
ENCODING 173
SWIDTH 550 0
DWIDTH 55 0
BBX 29 8 13 23
BITMAP
FFFFFFF8
FFFFFFF8
FFFFFFF8
FFFFFFF8
FFFFFFF8
FFFFFFF8
FFFFFFF8
FFFFFFF8
ENDCHAR
STARTCHAR 00AE
ENCODING 174
SWIDTH 550 0
DWIDTH 55 0
BBX 45 45 5 25
BITMAP
000002000000
0000FFF80000
0007FFFF0000
001FFFFFC000
003FFFFFE000
00FFFDFFF800
01FF800FFC00
03FE0003FE00
07F80000FF00
0FF000007F00
0FE3FFC03F80
1FC3FFF81FC0
1F83FFFC0FC0
3F03FFFE07E0
3F03E0FE07E0
7E03E03E03F0
7E03E03E03F0
7E03E03E03F0
7C03E03E01F0
FC03E03E01F8
FC03E0FC01F8
FC03FFFC01F8
FC03FFF001F8
FC03FFC001F8
FC03FFF001F8
FC03E3F001F8
FC03E1F801F0
7C03E0F801F0
7E03E0FC03F0
7E03E07C03F0
3F03E07E07E0
3F03E03E07E0
3F83E03F0FE0
1F83E01F0FC0
0FC3E01F9F80
0FE000003F80
07F000007F00
03FC0001FE00
01FF0007FC00
00FFC01FF800
007FFFFFF000
003FFFFFC000
000FFFFF8000
0003FFFE0000
00003FE00000
ENDCHAR
STARTCHAR 00AF
ENCODING 175
SWIDTH 550 0
DWIDTH 55 0
BBX 25 6 15 49
BITMAP
FFFFFF80
FFFFFF80
FFFFFF80
FFFFFF80
FFFFFF80
FFFFFF80
ENDCHAR
STARTCHAR 00B0
ENCODING 176
SWIDTH 550 0
DWIDTH 55 0
BBX 35 33 10 37
BITMAP
0000600000
001FFF8000
007FFFE000
01FFFFF800
03FFFFFC00
07FFFFFE00
0FFFFFFF00
1FFC07FF00
1FF001FF80
3FE000FF80
3FC0007FC0
7F80003FC0
7F80003FC0
7F80003FC0
7F00003FC0
FF00001FE0
FF00001FE0
FF00001FE0
FF00001FC0
7F80003FC0
7F80003FC0
7F80003FC0
7FC0007FC0
7FC0007F80
3FE000FF80
3FF803FF00
1FFF1FFE00
0FFFFFFE00
0FFFFFFC00
03FFFFF000
01FFFFE000
007FFF8000
000FFC0000
ENDCHAR
STARTCHAR 00B1
ENCODING 177
SWIDTH 550 0
DWIDTH 55 0
BBX 45 60 5 0
BITMAP
00003FE00000
00003FE00000
00003FE00000
00003FE00000
00003FE00000
00003FE00000
00003FE00000
00003FE00000
00003FE00000
00003FE00000
00003FE00000
00003FE00000
00003FE00000
00003FE00000
00003FE00000
00003FE00000
00003FE00000
00003FE00000
00003FE00000
FFFFFFFFFFF8
FFFFFFFFFFF8
FFFFFFFFFFF8
FFFFFFFFFFF8
FFFFFFFFFFF8
FFFFFFFFFFF8
FFFFFFFFFFF8
FFFFFFFFFFF8
00003FE00000
00003FE00000
00003FE00000
00003FE00000
00003FE00000
00003FE00000
00003FE00000
00003FE00000
00003FE00000
00003FE00000
00003FE00000
00003FE00000
00003FE00000
00003FE00000
00003FE00000
00003FE00000
00003FE00000
00003FE00000
00003FE00000
000000000000
000000000000
000000000000
000000000000
000000000000
000000000000
000000000000
7FFFFFFFFFE0
7FFFFFFFFFE0
7FFFFFFFFFE0
7FFFFFFFFFE0
7FFFFFFFFFE0
7FFFFFFFFFE0
7FFFFFFFFFE0
ENDCHAR
STARTCHAR 00B2
ENCODING 178
SWIDTH 550 0
DWIDTH 55 0
BBX 31 39 12 31
BITMAP
00020000
00FFF800
07FFFE00
1FFFFF80
3FFFFFC0
7FFFFFE0
7FFFFFE0
3FFFFFF0
3F807FF0
1E003FF8
08001FF8
00000FF8
00000FF8
00000FF8
00000FF8
00001FF0
00001FF0
00003FF0
00007FE0
0000FFE0
0001FFC0
0003FF80
0007FF00
000FFE00
003FFC00
007FF800
00FFF000
03FFE000
07FF8000
0FFF0000
1FFC0000
7FF80000
FFFFFFFE
FFFFFFFE
FFFFFFFE
FFFFFFFE
FFFFFFFE
FFFFFFFE
FFFFFFFE
ENDCHAR
STARTCHAR 00B3
ENCODING 179
SWIDTH 550 0
DWIDTH 55 0
BBX 29 39 13 31
BITMAP
1FFFF000
7FFFFE00
7FFFFF00
7FFFFF80
7FFFFFC0
7FFFFFC0
7F87FFE0
60007FE0
00003FE0
00003FE0
00003FE0
00003FE0
00003FE0
00007FC0
0000FFC0
000FFF80
03FFFF00
03FFFC00
03FFFC00
03FFFF80
03FFFFC0
03FFFFE0
0001FFF0
00003FF8
00001FF8
00000FF8
00000FF8
00000FF8
00000FF8
00001FF8
00003FF0
0000FFF0
FFFFFFF0
FFFFFFE0
FFFFFFC0
FFFFFF80
FFFFFE00
FFFFF800
FFFFC000
ENDCHAR
STARTCHAR 00B4
ENCODING 180
SWIDTH 550 0
DWIDTH 55 0
BBX 23 12 23 49
BITMAP
001FFE
003FFC
007FF0
00FFE0
01FFC0
03FF00
07FE00
0FFC00
1FF000
3FE000
7FC000
FF0000
ENDCHAR
STARTCHAR 00B5
ENCODING 181
SWIDTH 550 0
DWIDTH 55 0
BBX 45 69 8 -20
BITMAP
FF000003FE00
FF000003FE00
FF000003FE00
FF000003FE00
FF000003FE00
FF000003FE00
FF000003FE00
FF000003FE00
FF000003FE00
FF000003FE00
FF000003FE00
FF000003FE00
FF000003FE00
FF000003FE00
FF000003FE00
FF000003FE00
FF000003FE00
FF000003FE00
FF000003FE00
FF000003FE00
FF000003FE00
FF000003FE00
FF000003FE00
FF000003FE00
FF000003FE00
FF000003FE00
FF000003FE00
FF000003FE00
FF000003FE00
FF000003FE00
FF000003FE00
FF000003FE00
FF000003FE00
FF000007FE00
FF800007FE00
FF80000FFE00
FF80001FFE00
FF80003FFE00
FFC0007FFE00
FFC000FFFE00
FFE001FFFF00
FFF807FDFF80
FFFFFFFCFFF8
FFFFFFF8FFF8
FFFFFFF0FFF8
FFFFFFE07FF8
FFFFFF803FF8
FF7FFF001FF8
FF1FFC000FF8
FF07E0000000
FF0000000000
FF0000000000
FF0000000000
FF0000000000
FF0000000000
FF0000000000
FF0000000000
FF0000000000
FF0000000000
FF0000000000
FF0000000000
FF0000000000
FF0000000000
FF0000000000
FF0000000000
FF0000000000
FF0000000000
FF0000000000
FF0000000000
ENDCHAR
STARTCHAR 00B6
ENCODING 182
SWIDTH 550 0
DWIDTH 55 0
BBX 44 80 5 -11
BITMAP
00000FFFFFF0
0001FFFFFFF0
000FFFFFFFF0
003FFFFFFFF0
007FFFFFFFF0
01FFFFFFFFF0
03FFFFFFFFF0
07FFFFE01FF0
0FFFFFE01FF0
0FFFFFE01FF0
1FFFFFE01FF0
3FFFFFE01FF0
3FFFFFE01FF0
7FFFFFE01FF0
7FFFFFE01FF0
7FFFFFE01FF0
7FFFFFE01FF0
FFFFFFE01FF0
FFFFFFE01FF0
FFFFFFE01FF0
FFFFFFE01FF0
FFFFFFE01FF0
FFFFFFE01FF0
7FFFFFE01FF0
7FFFFFE01FF0
7FFFFFE01FF0
7FFFFFE01FF0
7FFFFFE01FF0
3FFFFFE01FF0
3FFFFFE01FF0
1FFFFFE01FF0
1FFFFFE01FF0
0FFFFFE01FF0
07FFFFE01FF0
07FFFFE01FF0
01FFFFE01FF0
00FFFFE01FF0
003FFFE01FF0
000FFFE01FF0
0003FFE01FF0
00003FE01FF0
000000001FF0
000000001FF0
000000001FF0
000000001FF0
000000001FF0
000000001FF0
000000001FF0
000000001FF0
000000001FF0
000000001FF0
000000001FF0
000000001FF0
000000001FF0
000000001FF0
000000001FF0
000000001FF0
000000001FF0
000000001FF0
000000001FF0
000000001FF0
000000001FF0
000000001FF0
000000001FE0
000000001FE0
000000003FE0
000000003FE0
000000007FC0
002000007FC0
00700000FFC0
007C0001FF80
00FF0003FF80
01FFE01FFF00
01FFFFFFFE00
03FFFFFFFC00
01FFFFFFF800
007FFFFFF000
001FFFFFE000
0007FFFF8000
0000FFFC0000
ENDCHAR
STARTCHAR 00B7
ENCODING 183
SWIDTH 550 0
DWIDTH 55 0
BBX 17 17 19 19
BITMAP
03E000
0FF800
1FFC00
3FFE00
7FFF00
7FFF00
7FFF00
FFFF80
FFFF80
FFFF80
7FFF00
7FFF00
7FFE00
3FFE00
1FFC00
07F000
008000
ENDCHAR
STARTCHAR 00B8
ENCODING 184
SWIDTH 550 0
DWIDTH 55 0
BBX 12 14 21 -14
BITMAP
1FF0
1FE0
1FE0
1FE0
3FE0
3FC0
3FC0
3FC0
3F80
7F80
7F80
7F80
7F00
FF00
ENDCHAR
STARTCHAR 00B9
ENCODING 185
SWIDTH 550 0
DWIDTH 55 0
BBX 32 38 11 31
BITMAP
0003FC00
000FFC00
003FFC00
00FFFC00
03FFFC00
0FFFFC00
3FFFFC00
FFFFFC00
7FFFFC00
7FF3FC00
7FC3FC00
3F03FC00
3C03FC00
1003FC00
0003FC00
0003FC00
0003FC00
0003FC00
0003FC00
0003FC00
0003FC00
0003FC00
0003FC00
0003FC00
0003FC00
0003FC00
0003FC00
0003FC00
0003FC00
0003FC00
0003FC00
3FFFFFFF
3FFFFFFF
3FFFFFFF
3FFFFFFF
3FFFFFFF
3FFFFFFF
3FFFFFFF
ENDCHAR
STARTCHAR 00BA
ENCODING 186
SWIDTH 550 0
DWIDTH 55 0
BBX 33 47 11 18
BITMAP
001FFF0000
00FFFFC000
01FFFFE000
07FFFFF800
0FFFFFF800
1FFFFFFC00
1FFC1FFE00
3FF003FE00
3FE001FF00
7FC001FF00
7F8000FF00
FF8000FF80
FF00007F80
FF00007F80
FF00007F80
FF00007F80
FF00007F80
FF00007F80
FF00007F80
FF00007F80
FF00007F80
FF0000FF80
FF8000FF00
7F8001FF00
7FC001FF00
7FE003FE00
3FF80FFC00
3FFFFFFC00
1FFFFFF800
0FFFFFF000
07FFFFE000
03FFFF8000
00FFFE0000
000FF00000
0000000000
0000000000
0000000000
0000000000
0000000000
0000000000
FFFFFFFF80
FFFFFFFF80
FFFFFFFF80
FFFFFFFF80
FFFFFFFF80
FFFFFFFF80
FFFFFFFF80
ENDCHAR
STARTCHAR 00BB
ENCODING 187
SWIDTH 550 0
DWIDTH 55 0
BBX 40 39 8 7
BITMAP
0400003000
1E0000F000
7F0003F800
FF8007FC00
FF8003FC00
7FC003FE00
3FE001FF00
3FE000FF00
1FF000FF80
0FF8007FC0
07F8007FC0
07FC003FE0
03FE001FF0
01FE001FF0
01FF000FF8
00FF8007F8
007F8007FC
003FC003FE
003FE001FE
001FE001FF
003FE001FE
003FC003FE
007F8007FC
00FF8007F8
01FF000FF8
01FE001FF0
03FE001FF0
07FC003FE0
07F8007FC0
0FF8007FC0
1FF000FF80
3FE000FF00
3FE001FF00
7FC003FE00
FF8003FC00
FF8007FC00
7F0003F800
1E0000F800
0400003000
ENDCHAR
STARTCHAR 00BC
ENCODING 188
SWIDTH 550 0
DWIDTH 55 0
BBX 53 70 1 0
BITMAP
000FE000000000
003FE0000007F8
00FFE000000FF0
03FFE000001FE0
0FFFE000001FE0
3FFFE000003FC0
7FFFE000007F80
7FFFE000007F80
7FDFE00000FF00
3F1FE00001FE00
3C1FE00001FE00
381FE00003FC00
001FE00007FC00
001FE00007F800
001FE0000FF000
001FE0001FF000
001FE0001FE000
001FE0003FC000
001FE0003FC000
001FE0007F8000
001FE000FF0000
001FE000FF0000
001FE001FE0000
001FE003FC0000
001FE003FC0000
001FE007F80000
001FE00FF00000
001FE00FF00000
001FE01FE00000
0000003FC00000
0000003FC00000
0000007F800000
000000FF000000
000000FF000000
000001FE000000
000003FE000000
000003FC000000
000007F8000000
00000FF8000000
00000FF0000000
00001FE0000000
00001FE0000000
00003FC00FFE00
00007F801FFE00
00007F803FFE00
0000FF003FFE00
0001FE007FFE00
0001FE00FFFE00
0003FC00FEFE00
0007F801FEFE00
0007F803FCFE00
000FF003F8FE00
001FE007F8FE00
001FE00FF0FE00
003FC00FE0FE00
007F801FE0FE00
007F801FC0FE00
00FF003F80FE00
01FF007F80FE00
01FE007FFFFFF0
03FC007FFFFFF0
03FC007FFFFFF0
07F8007FFFFFF0
0FF0007FFFFFF0
0FF0007FFFFFF0
1FE0000000FE00
3FC0000000FE00
3FC0000000FE00
7F80000000FE00
FF00000000FE00
ENDCHAR
STARTCHAR 00BD
ENCODING 189
SWIDTH 550 0
DWIDTH 55 0
BBX 53 70 1 0
BITMAP
000FE000000000
003FE0000007F8
00FFE000000FF0
03FFE000001FE0
0FFFE000001FE0
3FFFE000003FC0
7FFFE000007F80
7FFFE000007F80
7FDFE00000FF00
3F1FE00001FE00
3C1FE00001FE00
381FE00003FC00
001FE00007FC00
001FE00007F800
001FE0000FF000
001FE0001FF000
001FE0001FE000
001FE0003FC000
001FE0003FC000
001FE0007F8000
001FE000FF0000
001FE000FF0000
001FE001FE0000
001FE003FC0000
001FE003FC0000
001FE007F80000
001FE00FF00000
001FE00FF00000
001FE01FE00000
0000003FC00000
0000003FC00000
0000007F800000
000000FF000000
000000FF000000
000001FE000000
000003FE000000
000003FC000000
000007F8000000
00000FF8000000
00000FF0000000
00001FE0000000
00001FE0008000
00003FC01FF800
00007F807FFE00
00007F81FFFF00
0000FF03FFFF80
0001FE01FFFFC0
0001FE01FFFFC0
0003FC00F03FE0
0007F800401FE0
0007F800001FE0
000FF000001FE0
001FE000001FE0
001FE000001FC0
003FC000003FC0
007F8000007F80
007F800000FF80
00FF000003FF00
01FF000007FE00
01FE00000FF800
03FC00003FF000
03FC00007FE000
07F80000FF8000
0FF00001FF0000
0FF00003FFFFF0
1FE00003FFFFF0
3FC00003FFFFF0
3FC00003FFFFF0
7F800003FFFFF0
FF000003FFFFF0
ENDCHAR
STARTCHAR 00BE
ENCODING 190
SWIDTH 550 0
DWIDTH 55 0
BBX 53 70 1 0
BITMAP
00F80000000000
0FFF80000007F8
0FFFE000000FF0
0FFFF000001FE0
0FFFF800001FE0
0FFFF800003FC0
0C0FF800007F80
0007F800007F80
0007F80000FF00
0007F80001FE00
0007F80001FE00
001FF00003FC00
07FFE00007FC00
07FFC00007F800
07FFF0000FF000
07FFF8001FF000
07FFFC001FE000
000FFC003FC000
0003FE003FC000
0003FE007F8000
0003FE00FF0000
0003FE00FF0000
0007FE01FE0000
1C3FFC03FC0000
1FFFFC03FC0000
1FFFF807F80000
1FFFF00FF00000
1FFFC00FF00000
1FFF001FE00000
0000003FC00000
0000003FC00000
0000007F800000
000000FF000000
000000FF000000
000001FE000000
000003FE000000
000003FC000000
000007F8000000
00000FF8000000
00000FF0000000
00001FE0000000
00001FE0000000
00003FC00FFE00
00007F801FFE00
00007F803FFE00
0000FF003FFE00
0001FE007FFE00
0001FE00FFFE00
0003FC00FEFE00
0007F801FEFE00
0007F803FCFE00
000FF003F8FE00
001FE007F8FE00
001FE00FF0FE00
003FC00FE0FE00
007F801FE0FE00
007F801FC0FE00
00FF003F80FE00
01FF007F80FE00
01FE007FFFFFF0
03FC007FFFFFF0
03FC007FFFFFF0
07F8007FFFFFF0
0FF0007FFFFFF0
0FF0007FFFFFF0
1FE0000000FE00
3FC0000000FE00
3FC0000000FE00
7F80000000FE00
FF00000000FE00
ENDCHAR
STARTCHAR 00BF
ENCODING 191
SWIDTH 550 0
DWIDTH 55 0
BBX 30 70 10 -20
BITMAP
00001E00
00007F80
0000FFC0
0001FFE0
0001FFE0
0001FFE0
0001FFF0
0001FFE0
0001FFE0
0001FFE0
0000FFC0
00007F80
00001F00
00000000
00000000
00000000
00000000
00000000
00000000
00000000
00007F80
00007F80
00007F80
00007F80
00007F80
00007F80
00007F80
00007F80
00007F80
00007F80
00007F80
00007F80
000FFF80
007FFF80
01FFFF80
07FFFF80
0FFFFF80
1FFFFF80
3FFFC000
3FF80000
7FF00000
7FE00000
7FC00000
FFC00000
FF800000
FF800000
FF800000
FF800000
FF800000
FF800000
FF800000
FFC00000
FFC00000
7FC00000
7FE00000
7FF00000
3FF00000
3FF80000
1FFE0000
0FFF0000
07FFC000
07FFF800
03FFFFFC
00FFFFFC
007FFFFC
003FFFFC
000FFFFC
0001FFFC
00007FFC
000003FC
ENDCHAR
STARTCHAR 00C0
ENCODING 192
SWIDTH 550 0
DWIDTH 55 0
BBX 53 81 1 0
BITMAP
003FFC00000000
001FFE00000000
000FFF00000000
0003FF80000000
0001FFC0000000
0000FFE0000000
00003FF0000000
00001FF8000000
00000FFC000000
000003FE000000
00000000000000
00000000000000
00000000000000
00000000000000
00000000000000
00000000000000
00000000000000
000007FF800000
00000FFF800000
00000FFF800000
00000FFFC00000
00001FFFC00000
00001FFFC00000
00001FFFE00000
00003FFFE00000
00003FFFE00000
00003FDFF00000
00007FDFF00000
00007F9FF00000
00007F8FF80000
0000FF8FF80000
0000FF0FF80000
0000FF07FC0000
0001FF07FC0000
0001FE07FC0000
0001FE03FE0000
0003FE03FE0000
0003FC03FE0000
0003FC01FF0000
0007FC01FF0000
0007F801FF0000
0007F801FF8000
000FF800FF8000
000FF800FF8000
000FF000FFC000
001FF0007FC000
001FF0007FC000
001FE0007FE000
003FE0003FE000
003FE0003FE000
003FC0003FF000
007FC0001FF000
007FC0001FF000
007F80001FF000
00FF80000FF800
00FF80000FF800
00FF00000FF800
01FF000007FC00
01FF000007FC00
01FFFFFFFFFC00
03FFFFFFFFFE00
03FFFFFFFFFE00
03FFFFFFFFFE00
07FFFFFFFFFF00
07FFFFFFFFFF00
07FFFFFFFFFF00
0FFFFFFFFFFF80
0FF8000000FF80
0FF8000000FF80
1FF0000000FFC0
1FF00000007FC0
1FF00000007FC0
3FE00000007FE0
3FE00000003FE0
3FE00000003FE0
7FC00000003FF0
7FC00000001FF0
7FC00000001FF0
FF800000001FF8
FF800000000FF8
FF800000000FF8
ENDCHAR
STARTCHAR 00C1
ENCODING 193
SWIDTH 550 0
DWIDTH 55 0
BBX 53 81 1 0
BITMAP
00000001FFE000
00000003FFC000
00000007FF8000
0000000FFE0000
0000001FFC0000
0000003FF80000
0000007FE00000
000000FFC00000
000001FF800000
000003FE000000
00000000000000
00000000000000
00000000000000
00000000000000
00000000000000
00000000000000
00000000000000
000007FF800000
00000FFF800000
00000FFF800000
00000FFFC00000
00001FFFC00000
00001FFFC00000
00001FFFE00000
00003FFFE00000
00003FFFE00000
00003FDFF00000
00007FDFF00000
00007F9FF00000
00007F8FF80000
0000FF8FF80000
0000FF0FF80000
0000FF07FC0000
0001FF07FC0000
0001FE07FC0000
0001FE03FE0000
0003FE03FE0000
0003FC03FE0000
0003FC01FF0000
0007FC01FF0000
0007F801FF0000
0007F801FF8000
000FF800FF8000
000FF800FF8000
000FF000FFC000
001FF0007FC000
001FF0007FC000
001FE0007FE000
003FE0003FE000
003FE0003FE000
003FC0003FF000
007FC0001FF000
007FC0001FF000
007F80001FF000
00FF80000FF800
00FF80000FF800
00FF00000FF800
01FF000007FC00
01FF000007FC00
01FFFFFFFFFC00
03FFFFFFFFFE00
03FFFFFFFFFE00
03FFFFFFFFFE00
07FFFFFFFFFF00
07FFFFFFFFFF00
07FFFFFFFFFF00
0FFFFFFFFFFF80
0FF8000000FF80
0FF8000000FF80
1FF0000000FFC0
1FF00000007FC0
1FF00000007FC0
3FE00000007FE0
3FE00000003FE0
3FE00000003FE0
7FC00000003FF0
7FC00000001FF0
7FC00000001FF0
FF800000001FF8
FF800000000FF8
FF800000000FF8
ENDCHAR
STARTCHAR 00C2
ENCODING 194
SWIDTH 550 0
DWIDTH 55 0
BBX 53 81 1 0
BITMAP
000003FE000000
000007FF000000
00000FFF800000
00001FFFC00000
00007FFFF00000
0000FFDFF80000
0001FF8FFC0000
0003FF07FE0000
0007FC03FF0000
000FF800FF8000
00000000000000
00000000000000
00000000000000
00000000000000
00000000000000
00000000000000
00000000000000
000007FF800000
00000FFF800000
00000FFF800000
00000FFFC00000
00001FFFC00000
00001FFFC00000
00001FFFE00000
00003FFFE00000
00003FFFE00000
00003FDFF00000
00007FDFF00000
00007F9FF00000
00007F8FF80000
0000FF8FF80000
0000FF0FF80000
0000FF07FC0000
0001FF07FC0000
0001FE07FC0000
0001FE03FE0000
0003FE03FE0000
0003FC03FE0000
0003FC01FF0000
0007FC01FF0000
0007F801FF0000
0007F801FF8000
000FF800FF8000
000FF800FF8000
000FF000FFC000
001FF0007FC000
001FF0007FC000
001FE0007FE000
003FE0003FE000
003FE0003FE000
003FC0003FF000
007FC0001FF000
007FC0001FF000
007F80001FF000
00FF80000FF800
00FF80000FF800
00FF00000FF800
01FF000007FC00
01FF000007FC00
01FFFFFFFFFC00
03FFFFFFFFFE00
03FFFFFFFFFE00
03FFFFFFFFFE00
07FFFFFFFFFF00
07FFFFFFFFFF00
07FFFFFFFFFF00
0FFFFFFFFFFF80
0FF8000000FF80
0FF8000000FF80
1FF0000000FFC0
1FF00000007FC0
1FF00000007FC0
3FE00000007FE0
3FE00000003FE0
3FE00000003FE0
7FC00000003FF0
7FC00000001FF0
7FC00000001FF0
FF800000001FF8
FF800000000FF8
FF800000000FF8
ENDCHAR
STARTCHAR 00C3
ENCODING 195
SWIDTH 550 0
DWIDTH 55 0
BBX 53 82 1 0
BITMAP
00001800000000
0001FF80008000
0007FFE001C000
000FFFF803E000
001FFFFC07F000
003FFFFF1FF000
007FFFFFFFE000
007F83FFFFC000
003E00FFFF8000
001C007FFF0000
000C001FFE0000
00000003F80000
00000000000000
00000000000000
00000000000000
00000000000000
00000000000000
00000000000000
000007FF800000
00000FFF800000
00000FFF800000
00000FFFC00000
00001FFFC00000
00001FFFC00000
00001FFFE00000
00003FFFE00000
00003FFFE00000
00003FDFF00000
00007FDFF00000
00007F9FF00000
00007F8FF80000
0000FF8FF80000
0000FF0FF80000
0000FF07FC0000
0001FF07FC0000
0001FE07FC0000
0001FE03FE0000
0003FE03FE0000
0003FC03FE0000
0003FC01FF0000
0007FC01FF0000
0007F801FF0000
0007F801FF8000
000FF800FF8000
000FF800FF8000
000FF000FFC000
001FF0007FC000
001FF0007FC000
001FE0007FE000
003FE0003FE000
003FE0003FE000
003FC0003FF000
007FC0001FF000
007FC0001FF000
007F80001FF000
00FF80000FF800
00FF80000FF800
00FF00000FF800
01FF000007FC00
01FF000007FC00
01FFFFFFFFFC00
03FFFFFFFFFE00
03FFFFFFFFFE00
03FFFFFFFFFE00
07FFFFFFFFFF00
07FFFFFFFFFF00
07FFFFFFFFFF00
0FFFFFFFFFFF80
0FF8000000FF80
0FF8000000FF80
1FF0000000FFC0
1FF00000007FC0
1FF00000007FC0
3FE00000007FE0
3FE00000003FE0
3FE00000003FE0
7FC00000003FF0
7FC00000001FF0
7FC00000001FF0
FF800000001FF8
FF800000000FF8
FF800000000FF8
ENDCHAR
STARTCHAR 00C4
ENCODING 196
SWIDTH 550 0
DWIDTH 55 0
BBX 53 81 1 0
BITMAP
0003C0001E0000
000FE0003F8000
001FF0007FC000
001FF800FFC000
001FF800FFC000
001FF800FFC000
001FF800FFC000
001FF000FFC000
000FF0007F8000
0007E0003F0000
00000000000000
00000000000000
00000000000000
00000000000000
00000000000000
00000000000000
00000000000000
000007FF800000
00000FFF800000
00000FFF800000
00000FFFC00000
00001FFFC00000
00001FFFC00000
00001FFFE00000
00003FFFE00000
00003FFFE00000
00003FDFF00000
00007FDFF00000
00007F9FF00000
00007F8FF80000
0000FF8FF80000
0000FF0FF80000
0000FF07FC0000
0001FF07FC0000
0001FE07FC0000
0001FE03FE0000
0003FE03FE0000
0003FC03FE0000
0003FC01FF0000
0007FC01FF0000
0007F801FF0000
0007F801FF8000
000FF800FF8000
000FF800FF8000
000FF000FFC000
001FF0007FC000
001FF0007FC000
001FE0007FE000
003FE0003FE000
003FE0003FE000
003FC0003FF000
007FC0001FF000
007FC0001FF000
007F80001FF000
00FF80000FF800
00FF80000FF800
00FF00000FF800
01FF000007FC00
01FF000007FC00
01FFFFFFFFFC00
03FFFFFFFFFE00
03FFFFFFFFFE00
03FFFFFFFFFE00
07FFFFFFFFFF00
07FFFFFFFFFF00
07FFFFFFFFFF00
0FFFFFFFFFFF80
0FF8000000FF80
0FF8000000FF80
1FF0000000FFC0
1FF00000007FC0
1FF00000007FC0
3FE00000007FE0
3FE00000003FE0
3FE00000003FE0
7FC00000003FF0
7FC00000001FF0
7FC00000001FF0
FF800000001FF8
FF800000000FF8
FF800000000FF8
ENDCHAR
STARTCHAR 00C5
ENCODING 197
SWIDTH 550 0
DWIDTH 55 0
BBX 53 85 1 0
BITMAP
000001FC000000
000007FF000000
00000FFF800000
00001FFFC00000
00003FFFE00000
00007F07F00000
00007E03F00000
00007C01F00000
00007C01F00000
00007C01F00000
00007C01F00000
00007E03F00000
00007E03F00000
00003F8FE00000
00003FFFE00000
00001FFFC00000
00000FFF800000
000003FE000000
000000F8000000
00000000000000
00000000000000
000007FF800000
00000FFF800000
00000FFF800000
00000FFFC00000
00001FFFC00000
00001FFFC00000
00001FFFE00000
00003FFFE00000
00003FFFE00000
00003FDFF00000
00007FDFF00000
00007F9FF00000
00007F8FF80000
0000FF8FF80000
0000FF0FF80000
0000FF07FC0000
0001FF07FC0000
0001FE07FC0000
0001FE03FE0000
0003FE03FE0000
0003FC03FE0000
0003FC01FF0000
0007FC01FF0000
0007F801FF0000
0007F801FF8000
000FF800FF8000
000FF800FF8000
000FF000FFC000
001FF0007FC000
001FF0007FC000
001FE0007FE000
003FE0003FE000
003FE0003FE000
003FC0003FF000
007FC0001FF000
007FC0001FF000
007F80001FF000
00FF80000FF800
00FF80000FF800
00FF00000FF800
01FF000007FC00
01FF000007FC00
01FFFFFFFFFC00
03FFFFFFFFFE00
03FFFFFFFFFE00
03FFFFFFFFFE00
07FFFFFFFFFF00
07FFFFFFFFFF00
07FFFFFFFFFF00
0FFFFFFFFFFF80
0FF8000000FF80
0FF8000000FF80
1FF0000000FFC0
1FF00000007FC0
1FF00000007FC0
3FE00000007FE0
3FE00000003FE0
3FE00000003FE0
7FC00000003FF0
7FC00000001FF0
7FC00000001FF0
FF800000001FF8
FF800000000FF8
FF800000000FF8
ENDCHAR
STARTCHAR 00C6
ENCODING 198
SWIDTH 550 0
DWIDTH 55 0
BBX 55 64 -2 0
BITMAP
0000003FFFFFFC
0000007FFFFFFC
0000007FFFFFFC
0000007FFFFFFC
000000FFFFFFFC
000000FFFFFFFC
000001FFFFFFFC
000001FDFE0000
000003FDFE0000
000003FDFE0000
000003F9FE0000
000007F9FE0000
000007F1FE0000
00000FF1FE0000
00000FF1FE0000
00000FE1FE0000
00001FE1FE0000
00001FC1FE0000
00003FC1FE0000
00003FC1FE0000
00003F81FE0000
00007F81FE0000
00007F81FE0000
0000FF01FE0000
0000FF01FE0000
0000FE01FE0000
0001FE01FE0000
0001FE01FFFFFC
0003FC01FFFFFC
0003FC01FFFFFC
0003F801FFFFFC
0007F801FFFFFC
0007F801FFFFFC
000FF001FFFFFC
000FF001FE0000
001FF001FE0000
001FE001FE0000
001FE001FE0000
003FC001FE0000
003FC001FE0000
007FC001FE0000
007F8001FE0000
007F8001FE0000
00FFFFFFFE0000
00FFFFFFFE0000
01FFFFFFFE0000
01FFFFFFFE0000
01FFFFFFFE0000
03FFFFFFFE0000
03FFFFFFFE0000
07FC0001FE0000
07F80001FE0000
07F80001FE0000
0FF80001FE0000
0FF00001FE0000
1FF00001FE0000
1FE00001FE0000
1FE00001FFFFFE
3FE00001FFFFFE
3FC00001FFFFFE
7FC00001FFFFFE
7F800001FFFFFE
7F800001FFFFFE
FF800001FFFFFE
ENDCHAR
STARTCHAR 00C7
ENCODING 199
SWIDTH 550 0
DWIDTH 55 0
BBX 44 79 5 -14
BITMAP
0000003C0000
00000FFFFC00
00007FFFFF80
0001FFFFFFF0
0007FFFFFFF0
001FFFFFFFF0
003FFFFFFFF0
007FFFFFFFF0
00FFFF007FF0
01FFF80003F0
03FFE00000F0
03FF80000010
07FF00000000
0FFE00000000
0FFC00000000
1FF800000000
1FF800000000
3FF000000000
3FF000000000
3FE000000000
7FE000000000
7FC000000000
7FC000000000
7FC000000000
FFC000000000
FF8000000000
FF8000000000
FF8000000000
FF8000000000
FF8000000000
FF8000000000
FF8000000000
FF8000000000
FF8000000000
FF8000000000
FF8000000000
FF8000000000
FF8000000000
FF8000000000
FF8000000000
FF8000000000
FF8000000000
FFC000000000
FFC000000000
7FC000000000
7FC000000000
7FE000000000
7FE000000000
3FF000000000
3FF000000000
3FF800000000
1FFC00000000
1FFC00000000
0FFE00000000
0FFF80000010
07FFC0000070
03FFF00003F0
01FFFE003FF0
01FFFFFFFFF0
00FFFFFFFFF0
003FFFFFFFF0
001FFFFFFFF0
0007FFFFFFF0
0001FFFFFF80
00003FFFFC00
00000FFF8000
00001FF00000
00001FF00000
00001FE00000
00001FE00000
00001FE00000
00003FC00000
00003FC00000
00003FC00000
00003F800000
00007F800000
00007F800000
00007F800000
00007F000000
ENDCHAR
STARTCHAR 00C8
ENCODING 200
SWIDTH 550 0
DWIDTH 55 0
BBX 36 81 10 0
BITMAP
7FF8000000
3FFC000000
1FFE000000
07FF000000
03FF800000
01FFC00000
007FE00000
003FF00000
001FF80000
0007FC0000
0000000000
0000000000
0000000000
0000000000
0000000000
0000000000
0000000000
FFFFFFFFF0
FFFFFFFFF0
FFFFFFFFF0
FFFFFFFFF0
FFFFFFFFF0
FFFFFFFFF0
FFFFFFFFF0
FF80000000
FF80000000
FF80000000
FF80000000
FF80000000
FF80000000
FF80000000
FF80000000
FF80000000
FF80000000
FF80000000
FF80000000
FF80000000
FF80000000
FF80000000
FF80000000
FF80000000
FF80000000
FF80000000
FF80000000
FFFFFFFFE0
FFFFFFFFE0
FFFFFFFFE0
FFFFFFFFE0
FFFFFFFFE0
FFFFFFFFE0
FFFFFFFFE0
FFFFFFFFE0
FF80000000
FF80000000
FF80000000
FF80000000
FF80000000
FF80000000
FF80000000
FF80000000
FF80000000
FF80000000
FF80000000
FF80000000
FF80000000
FF80000000
FF80000000
FF80000000
FF80000000
FF80000000
FF80000000
FF80000000
FF80000000
FF80000000
FFFFFFFFF0
FFFFFFFFF0
FFFFFFFFF0
FFFFFFFFF0
FFFFFFFFF0
FFFFFFFFF0
FFFFFFFFF0
ENDCHAR
STARTCHAR 00C9
ENCODING 201
SWIDTH 550 0
DWIDTH 55 0
BBX 36 81 10 0
BITMAP
000003FFC0
000007FF80
00000FFF00
00001FFC00
00003FF800
00007FF000
0000FFC000
0001FF8000
0003FF0000
0007FC0000
0000000000
0000000000
0000000000
0000000000
0000000000
0000000000
0000000000
FFFFFFFFF0
FFFFFFFFF0
FFFFFFFFF0
FFFFFFFFF0
FFFFFFFFF0
FFFFFFFFF0
FFFFFFFFF0
FF80000000
FF80000000
FF80000000
FF80000000
FF80000000
FF80000000
FF80000000
FF80000000
FF80000000
FF80000000
FF80000000
FF80000000
FF80000000
FF80000000
FF80000000
FF80000000
FF80000000
FF80000000
FF80000000
FF80000000
FFFFFFFFE0
FFFFFFFFE0
FFFFFFFFE0
FFFFFFFFE0
FFFFFFFFE0
FFFFFFFFE0
FFFFFFFFE0
FFFFFFFFE0
FF80000000
FF80000000
FF80000000
FF80000000
FF80000000
FF80000000
FF80000000
FF80000000
FF80000000
FF80000000
FF80000000
FF80000000
FF80000000
FF80000000
FF80000000
FF80000000
FF80000000
FF80000000
FF80000000
FF80000000
FF80000000
FF80000000
FFFFFFFFF0
FFFFFFFFF0
FFFFFFFFF0
FFFFFFFFF0
FFFFFFFFF0
FFFFFFFFF0
FFFFFFFFF0
ENDCHAR
STARTCHAR 00CA
ENCODING 202
SWIDTH 550 0
DWIDTH 55 0
BBX 36 81 10 0
BITMAP
0007FC0000
000FFE0000
001FFF0000
003FFF8000
00FFFFE000
01FFBFF000
03FF1FF800
07FE0FFC00
0FF807FE00
1FF001FF00
0000000000
0000000000
0000000000
0000000000
0000000000
0000000000
0000000000
FFFFFFFFF0
FFFFFFFFF0
FFFFFFFFF0
FFFFFFFFF0
FFFFFFFFF0
FFFFFFFFF0
FFFFFFFFF0
FF80000000
FF80000000
FF80000000
FF80000000
FF80000000
FF80000000
FF80000000
FF80000000
FF80000000
FF80000000
FF80000000
FF80000000
FF80000000
FF80000000
FF80000000
FF80000000
FF80000000
FF80000000
FF80000000
FF80000000
FFFFFFFFE0
FFFFFFFFE0
FFFFFFFFE0
FFFFFFFFE0
FFFFFFFFE0
FFFFFFFFE0
FFFFFFFFE0
FFFFFFFFE0
FF80000000
FF80000000
FF80000000
FF80000000
FF80000000
FF80000000
FF80000000
FF80000000
FF80000000
FF80000000
FF80000000
FF80000000
FF80000000
FF80000000
FF80000000
FF80000000
FF80000000
FF80000000
FF80000000
FF80000000
FF80000000
FF80000000
FFFFFFFFF0
FFFFFFFFF0
FFFFFFFFF0
FFFFFFFFF0
FFFFFFFFF0
FFFFFFFFF0
FFFFFFFFF0
ENDCHAR
STARTCHAR 00CB
ENCODING 203
SWIDTH 550 0
DWIDTH 55 0
BBX 36 81 10 0
BITMAP
0780003C00
1FC0007F00
3FE000FF80
3FF001FF80
3FF001FF80
3FF001FF80
3FF001FF80
3FE001FF80
1FE000FF00
0FC0007E00
0000000000
0000000000
0000000000
0000000000
0000000000
0000000000
0000000000
FFFFFFFFF0
FFFFFFFFF0
FFFFFFFFF0
FFFFFFFFF0
FFFFFFFFF0
FFFFFFFFF0
FFFFFFFFF0
FF80000000
FF80000000
FF80000000
FF80000000
FF80000000
FF80000000
FF80000000
FF80000000
FF80000000
FF80000000
FF80000000
FF80000000
FF80000000
FF80000000
FF80000000
FF80000000
FF80000000
FF80000000
FF80000000
FF80000000
FFFFFFFFE0
FFFFFFFFE0
FFFFFFFFE0
FFFFFFFFE0
FFFFFFFFE0
FFFFFFFFE0
FFFFFFFFE0
FFFFFFFFE0
FF80000000
FF80000000
FF80000000
FF80000000
FF80000000
FF80000000
FF80000000
FF80000000
FF80000000
FF80000000
FF80000000
FF80000000
FF80000000
FF80000000
FF80000000
FF80000000
FF80000000
FF80000000
FF80000000
FF80000000
FF80000000
FF80000000
FFFFFFFFF0
FFFFFFFFF0
FFFFFFFFF0
FFFFFFFFF0
FFFFFFFFF0
FFFFFFFFF0
FFFFFFFFF0
ENDCHAR
STARTCHAR 00CC
ENCODING 204
SWIDTH 550 0
DWIDTH 55 0
BBX 39 81 8 0
BITMAP
1FFE000000
0FFF000000
07FF800000
01FFC00000
00FFE00000
007FF00000
001FF80000
000FFC0000
0007FE0000
0001FF0000
0000000000
0000000000
0000000000
0000000000
0000000000
0000000000
0000000000
FFFFFFFFFE
FFFFFFFFFE
FFFFFFFFFE
FFFFFFFFFE
FFFFFFFFFE
FFFFFFFFFE
FFFFFFFFFE
FFFFFF0000
0001FF0000
0001FF0000
0001FF0000
0001FF0000
0001FF0000
0001FF0000
0001FF0000
0001FF0000
0001FF0000
0001FF0000
0001FF0000
0001FF0000
0001FF0000
0001FF0000
0001FF0000
0001FF0000
0001FF0000
0001FF0000
0001FF0000
0001FF0000
0001FF0000
0001FF0000
0001FF0000
0001FF0000
0001FF0000
0001FF0000
0001FF0000
0001FF0000
0001FF0000
0001FF0000
0001FF0000
0001FF0000
0001FF0000
0001FF0000
0001FF0000
0001FF0000
0001FF0000
0001FF0000
0001FF0000
0001FF0000
0001FF0000
0001FF0000
0001FF0000
0001FF0000
0001FF0000
0001FF0000
0001FF0000
0001FF0000
0001FF0000
FFFFFFFFFE
FFFFFFFFFE
FFFFFFFFFE
FFFFFFFFFE
FFFFFFFFFE
FFFFFFFFFE
FFFFFFFFFE
ENDCHAR
STARTCHAR 00CD
ENCODING 205
SWIDTH 550 0
DWIDTH 55 0
BBX 39 81 8 0
BITMAP
000000FFF0
000001FFE0
000003FFC0
000007FF00
00000FFE00
00001FFC00
00003FF000
00007FE000
0000FFC000
0001FF0000
0000000000
0000000000
0000000000
0000000000
0000000000
0000000000
0000000000
FFFFFFFFFE
FFFFFFFFFE
FFFFFFFFFE
FFFFFFFFFE
FFFFFFFFFE
FFFFFFFFFE
FFFFFFFFFE
FFFFFF0000
0001FF0000
0001FF0000
0001FF0000
0001FF0000
0001FF0000
0001FF0000
0001FF0000
0001FF0000
0001FF0000
0001FF0000
0001FF0000
0001FF0000
0001FF0000
0001FF0000
0001FF0000
0001FF0000
0001FF0000
0001FF0000
0001FF0000
0001FF0000
0001FF0000
0001FF0000
0001FF0000
0001FF0000
0001FF0000
0001FF0000
0001FF0000
0001FF0000
0001FF0000
0001FF0000
0001FF0000
0001FF0000
0001FF0000
0001FF0000
0001FF0000
0001FF0000
0001FF0000
0001FF0000
0001FF0000
0001FF0000
0001FF0000
0001FF0000
0001FF0000
0001FF0000
0001FF0000
0001FF0000
0001FF0000
0001FF0000
0001FF0000
FFFFFFFFFE
FFFFFFFFFE
FFFFFFFFFE
FFFFFFFFFE
FFFFFFFFFE
FFFFFFFFFE
FFFFFFFFFE
ENDCHAR
STARTCHAR 00CE
ENCODING 206
SWIDTH 550 0
DWIDTH 55 0
BBX 39 81 8 0
BITMAP
0001FF0000
0003FF8000
0007FFC000
000FFFE000
003FFFF800
007FEFFC00
00FFC7FE00
01FF83FF00
03FE01FF80
07FC007FC0
0000000000
0000000000
0000000000
0000000000
0000000000
0000000000
0000000000
FFFFFFFFFE
FFFFFFFFFE
FFFFFFFFFE
FFFFFFFFFE
FFFFFFFFFE
FFFFFFFFFE
FFFFFFFFFE
FFFFFF0000
0001FF0000
0001FF0000
0001FF0000
0001FF0000
0001FF0000
0001FF0000
0001FF0000
0001FF0000
0001FF0000
0001FF0000
0001FF0000
0001FF0000
0001FF0000
0001FF0000
0001FF0000
0001FF0000
0001FF0000
0001FF0000
0001FF0000
0001FF0000
0001FF0000
0001FF0000
0001FF0000
0001FF0000
0001FF0000
0001FF0000
0001FF0000
0001FF0000
0001FF0000
0001FF0000
0001FF0000
0001FF0000
0001FF0000
0001FF0000
0001FF0000
0001FF0000
0001FF0000
0001FF0000
0001FF0000
0001FF0000
0001FF0000
0001FF0000
0001FF0000
0001FF0000
0001FF0000
0001FF0000
0001FF0000
0001FF0000
0001FF0000
FFFFFFFFFE
FFFFFFFFFE
FFFFFFFFFE
FFFFFFFFFE
FFFFFFFFFE
FFFFFFFFFE
FFFFFFFFFE
ENDCHAR
STARTCHAR 00CF
ENCODING 207
SWIDTH 550 0
DWIDTH 55 0
BBX 39 81 8 0
BITMAP
01E0000F00
07F0001FC0
0FF8003FE0
0FFC007FE0
0FFC007FE0
0FFC007FE0
0FFC007FE0
0FF8007FE0
07F8003FC0
03F0001F80
0000000000
0000000000
0000000000
0000000000
0000000000
0000000000
0000000000
FFFFFFFFFE
FFFFFFFFFE
FFFFFFFFFE
FFFFFFFFFE
FFFFFFFFFE
FFFFFFFFFE
FFFFFFFFFE
FFFFFF0000
0001FF0000
0001FF0000
0001FF0000
0001FF0000
0001FF0000
0001FF0000
0001FF0000
0001FF0000
0001FF0000
0001FF0000
0001FF0000
0001FF0000
0001FF0000
0001FF0000
0001FF0000
0001FF0000
0001FF0000
0001FF0000
0001FF0000
0001FF0000
0001FF0000
0001FF0000
0001FF0000
0001FF0000
0001FF0000
0001FF0000
0001FF0000
0001FF0000
0001FF0000
0001FF0000
0001FF0000
0001FF0000
0001FF0000
0001FF0000
0001FF0000
0001FF0000
0001FF0000
0001FF0000
0001FF0000
0001FF0000
0001FF0000
0001FF0000
0001FF0000
0001FF0000
0001FF0000
0001FF0000
0001FF0000
0001FF0000
0001FF0000
FFFFFFFFFE
FFFFFFFFFE
FFFFFFFFFE
FFFFFFFFFE
FFFFFFFFFE
FFFFFFFFFE
FFFFFFFFFE
ENDCHAR
STARTCHAR 00D0
ENCODING 208
SWIDTH 550 0
DWIDTH 55 0
BBX 51 64 0 0
BITMAP
01FFFFE0000000
01FFFFFF800000
01FFFFFFF00000
01FFFFFFFC0000
01FFFFFFFF0000
01FFFFFFFFC000
01FFFFFFFFE000
01FE03FFFFF000
01FE0003FFF800
01FE00007FFC00
01FE00001FFC00
01FE00000FFE00
01FE000007FF00
01FE000003FF00
01FE000001FF00
01FE000001FF80
01FE000000FF80
01FE000000FFC0
01FE000000FFC0
01FE0000007FC0
01FE0000007FC0
01FE0000007FE0
01FE0000007FE0
01FE0000003FE0
01FE0000003FE0
01FE0000003FE0
01FE0000003FE0
FFFFFFE0003FE0
FFFFFFE0003FE0
FFFFFFE0003FE0
FFFFFFE0003FE0
FFFFFFE0003FE0
FFFFFFE0003FE0
FFFFFFE0003FE0
FFFFFFE0003FE0
01FE0000003FE0
01FE0000003FE0
01FE0000003FE0
01FE0000003FE0
01FE0000003FE0
01FE0000007FE0
01FE0000007FE0
01FE0000007FC0
01FE0000007FC0
01FE000000FFC0
01FE000000FF80
01FE000000FF80
01FE000001FF80
01FE000003FF00
01FE000003FF00
01FE000007FE00
01FE00000FFE00
01FE00001FFC00
01FE00007FF800
01FE0000FFF800
01FE0007FFF000
01FFFFFFFFE000
01FFFFFFFFC000
01FFFFFFFF0000
01FFFFFFFE0000
01FFFFFFF80000
01FFFFFFE00000
01FFFFFF000000
01FFFFE0000000
ENDCHAR
STARTCHAR 00D1
ENCODING 209
SWIDTH 550 0
DWIDTH 55 0
BBX 43 82 6 0
BITMAP
000300000000
003FF0001000
00FFFC003800
01FFFF007C00
03FFFF80FE00
07FFFFE3FE00
0FFFFFFFFC00
0FF07FFFF800
07C01FFFF000
03800FFFE000
018003FFC000
0000007F0000
000000000000
000000000000
000000000000
000000000000
000000000000
000000000000
FFE000001FE0
FFF000001FE0
FFF000001FE0
FFF800001FE0
FFF800001FE0
FFF800001FE0
FFFC00001FE0
FFFC00001FE0
FFFE00001FE0
FFFE00001FE0
FFFF00001FE0
FFFF00001FE0
FFFF80001FE0
FF7F80001FE0
FF7FC0001FE0
FF3FC0001FE0
FF3FE0001FE0
FF3FE0001FE0
FF1FF0001FE0
FF1FF0001FE0
FF0FF8001FE0
FF0FF8001FE0
FF07F8001FE0
FF07FC001FE0
FF07FC001FE0
FF03FE001FE0
FF03FE001FE0
FF01FF001FE0
FF01FF001FE0
FF00FF801FE0
FF00FF801FE0
FF007FC01FE0
FF007FC01FE0
FF003FE01FE0
FF003FE01FE0
FF001FF01FE0
FF001FF01FE0
FF001FF81FE0
FF000FF81FE0
FF000FF81FE0
FF0007FC1FE0
FF0007FC1FE0
FF0003FE1FE0
FF0003FE1FE0
FF0001FF1FE0
FF0001FF1FE0
FF0000FF9FE0
FF0000FF9FE0
FF00007F9FE0
FF00007FDFE0
FF00003FDFE0
FF00003FFFE0
FF00001FFFE0
FF00001FFFE0
FF00001FFFE0
FF00000FFFE0
FF00000FFFE0
FF000007FFE0
FF000007FFE0
FF000003FFE0
FF000003FFE0
FF000001FFE0
FF000001FFE0
FF000000FFE0
ENDCHAR
STARTCHAR 00D2
ENCODING 210
SWIDTH 550 0
DWIDTH 55 0
BBX 49 82 3 -1
BITMAP
00FFF000000000
007FF800000000
003FFC00000000
000FFE00000000
0007FF00000000
0003FF80000000
0000FFC0000000
00007FE0000000
00003FF0000000
00000FF8000000
00000000000000
00000000000000
00000000000000
00000000000000
00000000000000
00000000000000
000003F0000000
00007FFF800000
0001FFFFF00000
0007FFFFF80000
001FFFFFFE0000
003FFFFFFF0000
007FFFFFFF8000
00FFFFFFFFC000
01FFF007FFE000
03FFC001FFF000
03FF80007FF000
07FE00003FF800
0FFE00001FF800
0FFC00000FFC00
1FF800000FFC00
1FF0000007FE00
1FF0000007FE00
3FE0000003FE00
3FE0000003FF00
3FE0000001FF00
7FC0000001FF00
7FC0000001FF00
7FC0000001FF00
7FC0000001FF80
FF80000000FF80
FF80000000FF80
FF80000000FF80
FF80000000FF80
FF80000000FF80
FF80000000FF80
FF80000000FF80
FF80000000FF80
FF80000000FF80
FF80000000FF80
FF80000000FF80
FF80000000FF80
FF80000000FF80
FF80000000FF80
FF80000000FF80
FF80000000FF80
FF80000000FF80
FF80000000FF80
FFC0000001FF80
7FC0000001FF00
7FC0000001FF00
7FC0000001FF00
7FC0000003FF00
7FE0000003FE00
3FE0000003FE00
3FF0000007FE00
3FF0000007FC00
1FF800000FFC00
1FF800001FF800
0FFC00001FF800
0FFE00003FF000
07FF00007FF000
07FF8001FFE000
03FFE007FFC000
01FFFFFFFF8000
00FFFFFFFF0000
007FFFFFFE0000
003FFFFFFC0000
001FFFFFF00000
0007FFFFE00000
0001FFFF000000
00001FF0000000
ENDCHAR
STARTCHAR 00D3
ENCODING 211
SWIDTH 550 0
DWIDTH 55 0
BBX 49 82 3 -1
BITMAP
00000007FF8000
0000000FFF0000
0000001FFE0000
0000003FF80000
0000007FF00000
000000FFE00000
000001FF800000
000003FF000000
000007FE000000
00000FF8000000
00000000000000
00000000000000
00000000000000
00000000000000
00000000000000
00000000000000
000003F0000000
00007FFF800000
0001FFFFF00000
0007FFFFF80000
001FFFFFFE0000
003FFFFFFF0000
007FFFFFFF8000
00FFFFFFFFC000
01FFF007FFE000
03FFC001FFF000
03FF80007FF000
07FE00003FF800
0FFE00001FF800
0FFC00000FFC00
1FF800000FFC00
1FF0000007FE00
1FF0000007FE00
3FE0000003FE00
3FE0000003FF00
3FE0000001FF00
7FC0000001FF00
7FC0000001FF00
7FC0000001FF00
7FC0000001FF80
FF80000000FF80
FF80000000FF80
FF80000000FF80
FF80000000FF80
FF80000000FF80
FF80000000FF80
FF80000000FF80
FF80000000FF80
FF80000000FF80
FF80000000FF80
FF80000000FF80
FF80000000FF80
FF80000000FF80
FF80000000FF80
FF80000000FF80
FF80000000FF80
FF80000000FF80
FF80000000FF80
FFC0000001FF80
7FC0000001FF00
7FC0000001FF00
7FC0000001FF00
7FC0000003FF00
7FE0000003FE00
3FE0000003FE00
3FF0000007FE00
3FF0000007FC00
1FF800000FFC00
1FF800001FF800
0FFC00001FF800
0FFE00003FF000
07FF00007FF000
07FF8001FFE000
03FFE007FFC000
01FFFFFFFF8000
00FFFFFFFF0000
007FFFFFFE0000
003FFFFFFC0000
001FFFFFF00000
0007FFFFE00000
0001FFFF000000
00001FF0000000
ENDCHAR
STARTCHAR 00D4
ENCODING 212
SWIDTH 550 0
DWIDTH 55 0
BBX 49 82 3 -1
BITMAP
00000FF8000000
00001FFC000000
00003FFE000000
00007FFF000000
0001FFFFC00000
0003FF7FE00000
0007FE3FF00000
000FFC1FF80000
001FF00FFC0000
003FE003FE0000
00000000000000
00000000000000
00000000000000
00000000000000
00000000000000
00000000000000
000003F0000000
00007FFF800000
0001FFFFF00000
0007FFFFF80000
001FFFFFFE0000
003FFFFFFF0000
007FFFFFFF8000
00FFFFFFFFC000
01FFF007FFE000
03FFC001FFF000
03FF80007FF000
07FE00003FF800
0FFE00001FF800
0FFC00000FFC00
1FF800000FFC00
1FF0000007FE00
1FF0000007FE00
3FE0000003FE00
3FE0000003FF00
3FE0000001FF00
7FC0000001FF00
7FC0000001FF00
7FC0000001FF00
7FC0000001FF80
FF80000000FF80
FF80000000FF80
FF80000000FF80
FF80000000FF80
FF80000000FF80
FF80000000FF80
FF80000000FF80
FF80000000FF80
FF80000000FF80
FF80000000FF80
FF80000000FF80
FF80000000FF80
FF80000000FF80
FF80000000FF80
FF80000000FF80
FF80000000FF80
FF80000000FF80
FF80000000FF80
FFC0000001FF80
7FC0000001FF00
7FC0000001FF00
7FC0000001FF00
7FC0000003FF00
7FE0000003FE00
3FE0000003FE00
3FF0000007FE00
3FF0000007FC00
1FF800000FFC00
1FF800001FF800
0FFC00001FF800
0FFE00003FF000
07FF00007FF000
07FF8001FFE000
03FFE007FFC000
01FFFFFFFF8000
00FFFFFFFF0000
007FFFFFFE0000
003FFFFFFC0000
001FFFFFF00000
0007FFFFE00000
0001FFFF000000
00001FF0000000
ENDCHAR
STARTCHAR 00D5
ENCODING 213
SWIDTH 550 0
DWIDTH 55 0
BBX 49 83 3 -1
BITMAP
00006000000000
0007FE00020000
001FFF80070000
003FFFE00F8000
007FFFF01FC000
00FFFFFC7FC000
01FFFFFFFF8000
01FE0FFFFF0000
00F803FFFE0000
007001FFFC0000
0030007FF80000
0000000FE00000
00000000000000
00000000000000
00000000000000
00000000000000
00000000000000
000003F0000000
00007FFF800000
0001FFFFF00000
0007FFFFF80000
001FFFFFFE0000
003FFFFFFF0000
007FFFFFFF8000
00FFFFFFFFC000
01FFF007FFE000
03FFC001FFF000
03FF80007FF000
07FE00003FF800
0FFE00001FF800
0FFC00000FFC00
1FF800000FFC00
1FF0000007FE00
1FF0000007FE00
3FE0000003FE00
3FE0000003FF00
3FE0000001FF00
7FC0000001FF00
7FC0000001FF00
7FC0000001FF00
7FC0000001FF80
FF80000000FF80
FF80000000FF80
FF80000000FF80
FF80000000FF80
FF80000000FF80
FF80000000FF80
FF80000000FF80
FF80000000FF80
FF80000000FF80
FF80000000FF80
FF80000000FF80
FF80000000FF80
FF80000000FF80
FF80000000FF80
FF80000000FF80
FF80000000FF80
FF80000000FF80
FF80000000FF80
FFC0000001FF80
7FC0000001FF00
7FC0000001FF00
7FC0000001FF00
7FC0000003FF00
7FE0000003FE00
3FE0000003FE00
3FF0000007FE00
3FF0000007FC00
1FF800000FFC00
1FF800001FF800
0FFC00001FF800
0FFE00003FF000
07FF00007FF000
07FF8001FFE000
03FFE007FFC000
01FFFFFFFF8000
00FFFFFFFF0000
007FFFFFFE0000
003FFFFFFC0000
001FFFFFF00000
0007FFFFE00000
0001FFFF000000
00001FF0000000
ENDCHAR
STARTCHAR 00D6
ENCODING 214
SWIDTH 550 0
DWIDTH 55 0
BBX 49 82 3 -1
BITMAP
000F0000780000
003F8000FE0000
007FC001FF0000
007FE003FF0000
007FE003FF0000
007FE003FF0000
007FE003FF0000
007FC003FF0000
003FC001FE0000
001F8000FC0000
00000000000000
00000000000000
00000000000000
00000000000000
00000000000000
00000000000000
000003F0000000
00007FFF800000
0001FFFFF00000
0007FFFFF80000
001FFFFFFE0000
003FFFFFFF0000
007FFFFFFF8000
00FFFFFFFFC000
01FFF007FFE000
03FFC001FFF000
03FF80007FF000
07FE00003FF800
0FFE00001FF800
0FFC00000FFC00
1FF800000FFC00
1FF0000007FE00
1FF0000007FE00
3FE0000003FE00
3FE0000003FF00
3FE0000001FF00
7FC0000001FF00
7FC0000001FF00
7FC0000001FF00
7FC0000001FF80
FF80000000FF80
FF80000000FF80
FF80000000FF80
FF80000000FF80
FF80000000FF80
FF80000000FF80
FF80000000FF80
FF80000000FF80
FF80000000FF80
FF80000000FF80
FF80000000FF80
FF80000000FF80
FF80000000FF80
FF80000000FF80
FF80000000FF80
FF80000000FF80
FF80000000FF80
FF80000000FF80
FFC0000001FF80
7FC0000001FF00
7FC0000001FF00
7FC0000001FF00
7FC0000003FF00
7FE0000003FE00
3FE0000003FE00
3FF0000007FE00
3FF0000007FC00
1FF800000FFC00
1FF800001FF800
0FFC00001FF800
0FFE00003FF000
07FF00007FF000
07FF8001FFE000
03FFE007FFC000
01FFFFFFFF8000
00FFFFFFFF0000
007FFFFFFE0000
003FFFFFFC0000
001FFFFFF00000
0007FFFFE00000
0001FFFF000000
00001FF0000000
ENDCHAR
STARTCHAR 00D7
ENCODING 215
SWIDTH 550 0
DWIDTH 55 0
BBX 41 40 7 6
BITMAP
040000001000
0E0000003800
1F0000007C00
3F800000FE00
7FC00001FF00
FFE00003FF80
7FF00007FF00
3FF8000FFE00
1FFC001FFC00
0FFE003FF800
07FF007FF000
03FF80FFE000
01FFC1FFC000
00FFE3FF8000
007FF7FF0000
003FFFFE0000
001FFFFC0000
000FFFF80000
0007FFF00000
0003FFE00000
0001FFC00000
0003FFE00000
0007FFF00000
000FFFF80000
001FFFFC0000
003FFFFE0000
007FF7FF0000
00FFE3FF8000
01FFC1FFC000
03FF80FFE000
07FF007FF000
0FFE003FF800
1FFC001FFC00
3FF8000FFE00
7FF00007FF00
7FE00003FF00
3FC00001FE00
1F800000FC00
0F0000007800
060000003000
ENDCHAR
STARTCHAR 00D8
ENCODING 216
SWIDTH 550 0
DWIDTH 55 0
BBX 49 84 3 -10
BITMAP
000000007F8000
000000007F0000
000000007F0000
000000007F0000
00000000FE0000
00000000FE0000
00000000FE0000
00000001FC0000
00000001FC0000
000003F1FC0000
00007FFFFC0000
0001FFFFF80000
0007FFFFF80000
001FFFFFFE0000
003FFFFFFF0000
007FFFFFFF8000
00FFFFFFFFC000
01FFF00FFFE000
03FFC00FFFF000
03FF800FFFF000
07FE001FFFF800
0FFE001FDFF800
0FFC001FCFFC00
1FF8001FCFFC00
1FF0003F87FE00
1FF0003F87FE00
3FE0003F83FE00
3FE0007F03FF00
3FE0007F03FF00
7FC0007F01FF00
7FC000FF01FF00
7FC000FE01FF00
7FC000FE01FF80
FF8000FE00FF80
FF8001FC00FF80
FF8001FC00FF80
FF8001FC00FF80
FF8003F800FF80
FF8003F800FF80
FF8003F800FF80
FF8007F800FF80
FF8007F000FF80
FF8007F000FF80
FF8007F000FF80
FF800FE000FF80
FF800FE000FF80
FF800FE000FF80
FF801FE000FF80
FF801FC000FF80
FF801FC000FF80
FF803FC000FF80
FFC03F8001FF00
7FC03F8001FF00
7FC03F8001FF00
7FC07F0001FF00
7FC07F0003FF00
7FE07F0003FE00
3FE0FF0003FE00
3FE0FE0007FC00
3FF0FE0007FC00
1FF1FE000FFC00
1FF9FC001FF800
1FFDFC001FF800
0FFFFC003FF000
07FFF8007FF000
07FFF801FFE000
03FFF807FFC000
01FFFFFFFF8000
01FFFFFFFF0000
007FFFFFFE0000
003FFFFFFC0000
001FFFFFF00000
000FFFFFE00000
000FFFFF000000
001FDFF0000000
001FC000000000
001FC000000000
003F8000000000
003F8000000000
003F8000000000
007F8000000000
007F0000000000
007F0000000000
007F0000000000
ENDCHAR
STARTCHAR 00D9
ENCODING 217
SWIDTH 550 0
DWIDTH 55 0
BBX 45 82 5 -1
BITMAP
03FFC0000000
01FFE0000000
00FFF0000000
003FF8000000
001FFC000000
000FFE000000
0003FF000000
0001FF800000
0000FFC00000
00003FE00000
000000000000
000000000000
000000000000
000000000000
000000000000
000000000000
000000000000
FF8000000FF8
FF8000000FF8
FF8000000FF8
FF8000000FF8
FF8000000FF8
FF8000000FF8
FF8000000FF8
FF8000000FF8
FF8000000FF8
FF8000000FF8
FF8000000FF8
FF8000000FF8
FF8000000FF8
FF8000000FF8
FF8000000FF8
FF8000000FF8
FF8000000FF8
FF8000000FF8
FF8000000FF8
FF8000000FF8
FF8000000FF8
FF8000000FF8
FF8000000FF8
FF8000000FF8
FF8000000FF8
FF8000000FF8
FF8000000FF8
FF8000000FF8
FF8000000FF8
FF8000000FF8
FF8000000FF8
FF8000000FF8
FF8000000FF8
FF8000000FF8
FF8000000FF8
FF8000000FF8
FF8000000FF8
FF8000000FF8
FF8000000FF8
FF8000000FF8
FF8000000FF8
FF8000000FF8
FF8000000FF8
FF8000000FF8
FF8000000FF8
FF8000000FF8
FF8000000FF0
7F8000001FF0
7FC000001FF0
7FC000001FF0
7FC000001FE0
7FE000003FE0
3FE000007FE0
3FF000007FC0
3FF80000FFC0
1FFC0001FF80
1FFF0007FF80
0FFFF8FFFF00
07FFFFFFFE00
03FFFFFFFC00
01FFFFFFF800
00FFFFFFE000
003FFFFFC000
0007FFFE0000
00007FE00000
ENDCHAR
STARTCHAR 00DA
ENCODING 218
SWIDTH 550 0
DWIDTH 55 0
BBX 45 82 5 -1
BITMAP
0000001FFE00
0000003FFC00
0000007FF800
000000FFE000
000001FFC000
000003FF8000
000007FE0000
00000FFC0000
00001FF80000
00003FE00000
000000000000
000000000000
000000000000
000000000000
000000000000
000000000000
000000000000
FF8000000FF8
FF8000000FF8
FF8000000FF8
FF8000000FF8
FF8000000FF8
FF8000000FF8
FF8000000FF8
FF8000000FF8
FF8000000FF8
FF8000000FF8
FF8000000FF8
FF8000000FF8
FF8000000FF8
FF8000000FF8
FF8000000FF8
FF8000000FF8
FF8000000FF8
FF8000000FF8
FF8000000FF8
FF8000000FF8
FF8000000FF8
FF8000000FF8
FF8000000FF8
FF8000000FF8
FF8000000FF8
FF8000000FF8
FF8000000FF8
FF8000000FF8
FF8000000FF8
FF8000000FF8
FF8000000FF8
FF8000000FF8
FF8000000FF8
FF8000000FF8
FF8000000FF8
FF8000000FF8
FF8000000FF8
FF8000000FF8
FF8000000FF8
FF8000000FF8
FF8000000FF8
FF8000000FF8
FF8000000FF8
FF8000000FF8
FF8000000FF8
FF8000000FF8
FF8000000FF0
7F8000001FF0
7FC000001FF0
7FC000001FF0
7FC000001FE0
7FE000003FE0
3FE000007FE0
3FF000007FC0
3FF80000FFC0
1FFC0001FF80
1FFF0007FF80
0FFFF8FFFF00
07FFFFFFFE00
03FFFFFFFC00
01FFFFFFF800
00FFFFFFE000
003FFFFFC000
0007FFFE0000
00007FE00000
ENDCHAR
STARTCHAR 00DB
ENCODING 219
SWIDTH 550 0
DWIDTH 55 0
BBX 45 82 5 -1
BITMAP
00003FE00000
00007FF00000
0000FFF80000
0001FFFC0000
0007FFFF0000
000FFDFF8000
001FF8FFC000
003FF07FE000
007FC03FF000
00FF800FF800
000000000000
000000000000
000000000000
000000000000
000000000000
000000000000
000000000000
FF8000000FF8
FF8000000FF8
FF8000000FF8
FF8000000FF8
FF8000000FF8
FF8000000FF8
FF8000000FF8
FF8000000FF8
FF8000000FF8
FF8000000FF8
FF8000000FF8
FF8000000FF8
FF8000000FF8
FF8000000FF8
FF8000000FF8
FF8000000FF8
FF8000000FF8
FF8000000FF8
FF8000000FF8
FF8000000FF8
FF8000000FF8
FF8000000FF8
FF8000000FF8
FF8000000FF8
FF8000000FF8
FF8000000FF8
FF8000000FF8
FF8000000FF8
FF8000000FF8
FF8000000FF8
FF8000000FF8
FF8000000FF8
FF8000000FF8
FF8000000FF8
FF8000000FF8
FF8000000FF8
FF8000000FF8
FF8000000FF8
FF8000000FF8
FF8000000FF8
FF8000000FF8
FF8000000FF8
FF8000000FF8
FF8000000FF8
FF8000000FF8
FF8000000FF8
FF8000000FF0
7F8000001FF0
7FC000001FF0
7FC000001FF0
7FC000001FE0
7FE000003FE0
3FE000007FE0
3FF000007FC0
3FF80000FFC0
1FFC0001FF80
1FFF0007FF80
0FFFF8FFFF00
07FFFFFFFE00
03FFFFFFFC00
01FFFFFFF800
00FFFFFFE000
003FFFFFC000
0007FFFE0000
00007FE00000
ENDCHAR
STARTCHAR 00DC
ENCODING 220
SWIDTH 550 0
DWIDTH 55 0
BBX 45 82 5 -1
BITMAP
003C0001E000
00FE0003F800
01FF0007FC00
01FF800FFC00
01FF800FFC00
01FF800FFC00
01FF800FFC00
01FF000FFC00
00FF0007F800
007E0003F000
000000000000
000000000000
000000000000
000000000000
000000000000
000000000000
000000000000
FF8000000FF8
FF8000000FF8
FF8000000FF8
FF8000000FF8
FF8000000FF8
FF8000000FF8
FF8000000FF8
FF8000000FF8
FF8000000FF8
FF8000000FF8
FF8000000FF8
FF8000000FF8
FF8000000FF8
FF8000000FF8
FF8000000FF8
FF8000000FF8
FF8000000FF8
FF8000000FF8
FF8000000FF8
FF8000000FF8
FF8000000FF8
FF8000000FF8
FF8000000FF8
FF8000000FF8
FF8000000FF8
FF8000000FF8
FF8000000FF8
FF8000000FF8
FF8000000FF8
FF8000000FF8
FF8000000FF8
FF8000000FF8
FF8000000FF8
FF8000000FF8
FF8000000FF8
FF8000000FF8
FF8000000FF8
FF8000000FF8
FF8000000FF8
FF8000000FF8
FF8000000FF8
FF8000000FF8
FF8000000FF8
FF8000000FF8
FF8000000FF8
FF8000000FF8
FF8000000FF0
7F8000001FF0
7FC000001FF0
7FC000001FF0
7FC000001FE0
7FE000003FE0
3FE000007FE0
3FF000007FC0
3FF80000FFC0
1FFC0001FF80
1FFF0007FF80
0FFFF8FFFF00
07FFFFFFFE00
03FFFFFFFC00
01FFFFFFF800
00FFFFFFE000
003FFFFFC000
0007FFFE0000
00007FE00000
ENDCHAR
STARTCHAR 00DD
ENCODING 221
SWIDTH 550 0
DWIDTH 55 0
BBX 55 81 0 0
BITMAP
00000000FFF000
00000001FFE000
00000003FFC000
00000007FF0000
0000000FFE0000
0000001FFC0000
0000003FF00000
0000007FE00000
000000FFC00000
000001FF000000
00000000000000
00000000000000
00000000000000
00000000000000
00000000000000
00000000000000
00000000000000
FFE000000007FE
7FE00000000FFC
7FF00000000FFC
3FF00000001FF8
3FF80000001FF8
1FF80000003FF0
0FFC0000003FE0
0FFC0000007FE0
07FE0000007FC0
07FF000000FFC0
03FF000000FF80
03FF800001FF80
01FF800003FF00
00FFC00003FF00
00FFC00007FE00
007FE00007FC00
007FE0000FFC00
003FF0000FF800
003FF0001FF800
001FF8001FF000
001FFC003FF000
000FFC003FE000
0007FE007FC000
0007FE007FC000
0003FF00FF8000
0003FF00FF8000
0001FF81FF0000
0001FF81FF0000
0000FFC3FE0000
00007FC3FC0000
00007FE7FC0000
00003FE7F80000
00003FFFF80000
00001FFFF00000
00001FFFF00000
00000FFFE00000
000007FFE00000
000007FFC00000
000003FF800000
000003FF800000
000001FF000000
000001FF000000
000001FF000000
000001FF000000
000001FF000000
000001FF000000
000001FF000000
000001FF000000
000001FF000000
000001FF000000
000001FF000000
000001FF000000
000001FF000000
000001FF000000
000001FF000000
000001FF000000
000001FF000000
000001FF000000
000001FF000000
000001FF000000
000001FF000000
000001FF000000
000001FF000000
000001FF000000
ENDCHAR
STARTCHAR 00DE
ENCODING 222
SWIDTH 550 0
DWIDTH 55 0
BBX 42 64 8 0
BITMAP
FF0000000000
FF0000000000
FF0000000000
FF0000000000
FF0000000000
FF0000000000
FF0000000000
FF0000000000
FF0000000000
FF0000000000
FFFFFF800000
FFFFFFF80000
FFFFFFFE0000
FFFFFFFF8000
FFFFFFFFE000
FFFFFFFFF000
FFFFFFFFF800
FF0001FFFC00
FF00003FFC00
FF00001FFE00
FF000007FF00
FF000003FF00
FF000003FF00
FF000001FF80
FF000001FF80
FF000000FF80
FF000000FF80
FF000000FFC0
FF000000FFC0
FF0000007FC0
FF0000007FC0
FF000000FFC0
FF000000FF80
FF000000FF80
FF000000FF80
FF000000FF80
FF000001FF80
FF000001FF00
FF000003FF00
FF000007FE00
FF00000FFE00
FF00001FFC00
FF00007FF800
FF0003FFF800
FFFFFFFFF000
FFFFFFFFE000
FFFFFFFF8000
FFFFFFFF0000
FFFFFFFC0000
FFFFFFF00000
FFFFFF800000
FFFFC0000000
FF0000000000
FF0000000000
FF0000000000
FF0000000000
FF0000000000
FF0000000000
FF0000000000
FF0000000000
FF0000000000
FF0000000000
FF0000000000
FF0000000000
ENDCHAR
STARTCHAR 00DF
ENCODING 223
SWIDTH 550 0
DWIDTH 55 0
BBX 43 71 7 -1
BITMAP
00000C000000
0007FFF80000
003FFFFE0000
007FFFFF8000
01FFFFFFC000
03FFFFFFE000
07FFFFFFF000
0FFFC3FFF800
1FFC003FF800
1FF8000FFC00
3FF00007FC00
3FE00007FC00
7FC00003FC00
7FC00003FC00
7FC00003FC00
7F800003FC00
FF800003FC00
FF800007FC00
FF800007FC00
FF80000FF800
FF80001FF800
FF80003FF000
FF8000FFE000
FF8001FFC000
FF8003FF8000
FF8007FF0000
FF800FFE0000
FF801FF80000
FF803FF00000
FF803FE00000
FF807FC00000
FF807FC00000
FF807FC00000
FF807FC00000
FF807FC00000
FF807FC00000
FF807FE00000
FF803FE00000
FF803FF00000
FF803FFC0000
FF801FFE0000
FF800FFF0000
FF800FFFC000
FF8007FFE000
FF8001FFF000
FF8000FFF800
FF80007FFC00
FF80003FFE00
FF80000FFF00
FF800007FF80
FF800003FF80
FF800001FFC0
FF800000FFC0
FF8000007FE0
FF8000003FE0
FF8000003FE0
FF8000003FE0
FF8000003FE0
FF8000003FE0
FF8000003FE0
FF8000007FC0
FF800000FFC0
FF800003FFC0
FF807FFFFF80
FF807FFFFF00
FF807FFFFE00
FF807FFFFC00
FF807FFFF800
FF807FFFE000
FF807FFF8000
000001C00000
ENDCHAR
STARTCHAR 00E0
ENCODING 224
SWIDTH 550 0
DWIDTH 55 0
BBX 41 70 6 -1
BITMAP
1FFE00000000
0FFF00000000
03FF80000000
01FFC0000000
00FFE0000000
003FF0000000
001FF8000000
000FFC000000
0003FE000000
0001FF000000
0000FF800000
00003FC00000
000000000000
000000000000
000000000000
000000000000
000000000000
000000000000
000000000000
0000FFE00000
003FFFFE0000
01FFFFFF8000
07FFFFFFE000
07FFFFFFF000
07FFFFFFF800
07FFFFFFFC00
07FFC0FFFE00
07F0001FFE00
07000007FF00
04000003FF00
00000001FF00
00000001FF80
00000000FF80
00000000FF80
00000000FF80
00000000FF80
00000000FF80
00000000FF80
00000000FF80
00000000FF80
00007FFFFF80
000FFFFFFF80
007FFFFFFF80
01FFFFFFFF80
03FFFFFFFF80
07FFFFFFFF80
0FFFFFFFFF80
1FFF0000FF80
3FF80000FF80
3FF00000FF80
7FE00000FF80
7FC00000FF80
7FC00000FF80
7FC00000FF80
7FC00000FF80
FF800000FF80
FFC00001FF80
7FC00003FF80
7FC00007FF80
7FC0001FFF80
7FE0007FFF80
7FF001FFFF80
3FFE0FFFFF80
3FFFFFFF7F80
1FFFFFFE7F80
0FFFFFFC7F80
07FFFFF07F80
03FFFFC07F80
00FFFF007F80
000FF0000000
ENDCHAR
STARTCHAR 00E1
ENCODING 225
SWIDTH 550 0
DWIDTH 55 0
BBX 41 70 6 -1
BITMAP
0000000FFF00
0000001FFE00
0000003FF800
0000007FF000
000000FFE000
000001FF8000
000003FF0000
000007FE0000
00000FF80000
00001FF00000
00003FE00000
00007F800000
000000000000
000000000000
000000000000
000000000000
000000000000
000000000000
000000000000
0000FFE00000
003FFFFE0000
01FFFFFF8000
07FFFFFFE000
07FFFFFFF000
07FFFFFFF800
07FFFFFFFC00
07FFC0FFFE00
07F0001FFE00
07000007FF00
04000003FF00
00000001FF00
00000001FF80
00000000FF80
00000000FF80
00000000FF80
00000000FF80
00000000FF80
00000000FF80
00000000FF80
00000000FF80
00007FFFFF80
000FFFFFFF80
007FFFFFFF80
01FFFFFFFF80
03FFFFFFFF80
07FFFFFFFF80
0FFFFFFFFF80
1FFF0000FF80
3FF80000FF80
3FF00000FF80
7FE00000FF80
7FC00000FF80
7FC00000FF80
7FC00000FF80
7FC00000FF80
FF800000FF80
FFC00001FF80
7FC00003FF80
7FC00007FF80
7FC0001FFF80
7FE0007FFF80
7FF001FFFF80
3FFE0FFFFF80
3FFFFFFF7F80
1FFFFFFE7F80
0FFFFFFC7F80
07FFFFF07F80
03FFFFC07F80
00FFFF007F80
000FF0000000
ENDCHAR
STARTCHAR 00E2
ENCODING 226
SWIDTH 550 0
DWIDTH 55 0
BBX 41 70 6 -1
BITMAP
00003FC00000
00007FE00000
0001FFF00000
0003FFF80000
0007FFFC0000
000FFFFE0000
001FFBFF0000
003FF1FF8000
007FC0FFC000
00FF803FE000
01FF001FF000
03FE000FF800
000000000000
000000000000
000000000000
000000000000
000000000000
000000000000
000000000000
0000FFE00000
003FFFFE0000
01FFFFFF8000
07FFFFFFE000
07FFFFFFF000
07FFFFFFF800
07FFFFFFFC00
07FFC0FFFE00
07F0001FFE00
07000007FF00
04000003FF00
00000001FF00
00000001FF80
00000000FF80
00000000FF80
00000000FF80
00000000FF80
00000000FF80
00000000FF80
00000000FF80
00000000FF80
00007FFFFF80
000FFFFFFF80
007FFFFFFF80
01FFFFFFFF80
03FFFFFFFF80
07FFFFFFFF80
0FFFFFFFFF80
1FFF0000FF80
3FF80000FF80
3FF00000FF80
7FE00000FF80
7FC00000FF80
7FC00000FF80
7FC00000FF80
7FC00000FF80
FF800000FF80
FFC00001FF80
7FC00003FF80
7FC00007FF80
7FC0001FFF80
7FE0007FFF80
7FF001FFFF80
3FFE0FFFFF80
3FFFFFFF7F80
1FFFFFFE7F80
0FFFFFFC7F80
07FFFFF07F80
03FFFFC07F80
00FFFF007F80
000FF0000000
ENDCHAR
STARTCHAR 00E3
ENCODING 227
SWIDTH 550 0
DWIDTH 55 0
BBX 41 70 6 -1
BITMAP
001FC0000000
007FF8003000
00FFFE003800
01FFFF007C00
03FFFFC1FE00
07FFFFFFFE00
0FFFFFFFFC00
0FE03FFFF800
07C01FFFF000
038007FFE000
018001FFC000
0000007C0000
000000000000
000000000000
000000000000
000000000000
000000000000
000000000000
000000000000
0000FFE00000
003FFFFE0000
01FFFFFF8000
07FFFFFFE000
07FFFFFFF000
07FFFFFFF800
07FFFFFFFC00
07FFC0FFFE00
07F0001FFE00
07000007FF00
04000003FF00
00000001FF00
00000001FF80
00000000FF80
00000000FF80
00000000FF80
00000000FF80
00000000FF80
00000000FF80
00000000FF80
00000000FF80
00007FFFFF80
000FFFFFFF80
007FFFFFFF80
01FFFFFFFF80
03FFFFFFFF80
07FFFFFFFF80
0FFFFFFFFF80
1FFF0000FF80
3FF80000FF80
3FF00000FF80
7FE00000FF80
7FC00000FF80
7FC00000FF80
7FC00000FF80
7FC00000FF80
FF800000FF80
FFC00001FF80
7FC00003FF80
7FC00007FF80
7FC0001FFF80
7FE0007FFF80
7FF001FFFF80
3FFE0FFFFF80
3FFFFFFF7F80
1FFFFFFE7F80
0FFFFFFC7F80
07FFFFF07F80
03FFFFC07F80
00FFFF007F80
000FF0000000
ENDCHAR
STARTCHAR 00E4
ENCODING 228
SWIDTH 550 0
DWIDTH 55 0
BBX 41 70 6 -1
BITMAP
002000010000
00FC0007E000
01FE000FF000
03FF001FF800
03FF001FF800
03FF001FF800
03FF001FF800
03FF001FF800
03FF001FF800
01FE000FF000
00FC0007E000
000000000000
000000000000
000000000000
000000000000
000000000000
000000000000
000000000000
000000000000
0000FFE00000
003FFFFE0000
01FFFFFF8000
07FFFFFFE000
07FFFFFFF000
07FFFFFFF800
07FFFFFFFC00
07FFC0FFFE00
07F0001FFE00
07000007FF00
04000003FF00
00000001FF00
00000001FF80
00000000FF80
00000000FF80
00000000FF80
00000000FF80
00000000FF80
00000000FF80
00000000FF80
00000000FF80
00007FFFFF80
000FFFFFFF80
007FFFFFFF80
01FFFFFFFF80
03FFFFFFFF80
07FFFFFFFF80
0FFFFFFFFF80
1FFF0000FF80
3FF80000FF80
3FF00000FF80
7FE00000FF80
7FC00000FF80
7FC00000FF80
7FC00000FF80
7FC00000FF80
FF800000FF80
FFC00001FF80
7FC00003FF80
7FC00007FF80
7FC0001FFF80
7FE0007FFF80
7FF001FFFF80
3FFE0FFFFF80
3FFFFFFF7F80
1FFFFFFE7F80
0FFFFFFC7F80
07FFFFF07F80
03FFFFC07F80
00FFFF007F80
000FF0000000
ENDCHAR
STARTCHAR 00E5
ENCODING 229
SWIDTH 550 0
DWIDTH 55 0
BBX 41 74 6 -1
BITMAP
00007FC00000
0001FFE00000
0003FFF80000
0007FFFC0000
0007FFFC0000
000FE0FE0000
000FC07E0000
001F803F0000
001F803F0000
001F803F0000
001F803F0000
001F803F0000
001F803F0000
000FC07E0000
000FF3FE0000
0007FFFC0000
0003FFF80000
0001FFF00000
0000FFE00000
00001F000000
000000000000
000000000000
000000000000
0000FFE00000
003FFFFE0000
01FFFFFF8000
07FFFFFFE000
07FFFFFFF000
07FFFFFFF800
07FFFFFFFC00
07FFC0FFFE00
07F0001FFE00
07000007FF00
04000003FF00
00000001FF00
00000001FF80
00000000FF80
00000000FF80
00000000FF80
00000000FF80
00000000FF80
00000000FF80
00000000FF80
00000000FF80
00007FFFFF80
000FFFFFFF80
007FFFFFFF80
01FFFFFFFF80
03FFFFFFFF80
07FFFFFFFF80
0FFFFFFFFF80
1FFF0000FF80
3FF80000FF80
3FF00000FF80
7FE00000FF80
7FC00000FF80
7FC00000FF80
7FC00000FF80
7FC00000FF80
FF800000FF80
FFC00001FF80
7FC00003FF80
7FC00007FF80
7FC0001FFF80
7FE0007FFF80
7FF001FFFF80
3FFE0FFFFF80
3FFFFFFF7F80
1FFFFFFE7F80
0FFFFFFC7F80
07FFFFF07F80
03FFFFC07F80
00FFFF007F80
000FF0000000
ENDCHAR
STARTCHAR 00E6
ENCODING 230
SWIDTH 550 0
DWIDTH 55 0
BBX 51 51 2 -1
BITMAP
001FE0003F8000
01FFFC01FFE000
0FFFFF07FFF800
3FFFFF8FFFFC00
3FFFFF9FFFFE00
3FFFFFDFFFFE00
3FFFFFFFFFFF00
3FC07FFFC1FF80
3E001FFF80FF80
30000FFF007F80
00000FFE003FC0
000007FE003FC0
000007FC003FC0
000007FC003FC0
000003FC001FE0
000003FC001FE0
000003FC001FE0
000003F8001FE0
000003F8001FE0
000003F8001FE0
000003F8001FE0
0003FFFFFFFFE0
00FFFFFFFFFFE0
03FFFFFFFFFFE0
0FFFFFFFFFFFE0
1FFFFFFFFFFFE0
3FFFFFFFFFFFE0
3FFFFFFFFFFFE0
7FF003F8000000
7FC003F8000000
FF8003F8000000
FF8003F8000000
FF0003F8000000
FF0003FC000000
FF0003FC000000
FF0003FC000000
FF0003FC000000
FF0007FC000000
FF000FFE000000
FF001FFE000000
FF001FFF000000
FF003FFF800000
FF80FFFFC00080
FFE3FE7FF01F80
7FFFFE7FFFFF80
7FFFFC3FFFFF80
3FFFF81FFFFF80
1FFFF00FFFFF80
0FFFE007FFFF80
07FF8001FFFE00
00FC00003FC000
ENDCHAR
STARTCHAR 00E7
ENCODING 231
SWIDTH 550 0
DWIDTH 55 0
BBX 38 64 8 -14
BITMAP
000003F800
0000FFFFE0
0003FFFFFC
000FFFFFFC
003FFFFFFC
007FFFFFFC
01FFFFFFFC
03FFFFFFFC
03FFE000FC
07FF80001C
0FFE000000
1FFC000000
1FF8000000
3FF0000000
3FF0000000
7FE0000000
7FE0000000
7FC0000000
7FC0000000
FF80000000
FF80000000
FF80000000
FF80000000
FF80000000
FF80000000
FF80000000
FF80000000
FF80000000
FF80000000
FF80000000
FF80000000
FF80000000
FF80000000
FFC0000000
7FC0000000
7FC0000000
7FE0000000
3FF0000000
3FF0000000
1FF8000000
1FFE000004
0FFF00001C
0FFFE000FC
07FFFFFFFC
03FFFFFFFC
01FFFFFFFC
007FFFFFFC
003FFFFFFC
000FFFFFF8
0001FFFFC0
00007FF000
00007F8000
0000FF8000
0000FF0000
0000FF0000
0000FF0000
0001FE0000
0001FE0000
0001FE0000
0001FE0000
0003FC0000
0003FC0000
0003FC0000
0003F80000
ENDCHAR
STARTCHAR 00E8
ENCODING 232
SWIDTH 550 0
DWIDTH 55 0
BBX 43 70 6 -1
BITMAP
1FFE00000000
0FFF00000000
03FF80000000
01FFC0000000
00FFE0000000
003FF0000000
001FF8000000
000FFC000000
0003FE000000
0001FF000000
0000FF800000
00003FC00000
000000000000
000000000000
000000000000
000000000000
000000000000
000000000000
000000000000
00003FE00000
0003FFFC0000
000FFFFF8000
003FFFFFC000
007FFFFFF000
00FFFFFFF800
01FFFFFFFC00
03FFC03FFE00
07FF000FFE00
0FFC0003FF00
0FF80001FF80
1FF00000FF80
3FE00000FF80
3FE000007FC0
3FC000007FC0
7FC000003FC0
7FC000003FE0
7F8000003FE0
FF8000003FE0
FF8000003FE0
FF8000003FE0
FF8000003FE0
FFFFFFFFFFE0
FFFFFFFFFFE0
FFFFFFFFFFE0
FFFFFFFFFFE0
FFFFFFFFFFE0
FFFFFFFFFFE0
FF8000000000
FF8000000000
FF8000000000
FF8000000000
FF8000000000
FF8000000000
7F8000000000
7FC000000000
7FC000000000
7FE000000000
3FF000000000
3FF800000000
1FFC00000000
1FFE00000000
0FFF80000780
07FFF803FF80
03FFFFFFFF80
01FFFFFFFF80
00FFFFFFFF80
007FFFFFFF80
001FFFFFFF80
0003FFFFF800
00003FFC0000
ENDCHAR
STARTCHAR 00E9
ENCODING 233
SWIDTH 550 0
DWIDTH 55 0
BBX 43 70 6 -1
BITMAP
0000000FFF00
0000001FFE00
0000003FF800
0000007FF000
000000FFE000
000001FF8000
000003FF0000
000007FE0000
00000FF80000
00001FF00000
00003FE00000
00007F800000
000000000000
000000000000
000000000000
000000000000
000000000000
000000000000
000000000000
00003FE00000
0003FFFC0000
000FFFFF8000
003FFFFFC000
007FFFFFF000
00FFFFFFF800
01FFFFFFFC00
03FFC03FFE00
07FF000FFE00
0FFC0003FF00
0FF80001FF80
1FF00000FF80
3FE00000FF80
3FE000007FC0
3FC000007FC0
7FC000003FC0
7FC000003FE0
7F8000003FE0
FF8000003FE0
FF8000003FE0
FF8000003FE0
FF8000003FE0
FFFFFFFFFFE0
FFFFFFFFFFE0
FFFFFFFFFFE0
FFFFFFFFFFE0
FFFFFFFFFFE0
FFFFFFFFFFE0
FF8000000000
FF8000000000
FF8000000000
FF8000000000
FF8000000000
FF8000000000
7F8000000000
7FC000000000
7FC000000000
7FE000000000
3FF000000000
3FF800000000
1FFC00000000
1FFE00000000
0FFF80000780
07FFF803FF80
03FFFFFFFF80
01FFFFFFFF80
00FFFFFFFF80
007FFFFFFF80
001FFFFFFF80
0003FFFFF800
00003FFC0000
ENDCHAR
STARTCHAR 00EA
ENCODING 234
SWIDTH 550 0
DWIDTH 55 0
BBX 43 70 6 -1
BITMAP
00003FC00000
00007FE00000
0001FFF00000
0003FFF80000
0007FFFC0000
000FFFFE0000
001FFBFF0000
003FF1FF8000
007FC0FFC000
00FF803FE000
01FF001FF000
03FE000FF800
000000000000
000000000000
000000000000
000000000000
000000000000
000000000000
000000000000
00003FE00000
0003FFFC0000
000FFFFF8000
003FFFFFC000
007FFFFFF000
00FFFFFFF800
01FFFFFFFC00
03FFC03FFE00
07FF000FFE00
0FFC0003FF00
0FF80001FF80
1FF00000FF80
3FE00000FF80
3FE000007FC0
3FC000007FC0
7FC000003FC0
7FC000003FE0
7F8000003FE0
FF8000003FE0
FF8000003FE0
FF8000003FE0
FF8000003FE0
FFFFFFFFFFE0
FFFFFFFFFFE0
FFFFFFFFFFE0
FFFFFFFFFFE0
FFFFFFFFFFE0
FFFFFFFFFFE0
FF8000000000
FF8000000000
FF8000000000
FF8000000000
FF8000000000
FF8000000000
7F8000000000
7FC000000000
7FC000000000
7FE000000000
3FF000000000
3FF800000000
1FFC00000000
1FFE00000000
0FFF80000780
07FFF803FF80
03FFFFFFFF80
01FFFFFFFF80
00FFFFFFFF80
007FFFFFFF80
001FFFFFFF80
0003FFFFF800
00003FFC0000
ENDCHAR
STARTCHAR 00EB
ENCODING 235
SWIDTH 550 0
DWIDTH 55 0
BBX 43 70 6 -1
BITMAP
002000010000
00FC0007E000
01FE000FF000
03FF001FF800
03FF001FF800
03FF001FF800
03FF001FF800
03FF001FF800
03FF001FF800
01FE000FF000
00FC0007E000
000000000000
000000000000
000000000000
000000000000
000000000000
000000000000
000000000000
000000000000
00003FE00000
0003FFFC0000
000FFFFF8000
003FFFFFC000
007FFFFFF000
00FFFFFFF800
01FFFFFFFC00
03FFC03FFE00
07FF000FFE00
0FFC0003FF00
0FF80001FF80
1FF00000FF80
3FE00000FF80
3FE000007FC0
3FC000007FC0
7FC000003FC0
7FC000003FE0
7F8000003FE0
FF8000003FE0
FF8000003FE0
FF8000003FE0
FF8000003FE0
FFFFFFFFFFE0
FFFFFFFFFFE0
FFFFFFFFFFE0
FFFFFFFFFFE0
FFFFFFFFFFE0
FFFFFFFFFFE0
FF8000000000
FF8000000000
FF8000000000
FF8000000000
FF8000000000
FF8000000000
7F8000000000
7FC000000000
7FC000000000
7FE000000000
3FF000000000
3FF800000000
1FFC00000000
1FFE00000000
0FFF80000780
07FFF803FF80
03FFFFFFFF80
01FFFFFFFF80
00FFFFFFFF80
007FFFFFFF80
001FFFFFFF80
0003FFFFF800
00003FFC0000
ENDCHAR
STARTCHAR 00EC
ENCODING 236
SWIDTH 550 0
DWIDTH 55 0
BBX 40 69 8 0
BITMAP
7FF8000000
3FFC000000
0FFE000000
07FF000000
03FF800000
00FFC00000
007FE00000
003FF00000
000FF80000
0007FC0000
0003FE0000
0000FF0000
0000000000
0000000000
0000000000
0000000000
0000000000
0000000000
0000000000
0000000000
3FFFFF8000
3FFFFF8000
3FFFFF8000
3FFFFF8000
3FFFFF8000
3FFFFF8000
3FFFFF8000
00007F8000
00007F8000
00007F8000
00007F8000
00007F8000
00007F8000
00007F8000
00007F8000
00007F8000
00007F8000
00007F8000
00007F8000
00007F8000
00007F8000
00007F8000
00007F8000
00007F8000
00007F8000
00007F8000
00007F8000
00007F8000
00007F8000
00007F8000
00007F8000
00007F8000
00007F8000
00007F8000
00007F8000
00007F8000
00007F8000
00007F8000
00007F8000
00007F8000
00007F8000
00007F8000
FFFFFFFFFF
FFFFFFFFFF
FFFFFFFFFF
FFFFFFFFFF
FFFFFFFFFF
FFFFFFFFFF
FFFFFFFFFF
ENDCHAR
STARTCHAR 00ED
ENCODING 237
SWIDTH 550 0
DWIDTH 55 0
BBX 40 69 8 0
BITMAP
0000003FFC
0000007FF8
000000FFE0
000001FFC0
000003FF80
000007FE00
00000FFC00
00001FF800
00003FE000
00007FC000
0000FF8000
0001FE0000
0000000000
0000000000
0000000000
0000000000
0000000000
0000000000
0000000000
0000000000
3FFFFF8000
3FFFFF8000
3FFFFF8000
3FFFFF8000
3FFFFF8000
3FFFFF8000
3FFFFF8000
00007F8000
00007F8000
00007F8000
00007F8000
00007F8000
00007F8000
00007F8000
00007F8000
00007F8000
00007F8000
00007F8000
00007F8000
00007F8000
00007F8000
00007F8000
00007F8000
00007F8000
00007F8000
00007F8000
00007F8000
00007F8000
00007F8000
00007F8000
00007F8000
00007F8000
00007F8000
00007F8000
00007F8000
00007F8000
00007F8000
00007F8000
00007F8000
00007F8000
00007F8000
00007F8000
FFFFFFFFFF
FFFFFFFFFF
FFFFFFFFFF
FFFFFFFFFF
FFFFFFFFFF
FFFFFFFFFF
FFFFFFFFFF
ENDCHAR
STARTCHAR 00EE
ENCODING 238
SWIDTH 550 0
DWIDTH 55 0
BBX 40 69 8 0
BITMAP
0000FF0000
0001FF8000
0007FFC000
000FFFE000
001FFFF000
003FFFF800
007FEFFC00
00FFC7FE00
01FF03FF00
03FE00FF80
07FC007FC0
0FF8003FE0
0000000000
0000000000
0000000000
0000000000
0000000000
0000000000
0000000000
0000000000
3FFFFF8000
3FFFFF8000
3FFFFF8000
3FFFFF8000
3FFFFF8000
3FFFFF8000
3FFFFF8000
00007F8000
00007F8000
00007F8000
00007F8000
00007F8000
00007F8000
00007F8000
00007F8000
00007F8000
00007F8000
00007F8000
00007F8000
00007F8000
00007F8000
00007F8000
00007F8000
00007F8000
00007F8000
00007F8000
00007F8000
00007F8000
00007F8000
00007F8000
00007F8000
00007F8000
00007F8000
00007F8000
00007F8000
00007F8000
00007F8000
00007F8000
00007F8000
00007F8000
00007F8000
00007F8000
FFFFFFFFFF
FFFFFFFFFF
FFFFFFFFFF
FFFFFFFFFF
FFFFFFFFFF
FFFFFFFFFF
FFFFFFFFFF
ENDCHAR
STARTCHAR 00EF
ENCODING 239
SWIDTH 550 0
DWIDTH 55 0
BBX 40 69 8 0
BITMAP
0080000400
03F0001F80
07F8003FC0
0FFC007FE0
0FFC007FE0
0FFC007FE0
0FFC007FE0
0FFC007FE0
0FFC007FE0
07F8003FC0
03F0001F80
0000000000
0000000000
0000000000
0000000000
0000000000
0000000000
0000000000
0000000000
0000000000
3FFFFF8000
3FFFFF8000
3FFFFF8000
3FFFFF8000
3FFFFF8000
3FFFFF8000
3FFFFF8000
00007F8000
00007F8000
00007F8000
00007F8000
00007F8000
00007F8000
00007F8000
00007F8000
00007F8000
00007F8000
00007F8000
00007F8000
00007F8000
00007F8000
00007F8000
00007F8000
00007F8000
00007F8000
00007F8000
00007F8000
00007F8000
00007F8000
00007F8000
00007F8000
00007F8000
00007F8000
00007F8000
00007F8000
00007F8000
00007F8000
00007F8000
00007F8000
00007F8000
00007F8000
00007F8000
FFFFFFFFFF
FFFFFFFFFF
FFFFFFFFFF
FFFFFFFFFF
FFFFFFFFFF
FFFFFFFFFF
FFFFFFFFFF
ENDCHAR
STARTCHAR 00F0
ENCODING 240
SWIDTH 550 0
DWIDTH 55 0
BBX 44 70 5 -1
BITMAP
001FF8000000
001FFC000000
000FFE000600
0007FF007E00
0003FF0FFE00
0001FFFFFE00
0001FFFFFE00
0003FFFFFE00
007FFFFFFE00
01FFFFFFFC00
01FFFFFF8000
01FFFFFC0000
01FFFFFC0000
01FFE7FE0000
01FC07FF0000
01C003FF0000
000001FF8000
000000FFC000
000000FFC000
0000007FE000
0000FFFFF000
0007FFFFF000
001FFFFFF800
003FFFFFF800
007FFFFFFC00
01FFFFFFFC00
03FFFFFFFE00
03FFC003FF00
07FF0001FF00
0FFC0001FF00
0FF80000FF80
1FF00000FF80
1FF000007FC0
3FE000007FC0
3FE000007FC0
7FC000003FE0
7FC000003FE0
7FC000003FE0
7F8000001FE0
FF8000001FF0
FF8000001FF0
FF8000001FF0
FF8000001FF0
FF8000001FF0
FF8000001FF0
FF8000001FF0
FF8000001FF0
FF8000001FF0
FF8000001FF0
FF8000001FF0
FF8000001FF0
FF8000001FE0
7FC000003FE0
7FC000003FE0
7FC000003FE0
7FE000007FC0
3FE000007FC0
3FF00000FFC0
3FF80001FF80
1FFC0001FF80
1FFE0007FF00
0FFF000FFE00
07FFF0FFFE00
03FFFFFFFC00
01FFFFFFF800
00FFFFFFF000
007FFFFFC000
001FFFFF0000
0007FFFC0000
00007FC00000
ENDCHAR
STARTCHAR 00F1
ENCODING 241
SWIDTH 550 0
DWIDTH 55 0
BBX 39 69 8 0
BITMAP
007F000000
01FFE000C0
03FFF800E0
07FFFC01F0
0FFFFF07F8
1FFFFFFFF8
3FFFFFFFF0
3F80FFFFE0
1F007FFFC0
0E001FFF80
060007FF00
000001F000
0000000000
0000000000
0000000000
0000000000
0000000000
0000000000
0000000000
00000FF000
FE007FFE00
FE01FFFF80
FE07FFFFC0
FF0FFFFFE0
FF1FFFFFF0
FF3FFFFFF8
FF7FFDFFF8
FFFFC01FFC
FFFF000FFC
FFFE0007FC
FFFC0007FE
FFF80003FE
FFF00003FE
FFE00003FE
FFC00003FE
FF800001FE
FF000001FE
FF000001FE
FF000001FE
FF000001FE
FF000001FE
FF000001FE
FF000001FE
FF000001FE
FF000001FE
FF000001FE
FF000001FE
FF000001FE
FF000001FE
FF000001FE
FF000001FE
FF000001FE
FF000001FE
FF000001FE
FF000001FE
FF000001FE
FF000001FE
FF000001FE
FF000001FE
FF000001FE
FF000001FE
FF000001FE
FF000001FE
FF000001FE
FF000001FE
FF000001FE
FF000001FE
FF000001FE
FF000001FE
ENDCHAR
STARTCHAR 00F2
ENCODING 242
SWIDTH 550 0
DWIDTH 55 0
BBX 46 70 4 -1
BITMAP
07FF80000000
03FFC0000000
00FFE0000000
007FF0000000
003FF8000000
000FFC000000
0007FE000000
0003FF000000
0000FF800000
00007FC00000
00003FE00000
00000FF00000
000000000000
000000000000
000000000000
000000000000
000000000000
000000000000
000000000000
00000FF80000
0001FFFF8000
0007FFFFE000
001FFFFFF800
003FFFFFFC00
00FFFFFFFE00
01FFFFFFFF00
01FFFC7FFF80
03FFC007FFC0
07FF0001FFE0
0FFE00007FE0
0FFC00003FF0
1FF800003FF0
1FF000001FF8
3FF000000FF8
3FE000000FF8
3FE000000FFC
7FC0000007FC
7FC0000007FC
7FC0000007FC
7FC0000007FC
7F80000003FC
7F80000003FC
7F80000003FC
FF80000003FC
FF80000003FC
FF80000003FC
7F80000003FC
7F80000003FC
7F80000003FC
7FC0000007FC
7FC0000007FC
7FC0000007FC
7FC0000007F8
7FE000000FF8
3FE000000FF8
3FE000001FF8
3FF000001FF0
1FF800003FF0
1FF800007FE0
0FFC0000FFE0
0FFF0001FFC0
07FF8007FF80
03FFF87FFF00
01FFFFFFFF00
01FFFFFFFC00
007FFFFFF800
003FFFFFF000
000FFFFFC000
0003FFFF0000
00003FE00000
ENDCHAR
STARTCHAR 00F3
ENCODING 243
SWIDTH 550 0
DWIDTH 55 0
BBX 46 70 4 -1
BITMAP
00000003FFC0
00000007FF80
0000000FFE00
0000001FFC00
0000003FF800
0000007FE000
000000FFC000
000001FF8000
000003FE0000
000007FC0000
00000FF80000
00001FE00000
000000000000
000000000000
000000000000
000000000000
000000000000
000000000000
000000000000
00000FF80000
0001FFFF8000
0007FFFFE000
001FFFFFF800
003FFFFFFC00
00FFFFFFFE00
01FFFFFFFF00
01FFFC7FFF80
03FFC007FFC0
07FF0001FFE0
0FFE00007FE0
0FFC00003FF0
1FF800003FF0
1FF000001FF8
3FF000000FF8
3FE000000FF8
3FE000000FFC
7FC0000007FC
7FC0000007FC
7FC0000007FC
7FC0000007FC
7F80000003FC
7F80000003FC
7F80000003FC
FF80000003FC
FF80000003FC
FF80000003FC
7F80000003FC
7F80000003FC
7F80000003FC
7FC0000007FC
7FC0000007FC
7FC0000007FC
7FC0000007F8
7FE000000FF8
3FE000000FF8
3FE000001FF8
3FF000001FF0
1FF800003FF0
1FF800007FE0
0FFC0000FFE0
0FFF0001FFC0
07FF8007FF80
03FFF87FFF00
01FFFFFFFF00
01FFFFFFFC00
007FFFFFF800
003FFFFFF000
000FFFFFC000
0003FFFF0000
00003FE00000
ENDCHAR
STARTCHAR 00F4
ENCODING 244
SWIDTH 550 0
DWIDTH 55 0
BBX 46 70 4 -1
BITMAP
00000FF00000
00001FF80000
00007FFC0000
0000FFFE0000
0001FFFF0000
0003FFFF8000
0007FEFFC000
000FFC7FE000
001FF03FF000
003FE00FF800
007FC007FC00
00FF8003FE00
000000000000
000000000000
000000000000
000000000000
000000000000
000000000000
000000000000
00000FF80000
0001FFFF8000
0007FFFFE000
001FFFFFF800
003FFFFFFC00
00FFFFFFFE00
01FFFFFFFF00
01FFFC7FFF80
03FFC007FFC0
07FF0001FFE0
0FFE00007FE0
0FFC00003FF0
1FF800003FF0
1FF000001FF8
3FF000000FF8
3FE000000FF8
3FE000000FFC
7FC0000007FC
7FC0000007FC
7FC0000007FC
7FC0000007FC
7F80000003FC
7F80000003FC
7F80000003FC
FF80000003FC
FF80000003FC
FF80000003FC
7F80000003FC
7F80000003FC
7F80000003FC
7FC0000007FC
7FC0000007FC
7FC0000007FC
7FC0000007F8
7FE000000FF8
3FE000000FF8
3FE000001FF8
3FF000001FF0
1FF800003FF0
1FF800007FE0
0FFC0000FFE0
0FFF0001FFC0
07FF8007FF80
03FFF87FFF00
01FFFFFFFF00
01FFFFFFFC00
007FFFFFF800
003FFFFFF000
000FFFFFC000
0003FFFF0000
00003FE00000
ENDCHAR
STARTCHAR 00F5
ENCODING 245
SWIDTH 550 0
DWIDTH 55 0
BBX 46 70 4 -1
BITMAP
0007F0000000
001FFE000C00
003FFF800E00
007FFFC01F00
00FFFFF07F80
01FFFFFFFF80
03FFFFFFFF00
03F80FFFFE00
01F007FFFC00
00E001FFF800
0060007FF000
0000001F0000
000000000000
000000000000
000000000000
000000000000
000000000000
000000000000
000000000000
00000FF80000
0001FFFF8000
0007FFFFE000
001FFFFFF800
003FFFFFFC00
00FFFFFFFE00
01FFFFFFFF00
01FFFC7FFF80
03FFC007FFC0
07FF0001FFE0
0FFE00007FE0
0FFC00003FF0
1FF800003FF0
1FF000001FF8
3FF000000FF8
3FE000000FF8
3FE000000FFC
7FC0000007FC
7FC0000007FC
7FC0000007FC
7FC0000007FC
7F80000003FC
7F80000003FC
7F80000003FC
FF80000003FC
FF80000003FC
FF80000003FC
7F80000003FC
7F80000003FC
7F80000003FC
7FC0000007FC
7FC0000007FC
7FC0000007FC
7FC0000007F8
7FE000000FF8
3FE000000FF8
3FE000001FF8
3FF000001FF0
1FF800003FF0
1FF800007FE0
0FFC0000FFE0
0FFF0001FFC0
07FF8007FF80
03FFF87FFF00
01FFFFFFFF00
01FFFFFFFC00
007FFFFFF800
003FFFFFF000
000FFFFFC000
0003FFFF0000
00003FE00000
ENDCHAR
STARTCHAR 00F6
ENCODING 246
SWIDTH 550 0
DWIDTH 55 0
BBX 46 70 4 -1
BITMAP
000800004000
003F0001F800
007F8003FC00
00FFC007FE00
00FFC007FE00
00FFC007FE00
00FFC007FE00
00FFC007FE00
00FFC007FE00
007F8003FC00
003F0001F800
000000000000
000000000000
000000000000
000000000000
000000000000
000000000000
000000000000
000000000000
00000FF80000
0001FFFF8000
0007FFFFE000
001FFFFFF800
003FFFFFFC00
00FFFFFFFE00
01FFFFFFFF00
01FFFC7FFF80
03FFC007FFC0
07FF0001FFE0
0FFE00007FE0
0FFC00003FF0
1FF800003FF0
1FF000001FF8
3FF000000FF8
3FE000000FF8
3FE000000FFC
7FC0000007FC
7FC0000007FC
7FC0000007FC
7FC0000007FC
7F80000003FC
7F80000003FC
7F80000003FC
FF80000003FC
FF80000003FC
FF80000003FC
7F80000003FC
7F80000003FC
7F80000003FC
7FC0000007FC
7FC0000007FC
7FC0000007FC
7FC0000007F8
7FE000000FF8
3FE000000FF8
3FE000001FF8
3FF000001FF0
1FF800003FF0
1FF800007FE0
0FFC0000FFE0
0FFF0001FFC0
07FF8007FF80
03FFF87FFF00
01FFFFFFFF00
01FFFFFFFC00
007FFFFFF800
003FFFFFF000
000FFFFFC000
0003FFFF0000
00003FE00000
ENDCHAR
STARTCHAR 00F7
ENCODING 247
SWIDTH 550 0
DWIDTH 55 0
BBX 47 51 4 1
BITMAP
000007C00000
00001FF00000
00003FF00000
00003FF80000
00007FFC0000
00007FFC0000
00007FFC0000
00007FFC0000
00007FF80000
00003FF80000
00003FF00000
00001FE00000
000003800000
000000000000
000000000000
000000000000
000000000000
000000000000
000000000000
000000000000
000000000000
000000000000
FFFFFFFFFFFE
FFFFFFFFFFFE
FFFFFFFFFFFE
FFFFFFFFFFFE
FFFFFFFFFFFE
FFFFFFFFFFFE
FFFFFFFFFFFE
000000000000
000000000000
000000000000
000000000000
000000000000
000000000000
000000000000
000000000000
000000000000
000007C00000
00001FE00000
00003FF00000
00003FF80000
00007FF80000
00007FFC0000
00007FFC0000
00007FFC0000
00007FF80000
00003FF80000
00003FF00000
00001FE00000
000007800000
ENDCHAR
STARTCHAR 00F8
ENCODING 248
SWIDTH 550 0
DWIDTH 55 0
BBX 45 70 5 -10
BITMAP
00000001FC00
00000003FC00
00000003F800
00000003F800
00000007F000
00000007F000
00000007F000
0000000FE000
0000000FE000
0000000FE000
00003FFFC000
0003FFFFC000
000FFFFFC000
003FFFFFF000
00FFFFFFF800
01FFFFFFFC00
03FFFFFFFE00
07FFE07FFF00
0FFF007FFF80
0FFC00FFFFC0
1FF800FEFFC0
1FF000FE7FE0
3FE001FC3FE0
3FE001FC3FF0
7FC001FC1FF0
7FC003F81FF0
7F8003F80FF8
FF8003F80FF8
FF8007F00FF8
FF8007F00FF8
FF0007F007F8
FF000FE007F8
FF000FE007F8
FF000FE007F8
FF001FC007F8
FF001FC007F8
FF001FC007F8
FF003F8007F8
FF003F8007F8
FF003F8007F8
FF007F0007F8
FF007F000FF8
FF807F000FF8
FF80FE000FF8
FF80FE000FF0
7FC0FE001FF0
7FC1FC001FF0
7FE1FC003FE0
3FE1FC003FE0
3FF3F8007FC0
1FFBF800FFC0
1FFFF801FF80
0FFFF007FF00
07FFF03FFF00
03FFFFFFFE00
01FFFFFFFC00
00FFFFFFF800
007FFFFFE000
001FFFFF8000
001FFFFE0000
001FFFE00000
003F80000000
003F80000000
003F80000000
007F00000000
007F00000000
007F00000000
00FE00000000
00FE00000000
00FE00000000
ENDCHAR
STARTCHAR 00F9
ENCODING 249
SWIDTH 550 0
DWIDTH 55 0
BBX 39 70 8 -1
BITMAP
7FF8000000
3FFC000000
0FFE000000
07FF000000
03FF800000
00FFC00000
007FE00000
003FF00000
000FF80000
0007FC0000
0003FE0000
0000FF0000
0000000000
0000000000
0000000000
0000000000
0000000000
0000000000
0000000000
0000000000
FF000001FE
FF000001FE
FF000001FE
FF000001FE
FF000001FE
FF000001FE
FF000001FE
FF000001FE
FF000001FE
FF000001FE
FF000001FE
FF000001FE
FF000001FE
FF000001FE
FF000001FE
FF000001FE
FF000001FE
FF000001FE
FF000001FE
FF000001FE
FF000001FE
FF000001FE
FF000001FE
FF000001FE
FF000001FE
FF000001FE
FF000001FE
FF000001FE
FF000001FE
FF000001FE
FF000001FE
FF000001FE
FF000001FE
FF000003FE
FF000007FE
FF80000FFE
FF80001FFE
FF80003FFE
FFC0007FFE
7FC000FFFE
7FE001FFFE
7FF007FFFE
3FFF3FFDFE
3FFFFFF9FE
1FFFFFF1FE
0FFFFFE1FE
07FFFFC0FE
03FFFF00FE
00FFFC00FE
001FE00000
ENDCHAR
STARTCHAR 00FA
ENCODING 250
SWIDTH 550 0
DWIDTH 55 0
BBX 39 70 8 -1
BITMAP
0000003FFC
0000007FF8
000000FFE0
000001FFC0
000003FF80
000007FE00
00000FFC00
00001FF800
00003FE000
00007FC000
0000FF8000
0001FE0000
0000000000
0000000000
0000000000
0000000000
0000000000
0000000000
0000000000
0000000000
FF000001FE
FF000001FE
FF000001FE
FF000001FE
FF000001FE
FF000001FE
FF000001FE
FF000001FE
FF000001FE
FF000001FE
FF000001FE
FF000001FE
FF000001FE
FF000001FE
FF000001FE
FF000001FE
FF000001FE
FF000001FE
FF000001FE
FF000001FE
FF000001FE
FF000001FE
FF000001FE
FF000001FE
FF000001FE
FF000001FE
FF000001FE
FF000001FE
FF000001FE
FF000001FE
FF000001FE
FF000001FE
FF000001FE
FF000003FE
FF000007FE
FF80000FFE
FF80001FFE
FF80003FFE
FFC0007FFE
7FC000FFFE
7FE001FFFE
7FF007FFFE
3FFF3FFDFE
3FFFFFF9FE
1FFFFFF1FE
0FFFFFE1FE
07FFFFC0FE
03FFFF00FE
00FFFC00FE
001FE00000
ENDCHAR
STARTCHAR 00FB
ENCODING 251
SWIDTH 550 0
DWIDTH 55 0
BBX 39 70 8 -1
BITMAP
0000FF0000
0001FF8000
0007FFC000
000FFFE000
001FFFF000
003FFFF800
007FEFFC00
00FFC7FE00
01FF03FF00
03FE00FF80
07FC007FC0
0FF8003FE0
0000000000
0000000000
0000000000
0000000000
0000000000
0000000000
0000000000
0000000000
FF000001FE
FF000001FE
FF000001FE
FF000001FE
FF000001FE
FF000001FE
FF000001FE
FF000001FE
FF000001FE
FF000001FE
FF000001FE
FF000001FE
FF000001FE
FF000001FE
FF000001FE
FF000001FE
FF000001FE
FF000001FE
FF000001FE
FF000001FE
FF000001FE
FF000001FE
FF000001FE
FF000001FE
FF000001FE
FF000001FE
FF000001FE
FF000001FE
FF000001FE
FF000001FE
FF000001FE
FF000001FE
FF000001FE
FF000003FE
FF000007FE
FF80000FFE
FF80001FFE
FF80003FFE
FFC0007FFE
7FC000FFFE
7FE001FFFE
7FF007FFFE
3FFF3FFDFE
3FFFFFF9FE
1FFFFFF1FE
0FFFFFE1FE
07FFFFC0FE
03FFFF00FE
00FFFC00FE
001FE00000
ENDCHAR
STARTCHAR 00FC
ENCODING 252
SWIDTH 550 0
DWIDTH 55 0
BBX 39 70 8 -1
BITMAP
0080000400
03F0001F80
07F8003FC0
0FFC007FE0
0FFC007FE0
0FFC007FE0
0FFC007FE0
0FFC007FE0
0FFC007FE0
07F8003FC0
03F0001F80
0000000000
0000000000
0000000000
0000000000
0000000000
0000000000
0000000000
0000000000
0000000000
FF000001FE
FF000001FE
FF000001FE
FF000001FE
FF000001FE
FF000001FE
FF000001FE
FF000001FE
FF000001FE
FF000001FE
FF000001FE
FF000001FE
FF000001FE
FF000001FE
FF000001FE
FF000001FE
FF000001FE
FF000001FE
FF000001FE
FF000001FE
FF000001FE
FF000001FE
FF000001FE
FF000001FE
FF000001FE
FF000001FE
FF000001FE
FF000001FE
FF000001FE
FF000001FE
FF000001FE
FF000001FE
FF000001FE
FF000003FE
FF000007FE
FF80000FFE
FF80001FFE
FF80003FFE
FFC0007FFE
7FC000FFFE
7FE001FFFE
7FF007FFFE
3FFF3FFDFE
3FFFFFF9FE
1FFFFFF1FE
0FFFFFE1FE
07FFFFC0FE
03FFFF00FE
00FFFC00FE
001FE00000
ENDCHAR
STARTCHAR 00FD
ENCODING 253
SWIDTH 550 0
DWIDTH 55 0
BBX 48 89 3 -20
BITMAP
00000001FFE0
00000003FFC0
00000007FF00
0000000FFE00
0000001FFC00
0000003FF000
0000007FE000
000000FFC000
000001FF0000
000003FE0000
000007FC0000
00000FF00000
000000000000
000000000000
000000000000
000000000000
000000000000
000000000000
000000000000
000000000000
FFC0000001FF
7FC0000001FF
7FE0000003FE
3FE0000003FE
3FF0000007FE
3FF0000007FC
1FF0000007FC
1FF800000FFC
0FF800000FF8
0FFC00000FF8
0FFC00001FF0
07FC00001FF0
07FE00001FF0
03FE00003FE0
03FE00003FE0
03FF00003FE0
01FF00007FC0
01FF80007FC0
00FF8000FF80
00FF8000FF80
00FFC000FF80
007FC001FF00
007FE001FF00
003FE001FE00
003FE003FE00
003FF003FE00
001FF003FC00
001FF007FC00
000FF807FC00
000FF807F800
000FFC0FF800
0007FC0FF000
0007FC1FF000
0003FE1FF000
0003FE1FE000
0003FE3FE000
0001FF3FE000
0001FF3FC000
0000FF7FC000
0000FFFF8000
0000FFFF8000
00007FFF8000
00007FFF0000
00003FFF0000
00003FFE0000
00003FFE0000
00001FFE0000
00001FFC0000
00000FFC0000
00000FF80000
00001FF80000
00001FF00000
00003FF00000
00007FE00000
00007FE00000
0000FFC00000
0001FFC00000
0001FF800000
0003FF000000
000FFF000000
001FFE000000
80FFFC000000
FFFFF8000000
FFFFF0000000
FFFFE0000000
FFFFC0000000
FFFF00000000
FFFC00000000
FFE000000000
ENDCHAR
STARTCHAR 00FE
ENCODING 254
SWIDTH 550 0
DWIDTH 55 0
BBX 42 89 8 -20
BITMAP
FF0000000000
FF0000000000
FF0000000000
FF0000000000
FF0000000000
FF0000000000
FF0000000000
FF0000000000
FF0000000000
FF0000000000
FF0000000000
FF0000000000
FF0000000000
FF0000000000
FF0000000000
FF0000000000
FF0000000000
FF0000000000
FF0000000000
FF0007F00000
FF007FFE0000
FF01FFFF8000
FF07FFFFC000
FF0FFFFFF000
FF1FFFFFF000
FF3FFFFFF800
FF7FFFFFFC00
FFFFE01FFC00
FFFF800FFE00
FFFE0007FE00
FFFC0003FF00
FFF80001FF00
FFF00001FF00
FFE00000FF80
FFC00000FF80
FF800000FF80
FF800000FF80
FF0000007F80
FF0000007F80
FF0000007FC0
FF0000007FC0
FF0000007FC0
FF0000007FC0
FF0000007FC0
FF0000007FC0
FF0000007FC0
FF0000007FC0
FF0000007FC0
FF0000007F80
FF0000007F80
FF000000FF80
FF000000FF80
FF000000FF80
FF000000FF00
FF000001FF00
FF000001FF00
FF000003FE00
FF000003FE00
FF000007FC00
FF00000FFC00
FF00003FF800
FFE0007FF000
FFFF07FFE000
FFFFFFFFC000
FFFFFFFF8000
FFFFFFFF0000
FFFFFFFC0000
FFFFFFF00000
FFFFFFC00000
FF00E0000000
FF0000000000
FF0000000000
FF0000000000
FF0000000000
FF0000000000
FF0000000000
FF0000000000
FF0000000000
FF0000000000
FF0000000000
FF0000000000
FF0000000000
FF0000000000
FF0000000000
FF0000000000
FF0000000000
FF0000000000
FF0000000000
FF0000000000
ENDCHAR
STARTCHAR 00FF
ENCODING 255
SWIDTH 550 0
DWIDTH 55 0
BBX 48 89 3 -20
BITMAP
000400002000
001F8000FC00
003FC001FE00
007FE003FF00
007FE003FF00
007FE003FF00
007FE003FF00
007FE003FF00
007FE003FF00
003FC001FE00
001F8000FC00
000000000000
000000000000
000000000000
000000000000
000000000000
000000000000
000000000000
000000000000
000000000000
FFC0000001FF
7FC0000001FF
7FE0000003FE
3FE0000003FE
3FF0000007FE
3FF0000007FC
1FF0000007FC
1FF800000FFC
0FF800000FF8
0FFC00000FF8
0FFC00001FF0
07FC00001FF0
07FE00001FF0
03FE00003FE0
03FE00003FE0
03FF00003FE0
01FF00007FC0
01FF80007FC0
00FF8000FF80
00FF8000FF80
00FFC000FF80
007FC001FF00
007FE001FF00
003FE001FE00
003FE003FE00
003FF003FE00
001FF003FC00
001FF007FC00
000FF807FC00
000FF807F800
000FFC0FF800
0007FC0FF000
0007FC1FF000
0003FE1FF000
0003FE1FE000
0003FE3FE000
0001FF3FE000
0001FF3FC000
0000FF7FC000
0000FFFF8000
0000FFFF8000
00007FFF8000
00007FFF0000
00003FFF0000
00003FFE0000
00003FFE0000
00001FFE0000
00001FFC0000
00000FFC0000
00000FF80000
00001FF80000
00001FF00000
00003FF00000
00007FE00000
00007FE00000
0000FFC00000
0001FFC00000
0001FF800000
0003FF000000
000FFF000000
001FFE000000
80FFFC000000
FFFFF8000000
FFFFF0000000
FFFFE0000000
FFFFC0000000
FFFF00000000
FFFC00000000
FFE000000000
ENDCHAR
STARTCHAR 0100
ENCODING 256
SWIDTH 550 0
DWIDTH 55 0
BBX 53 79 1 0
BITMAP
0007FFFFFF0000
0007FFFFFF0000
0007FFFFFF0000
0007FFFFFF0000
0007FFFFFF0000
0007FFFFFF0000
0007FFFFFF0000
00000000000000
00000000000000
00000000000000
00000000000000
00000000000000
00000000000000
00000000000000
00000000000000
000007FF800000
00000FFF800000
00000FFF800000
00000FFFC00000
00001FFFC00000
00001FFFC00000
00001FFFE00000
00003FFFE00000
00003FFFE00000
00003FDFF00000
00007FDFF00000
00007F9FF00000
00007F8FF80000
0000FF8FF80000
0000FF0FF80000
0000FF07FC0000
0001FF07FC0000
0001FE07FC0000
0001FE03FE0000
0003FE03FE0000
0003FC03FE0000
0003FC01FF0000
0007FC01FF0000
0007F801FF0000
0007F801FF8000
000FF800FF8000
000FF800FF8000
000FF000FFC000
001FF0007FC000
001FF0007FC000
001FE0007FE000
003FE0003FE000
003FE0003FE000
003FC0003FF000
007FC0001FF000
007FC0001FF000
007F80001FF000
00FF80000FF800
00FF80000FF800
00FF00000FF800
01FF000007FC00
01FF000007FC00
01FFFFFFFFFC00
03FFFFFFFFFE00
03FFFFFFFFFE00
03FFFFFFFFFE00
07FFFFFFFFFF00
07FFFFFFFFFF00
07FFFFFFFFFF00
0FFFFFFFFFFF80
0FF8000000FF80
0FF8000000FF80
1FF0000000FFC0
1FF00000007FC0
1FF00000007FC0
3FE00000007FE0
3FE00000003FE0
3FE00000003FE0
7FC00000003FF0
7FC00000001FF0
7FC00000001FF0
FF800000001FF8
FF800000000FF8
FF800000000FF8
ENDCHAR
STARTCHAR 0101
ENCODING 257
SWIDTH 550 0
DWIDTH 55 0
BBX 41 67 6 -1
BITMAP
007FFFFFC000
007FFFFFC000
007FFFFFC000
007FFFFFC000
007FFFFFC000
007FFFFFC000
000000000000
000000000000
000000000000
000000000000
000000000000
000000000000
000000000000
000000000000
000000000000
000000000000
0000FFE00000
003FFFFE0000
01FFFFFF8000
07FFFFFFE000
07FFFFFFF000
07FFFFFFF800
07FFFFFFFC00
07FFC0FFFE00
07F0001FFE00
07000007FF00
04000003FF00
00000001FF00
00000001FF80
00000000FF80
00000000FF80
00000000FF80
00000000FF80
00000000FF80
00000000FF80
00000000FF80
00000000FF80
00007FFFFF80
000FFFFFFF80
007FFFFFFF80
01FFFFFFFF80
03FFFFFFFF80
07FFFFFFFF80
0FFFFFFFFF80
1FFF0000FF80
3FF80000FF80
3FF00000FF80
7FE00000FF80
7FC00000FF80
7FC00000FF80
7FC00000FF80
7FC00000FF80
FF800000FF80
FFC00001FF80
7FC00003FF80
7FC00007FF80
7FC0001FFF80
7FE0007FFF80
7FF001FFFF80
3FFE0FFFFF80
3FFFFFFF7F80
1FFFFFFE7F80
0FFFFFFC7F80
07FFFFF07F80
03FFFFC07F80
00FFFF007F80
000FF0000000
ENDCHAR
STARTCHAR 0102
ENCODING 258
SWIDTH 550 0
DWIDTH 55 0
BBX 53 81 1 0
BITMAP
0003F0007E0000
0003F000FE0000
0003F800FE0000
0003FC01FE0000
0003FF8FFE0000
0001FFFFFC0000
0000FFFFF80000
0000FFFFF00000
00003FFFE00000
00001FFFC00000
000003FE000000
00000000000000
00000000000000
00000000000000
00000000000000
00000000000000
00000000000000
000007FF800000
00000FFF800000
00000FFF800000
00000FFFC00000
00001FFFC00000
00001FFFC00000
00001FFFE00000
00003FFFE00000
00003FFFE00000
00003FDFF00000
00007FDFF00000
00007F9FF00000
00007F8FF80000
0000FF8FF80000
0000FF0FF80000
0000FF07FC0000
0001FF07FC0000
0001FE07FC0000
0001FE03FE0000
0003FE03FE0000
0003FC03FE0000
0003FC01FF0000
0007FC01FF0000
0007F801FF0000
0007F801FF8000
000FF800FF8000
000FF800FF8000
000FF000FFC000
001FF0007FC000
001FF0007FC000
001FE0007FE000
003FE0003FE000
003FE0003FE000
003FC0003FF000
007FC0001FF000
007FC0001FF000
007F80001FF000
00FF80000FF800
00FF80000FF800
00FF00000FF800
01FF000007FC00
01FF000007FC00
01FFFFFFFFFC00
03FFFFFFFFFE00
03FFFFFFFFFE00
03FFFFFFFFFE00
07FFFFFFFFFF00
07FFFFFFFFFF00
07FFFFFFFFFF00
0FFFFFFFFFFF80
0FF8000000FF80
0FF8000000FF80
1FF0000000FFC0
1FF00000007FC0
1FF00000007FC0
3FE00000007FE0
3FE00000003FE0
3FE00000003FE0
7FC00000003FF0
7FC00000001FF0
7FC00000001FF0
FF800000001FF8
FF800000000FF8
FF800000000FF8
ENDCHAR
STARTCHAR 0103
ENCODING 259
SWIDTH 550 0
DWIDTH 55 0
BBX 41 70 6 -1
BITMAP
007F001FC000
007F001FC000
003F003F8000
003F803F8000
003FC07F8000
003FFBFF0000
001FFFFF0000
000FFFFE0000
0007FFFC0000
0003FFF80000
0001FFF00000
00003F800000
000000000000
000000000000
000000000000
000000000000
000000000000
000000000000
000000000000
0000FFE00000
003FFFFE0000
01FFFFFF8000
07FFFFFFE000
07FFFFFFF000
07FFFFFFF800
07FFFFFFFC00
07FFC0FFFE00
07F0001FFE00
07000007FF00
04000003FF00
00000001FF00
00000001FF80
00000000FF80
00000000FF80
00000000FF80
00000000FF80
00000000FF80
00000000FF80
00000000FF80
00000000FF80
00007FFFFF80
000FFFFFFF80
007FFFFFFF80
01FFFFFFFF80
03FFFFFFFF80
07FFFFFFFF80
0FFFFFFFFF80
1FFF0000FF80
3FF80000FF80
3FF00000FF80
7FE00000FF80
7FC00000FF80
7FC00000FF80
7FC00000FF80
7FC00000FF80
FF800000FF80
FFC00001FF80
7FC00003FF80
7FC00007FF80
7FC0001FFF80
7FE0007FFF80
7FF001FFFF80
3FFE0FFFFF80
3FFFFFFF7F80
1FFFFFFE7F80
0FFFFFFC7F80
07FFFFF07F80
03FFFFC07F80
00FFFF007F80
000FF0000000
ENDCHAR
STARTCHAR 0104
ENCODING 260
SWIDTH 550 0
DWIDTH 55 0
BBX 54 83 1 -19
BITMAP
000007FF800000
00000FFF800000
00000FFF800000
00000FFFC00000
00001FFFC00000
00001FFFC00000
00001FFFE00000
00003FFFE00000
00003FFFE00000
00003FDFF00000
00007FDFF00000
00007F9FF00000
00007F8FF80000
0000FF8FF80000
0000FF0FF80000
0000FF07FC0000
0001FF07FC0000
0001FE07FC0000
0001FE03FE0000
0003FE03FE0000
0003FC03FE0000
0003FC01FF0000
0007FC01FF0000
0007F801FF0000
0007F801FF8000
000FF800FF8000
000FF800FF8000
000FF000FFC000
001FF0007FC000
001FF0007FC000
001FE0007FE000
003FE0003FE000
003FE0003FE000
003FC0003FF000
007FC0001FF000
007FC0001FF000
007F80001FF000
00FF80000FF800
00FF80000FF800
00FF00000FF800
01FF000007FC00
01FF000007FC00
01FFFFFFFFFC00
03FFFFFFFFFE00
03FFFFFFFFFE00
03FFFFFFFFFE00
07FFFFFFFFFF00
07FFFFFFFFFF00
07FFFFFFFFFF00
0FFFFFFFFFFF80
0FF8000000FF80
0FF8000000FF80
1FF0000000FFC0
1FF00000007FC0
1FF00000007FC0
3FE00000007FE0
3FE00000003FE0
3FE00000003FE0
7FC00000003FF0
7FC00000001FF0
7FC00000001FF0
FF800000001FF8
FF800000000FF8
FF800000000FF8
00000000001FE0
00000000001FC0
00000000003F80
00000000007F80
0000000000FF00
0000000000FE00
0000000001FE00
0000000001FC00
0000000003FC00
0000000003FC00
0000000003FC00
0000000003FE00
0000000003FF00
0000000001FFFC
0000000001FFFC
0000000000FFFC
00000000007FFC
00000000003FFC
000000000007F8
ENDCHAR
STARTCHAR 0105
ENCODING 261
SWIDTH 550 0
DWIDTH 55 0
BBX 43 69 7 -19
BITMAP
0001FFC00000
007FFFFC0000
03FFFFFF0000
0FFFFFFFC000
0FFFFFFFE000
0FFFFFFFF000
0FFFFFFFF800
0FFF81FFFC00
0FE0003FFC00
0E00000FFE00
08000007FE00
00000003FE00
00000003FF00
00000001FF00
00000001FF00
00000001FF00
00000001FF00
00000001FF00
00000001FF00
00000001FF00
00000001FF00
0000FFFFFF00
001FFFFFFF00
00FFFFFFFF00
03FFFFFFFF00
07FFFFFFFF00
0FFFFFFFFF00
1FFFFFFFFF00
3FFE0001FF00
7FF00001FF00
7FE00001FF00
FFC00001FF00
FF800001FF00
FF800001FF00
FF800001FF00
FF800001FF00
FF000001FF00
FF800003FF00
FF800007FF00
FF80000FFF00
FF80003FFF00
FFC000FFFF00
FFE003FFFF00
7FFC1FFFFF00
7FFFFFFEFF00
3FFFFFFCFF00
1FFFFFF8FF00
0FFFFFE0FF00
07FFFF80FF00
01FFFE00FF00
001FE000FE00
00000001FE00
00000003FC00
00000007F800
0000000FF000
0000000FE000
0000001FE000
0000001FE000
0000001FC000
0000003FC000
0000003FE000
0000003FE000
0000001FF000
0000001FFFE0
0000001FFFE0
0000000FFFE0
00000007FFE0
00000001FFE0
000000003F80
ENDCHAR
STARTCHAR 0106
ENCODING 262
SWIDTH 550 0
DWIDTH 55 0
BBX 45 82 4 -1
BITMAP
00000001FFE0
00000003FFC0
00000007FF80
0000000FFE00
0000001FFC00
0000003FF800
0000007FE000
000000FFC000
000001FF8000
000003FE0000
000000000000
000000000000
000000000000
000000000000
000000000000
000000000000
0000001E0000
000007FFFE00
00003FFFFFC0
0000FFFFFFF8
0003FFFFFFF8
000FFFFFFFF8
001FFFFFFFF8
003FFFFFFFF8
007FFF803FF8
00FFFC0001F8
01FFF0000078
01FFC0000008
03FF80000000
07FF00000000
07FE00000000
0FFC00000000
0FFC00000000
1FF800000000
1FF800000000
1FF000000000
3FF000000000
3FE000000000
3FE000000000
3FE000000000
7FE000000000
7FC000000000
7FC000000000
7FC000000000
7FC000000000
7FC000000000
7FC000000000
7FC000000000
FFC000000000
FFC000000000
FFC000000000
7FC000000000
7FC000000000
7FC000000000
7FC000000000
7FC000000000
7FC000000000
7FC000000000
7FE000000000
7FE000000000
7FE000000000
3FE000000000
3FF000000000
3FF000000000
1FF800000000
1FF800000000
1FFC00000000
0FFE00000000
0FFE00000000
07FF00000000
07FFC0000008
03FFE0000038
01FFF80001F8
00FFFF001FF8
00FFFFFFFFF8
003FFFFFFFF8
001FFFFFFFF8
000FFFFFFFF8
0003FFFFFFF8
0000FFFFFFC0
00001FFFFE00
000000FF8000
ENDCHAR
STARTCHAR 0107
ENCODING 263
SWIDTH 550 0
DWIDTH 55 0
BBX 40 70 8 -1
BITMAP
0000000FFF
0000001FFE
0000003FF8
0000007FF0
000000FFE0
000001FF80
000003FF00
000007FE00
00000FF800
00001FF000
00003FE000
00007F8000
0000000000
0000000000
0000000000
0000000000
0000000000
0000000000
0000000000
000003F800
0000FFFFE0
0003FFFFFC
000FFFFFFC
003FFFFFFC
007FFFFFFC
01FFFFFFFC
03FFFFFFFC
03FFE000FC
07FF80001C
0FFE000000
1FFC000000
1FF8000000
3FF0000000
3FF0000000
7FE0000000
7FE0000000
7FC0000000
7FC0000000
FF80000000
FF80000000
FF80000000
FF80000000
FF80000000
FF80000000
FF80000000
FF80000000
FF80000000
FF80000000
FF80000000
FF80000000
FF80000000
FF80000000
FFC0000000
7FC0000000
7FC0000000
7FE0000000
3FF0000000
3FF0000000
3FF8000000
1FFE000004
0FFF00001C
0FFFE000FC
07FFFFFFFC
03FFFFFFFC
01FFFFFFFC
00FFFFFFFC
003FFFFFFC
000FFFFFF8
0001FFFFC0
000007F000
ENDCHAR
STARTCHAR 0108
ENCODING 264
SWIDTH 550 0
DWIDTH 55 0
BBX 45 82 4 -1
BITMAP
000003FE0000
000007FF0000
00000FFF8000
00001FFFC000
00007FFFF000
0000FFDFF800
0001FF8FFC00
0003FF07FE00
0007FC03FF00
000FF800FF80
000000000000
000000000000
000000000000
000000000000
000000000000
000000000000
0000001E0000
000007FFFE00
00003FFFFFC0
0000FFFFFFF8
0003FFFFFFF8
000FFFFFFFF8
001FFFFFFFF8
003FFFFFFFF8
007FFF803FF8
00FFFC0001F8
01FFF0000078
01FFC0000008
03FF80000000
07FF00000000
07FE00000000
0FFC00000000
0FFC00000000
1FF800000000
1FF800000000
1FF000000000
3FF000000000
3FE000000000
3FE000000000
3FE000000000
7FE000000000
7FC000000000
7FC000000000
7FC000000000
7FC000000000
7FC000000000
7FC000000000
7FC000000000
FFC000000000
FFC000000000
FFC000000000
7FC000000000
7FC000000000
7FC000000000
7FC000000000
7FC000000000
7FC000000000
7FC000000000
7FE000000000
7FE000000000
7FE000000000
3FE000000000
3FF000000000
3FF000000000
1FF800000000
1FF800000000
1FFC00000000
0FFE00000000
0FFE00000000
07FF00000000
07FFC0000008
03FFE0000038
01FFF80001F8
00FFFF001FF8
00FFFFFFFFF8
003FFFFFFFF8
001FFFFFFFF8
000FFFFFFFF8
0003FFFFFFF8
0000FFFFFFC0
00001FFFFE00
000000FF8000
ENDCHAR
STARTCHAR 0109
ENCODING 265
SWIDTH 550 0
DWIDTH 55 0
BBX 38 70 8 -1
BITMAP
00003FC000
00007FE000
0001FFF000
0003FFF800
0007FFFC00
000FFFFE00
001FFBFF00
003FF1FF80
007FC0FFC0
00FF803FE0
01FF001FF0
03FE000FF8
0000000000
0000000000
0000000000
0000000000
0000000000
0000000000
0000000000
000003F800
0000FFFFE0
0003FFFFFC
000FFFFFFC
003FFFFFFC
007FFFFFFC
01FFFFFFFC
03FFFFFFFC
03FFE000FC
07FF80001C
0FFE000000
1FFC000000
1FF8000000
3FF0000000
3FF0000000
7FE0000000
7FE0000000
7FC0000000
7FC0000000
FF80000000
FF80000000
FF80000000
FF80000000
FF80000000
FF80000000
FF80000000
FF80000000
FF80000000
FF80000000
FF80000000
FF80000000
FF80000000
FF80000000
FFC0000000
7FC0000000
7FC0000000
7FE0000000
3FF0000000
3FF0000000
3FF8000000
1FFE000004
0FFF00001C
0FFFE000FC
07FFFFFFFC
03FFFFFFFC
01FFFFFFFC
00FFFFFFFC
003FFFFFFC
000FFFFFF8
0001FFFFC0
000007F000
ENDCHAR
STARTCHAR 010A
ENCODING 266
SWIDTH 550 0
DWIDTH 55 0
BBX 45 83 4 -1
BITMAP
000000F80000
000003FC0000
000003FE0000
000007FF0000
000007FF0000
00000FFF8000
00000FFF8000
00000FFF8000
000007FF0000
000007FF0000
000003FE0000
000001FC0000
000000000000
000000000000
000000000000
000000000000
000000000000
0000001E0000
000007FFFE00
00003FFFFFC0
0000FFFFFFF8
0003FFFFFFF8
000FFFFFFFF8
001FFFFFFFF8
003FFFFFFFF8
007FFF803FF8
00FFFC0001F8
01FFF0000078
01FFC0000008
03FF80000000
07FF00000000
07FE00000000
0FFC00000000
0FFC00000000
1FF800000000
1FF800000000
1FF000000000
3FF000000000
3FE000000000
3FE000000000
3FE000000000
7FE000000000
7FC000000000
7FC000000000
7FC000000000
7FC000000000
7FC000000000
7FC000000000
7FC000000000
FFC000000000
FFC000000000
FFC000000000
7FC000000000
7FC000000000
7FC000000000
7FC000000000
7FC000000000
7FC000000000
7FC000000000
7FE000000000
7FE000000000
7FE000000000
3FE000000000
3FF000000000
3FF000000000
1FF800000000
1FF800000000
1FFC00000000
0FFE00000000
0FFE00000000
07FF00000000
07FFC0000008
03FFE0000038
01FFF80001F8
00FFFF001FF8
00FFFFFFFFF8
003FFFFFFFF8
001FFFFFFFF8
000FFFFFFFF8
0003FFFFFFF8
0000FFFFFFC0
00001FFFFE00
000000FF8000
ENDCHAR
STARTCHAR 010B
ENCODING 267
SWIDTH 550 0
DWIDTH 55 0
BBX 38 70 8 -1
BITMAP
00003F8000
00007FC000
0000FFE000
0001FFE000
0001FFF000
0001FFF000
0001FFF000
0001FFF000
0001FFF000
0000FFE000
00007FC000
00003F8000
00000E0000
0000000000
0000000000
0000000000
0000000000
0000000000
0000000000
000003F800
0000FFFFE0
0003FFFFFC
000FFFFFFC
003FFFFFFC
007FFFFFFC
01FFFFFFFC
03FFFFFFFC
03FFE000FC
07FF80001C
0FFE000000
1FFC000000
1FF8000000
3FF0000000
3FF0000000
7FE0000000
7FE0000000
7FC0000000
7FC0000000
FF80000000
FF80000000
FF80000000
FF80000000
FF80000000
FF80000000
FF80000000
FF80000000
FF80000000
FF80000000
FF80000000
FF80000000
FF80000000
FF80000000
FFC0000000
7FC0000000
7FC0000000
7FE0000000
3FF0000000
3FF0000000
3FF8000000
1FFE000004
0FFF00001C
0FFFE000FC
07FFFFFFFC
03FFFFFFFC
01FFFFFFFC
00FFFFFFFC
003FFFFFFC
000FFFFFF8
0001FFFFC0
000007F000
ENDCHAR
STARTCHAR 010C
ENCODING 268
SWIDTH 550 0
DWIDTH 55 0
BBX 45 82 4 -1
BITMAP
000FF8007F80
0007FC01FF00
0003FE03FE00
0001FF87FC00
0000FFDFF800
00007FFFF000
00003FFFE000
00001FFFC000
00000FFF8000
000007FF0000
000000000000
000000000000
000000000000
000000000000
000000000000
000000000000
0000001E0000
000007FFFE00
00003FFFFFC0
0000FFFFFFF8
0003FFFFFFF8
000FFFFFFFF8
001FFFFFFFF8
003FFFFFFFF8
007FFF803FF8
00FFFC0001F8
01FFF0000078
01FFC0000008
03FF80000000
07FF00000000
07FE00000000
0FFC00000000
0FFC00000000
1FF800000000
1FF800000000
1FF000000000
3FF000000000
3FE000000000
3FE000000000
3FE000000000
7FE000000000
7FC000000000
7FC000000000
7FC000000000
7FC000000000
7FC000000000
7FC000000000
7FC000000000
FFC000000000
FFC000000000
FFC000000000
7FC000000000
7FC000000000
7FC000000000
7FC000000000
7FC000000000
7FC000000000
7FC000000000
7FE000000000
7FE000000000
7FE000000000
3FE000000000
3FF000000000
3FF000000000
1FF800000000
1FF800000000
1FFC00000000
0FFE00000000
0FFE00000000
07FF00000000
07FFC0000008
03FFE0000038
01FFF80001F8
00FFFF001FF8
00FFFFFFFFF8
003FFFFFFFF8
001FFFFFFFF8
000FFFFFFFF8
0003FFFFFFF8
0000FFFFFFC0
00001FFFFE00
000000FF8000
ENDCHAR
STARTCHAR 010D
ENCODING 269
SWIDTH 550 0
DWIDTH 55 0
BBX 38 70 8 -1
BITMAP
00FF0007F8
007F800FF0
003FE01FE0
001FF07FC0
000FF8FF80
0007FDFF00
0003FFFE00
0001FFFC00
0000FFF800
00007FF000
00003FE000
00001FC000
0000000000
0000000000
0000000000
0000000000
0000000000
0000000000
0000000000
000003F800
0000FFFFE0
0003FFFFFC
000FFFFFFC
003FFFFFFC
007FFFFFFC
01FFFFFFFC
03FFFFFFFC
03FFE000FC
07FF80001C
0FFE000000
1FFC000000
1FF8000000
3FF0000000
3FF0000000
7FE0000000
7FE0000000
7FC0000000
7FC0000000
FF80000000
FF80000000
FF80000000
FF80000000
FF80000000
FF80000000
FF80000000
FF80000000
FF80000000
FF80000000
FF80000000
FF80000000
FF80000000
FF80000000
FFC0000000
7FC0000000
7FC0000000
7FE0000000
3FF0000000
3FF0000000
3FF8000000
1FFE000004
0FFF00001C
0FFFE000FC
07FFFFFFFC
03FFFFFFFC
01FFFFFFFC
00FFFFFFFC
003FFFFFFC
000FFFFFF8
0001FFFFC0
000007F000
ENDCHAR
STARTCHAR 010E
ENCODING 270
SWIDTH 550 0
DWIDTH 55 0
BBX 46 81 5 0
BITMAP
03FE001FE000
01FF007FC000
00FF80FF8000
007FE1FF0000
003FF7FE0000
001FFFFC0000
000FFFF80000
0007FFF00000
0003FFE00000
0001FFC00000
000000000000
000000000000
000000000000
000000000000
000000000000
000000000000
000000000000
FFFFF8000000
FFFFFFF00000
FFFFFFFE0000
FFFFFFFF8000
FFFFFFFFE000
FFFFFFFFF000
FFFFFFFFFC00
FF80FFFFFE00
FF80007FFF00
FF80001FFF00
FF800007FF80
FF800001FFC0
FF800000FFC0
FF8000007FE0
FF8000007FE0
FF8000003FF0
FF8000003FF0
FF8000001FF8
FF8000001FF8
FF8000000FF8
FF8000000FF8
FF8000000FFC
FF8000000FFC
FF80000007FC
FF80000007FC
FF80000007FC
FF80000007FC
FF80000007FC
FF80000007FC
FF80000007FC
FF80000007FC
FF80000007FC
FF80000007FC
FF80000007FC
FF80000007FC
FF80000007FC
FF80000007FC
FF80000007FC
FF80000007FC
FF80000007FC
FF8000000FFC
FF8000000FF8
FF8000000FF8
FF8000000FF8
FF8000001FF8
FF8000001FF0
FF8000003FF0
FF8000003FF0
FF8000007FE0
FF8000007FE0
FF800000FFC0
FF800001FFC0
FF800003FF80
FF80000FFF00
FF80003FFE00
FF8001FFFE00
FFFFFFFFFC00
FFFFFFFFF000
FFFFFFFFE000
FFFFFFFF8000
FFFFFFFF0000
FFFFFFF80000
FFFFFFC00000
FFFFF8000000
ENDCHAR
STARTCHAR 010F
ENCODING 271
SWIDTH 550 0
DWIDTH 55 0
BBX 56 73 3 -1
BITMAP
000000000000FF
000000000000FF
000000000001FF
000000007FC1FE
000000007FC1FE
000000007FC1FC
000000007FC3FC
000000007FC3FC
000000007FC3F8
000000007FC7F8
000000007FC7F8
000000007FC7F0
000000007FC7F0
000000007FCFE0
000000007FCFE0
000000007FC000
000000007FC000
000000007FC000
000000007FC000
000000007FC000
000000007FC000
000000007FC000
000001C07FC000
0000FFFFFFC000
0003FFFFFFC000
000FFFFFFFC000
003FFFFFFFC000
007FFFFFFFC000
00FFFFFFFFC000
01FFFE7FFFC000
03FFC001FFC000
07FF00007FC000
0FFC00007FC000
0FF800007FC000
1FF000007FC000
1FF000007FC000
3FE000007FC000
3FE000007FC000
3FC000007FC000
7FC000007FC000
7FC000007FC000
7FC000007FC000
7F8000007FC000
7F8000007FC000
FF8000007FC000
FF8000007FC000
FF8000007FC000
FF8000007FC000
FF8000007FC000
FF8000007FC000
FF8000007FC000
FF8000007FC000
FF8000007FC000
7F8000007FC000
7F8000007FC000
7FC00000FFC000
7FC00000FFC000
7FC00001FFC000
7FC00003FFC000
3FE00007FFC000
3FE0000FFFC000
3FF0001FFFC000
1FF0003FFFC000
1FF8007FBFC000
0FFE01FFBFC000
0FFFCFFF3FC000
07FFFFFE3FC000
03FFFFFC3FC000
03FFFFF83FC000
00FFFFF03FC000
007FFFC03FC000
001FFF003FC000
0003F800000000
ENDCHAR
STARTCHAR 0110
ENCODING 272
SWIDTH 550 0
DWIDTH 55 0
BBX 51 64 0 0
BITMAP
01FFFFE0000000
01FFFFFF800000
01FFFFFFF00000
01FFFFFFFC0000
01FFFFFFFF0000
01FFFFFFFFC000
01FFFFFFFFE000
01FE03FFFFF000
01FE0003FFF800
01FE00007FFC00
01FE00001FFC00
01FE00000FFE00
01FE000007FF00
01FE000003FF00
01FE000001FF00
01FE000001FF80
01FE000000FF80
01FE000000FFC0
01FE000000FFC0
01FE0000007FC0
01FE0000007FC0
01FE0000007FE0
01FE0000007FE0
01FE0000003FE0
01FE0000003FE0
01FE0000003FE0
01FE0000003FE0
FFFFFFE0003FE0
FFFFFFE0003FE0
FFFFFFE0003FE0
FFFFFFE0003FE0
FFFFFFE0003FE0
FFFFFFE0003FE0
FFFFFFE0003FE0
FFFFFFE0003FE0
01FE0000003FE0
01FE0000003FE0
01FE0000003FE0
01FE0000003FE0
01FE0000003FE0
01FE0000007FE0
01FE0000007FE0
01FE0000007FC0
01FE0000007FC0
01FE000000FFC0
01FE000000FF80
01FE000000FF80
01FE000001FF80
01FE000003FF00
01FE000003FF00
01FE000007FE00
01FE00000FFE00
01FE00001FFC00
01FE00007FF800
01FE0000FFF800
01FE0007FFF000
01FFFFFFFFE000
01FFFFFFFFC000
01FFFFFFFF0000
01FFFFFFFE0000
01FFFFFFF80000
01FFFFFFE00000
01FFFFFF000000
01FFFFE0000000
ENDCHAR
STARTCHAR 0111
ENCODING 273
SWIDTH 550 0
DWIDTH 55 0
BBX 50 70 5 -1
BITMAP
00000000FF8000
00000000FF8000
00000000FF8000
00000000FF8000
00000000FF8000
00000000FF8000
00003FFFFFFFC0
00003FFFFFFFC0
00003FFFFFFFC0
00003FFFFFFFC0
00003FFFFFFFC0
00003FFFFFFFC0
00003FFFFFFFC0
00000000FF8000
00000000FF8000
00000000FF8000
00000000FF8000
00000000FF8000
00000000FF8000
00000380FF8000
0001FFFFFF8000
0007FFFFFF8000
001FFFFFFF8000
007FFFFFFF8000
00FFFFFFFF8000
01FFFFFFFF8000
03FFFCFFFF8000
07FF8003FF8000
0FFE0000FF8000
0FFC0000FF8000
1FF80000FF8000
1FF00000FF8000
3FE00000FF8000
3FE00000FF8000
7FC00000FF8000
7FC00000FF8000
7F800000FF8000
7F800000FF8000
FF800000FF8000
FF800000FF8000
FF800000FF8000
FF800000FF8000
FF800000FF8000
FF800000FF8000
FF000000FF8000
FF000000FF8000
FF000000FF8000
FF800000FF8000
FF800000FF8000
FF800000FF8000
FF800000FF8000
FF800000FF8000
FF800001FF8000
FF800001FF8000
7F800003FF8000
7FC00007FF8000
7FC0000FFF8000
7FE0001FFF8000
3FE0003FFF8000
3FF0007FFF8000
3FF800FF7F8000
1FFC03FF7F8000
1FFF9FFE7F8000
0FFFFFFC7F8000
07FFFFF87F8000
03FFFFF07F8000
01FFFFE07F8000
00FFFF807F8000
003FFE007F8000
0007F000000000
ENDCHAR
STARTCHAR 0112
ENCODING 274
SWIDTH 550 0
DWIDTH 55 0
BBX 36 79 10 0
BITMAP
0FFFFFFE00
0FFFFFFE00
0FFFFFFE00
0FFFFFFE00
0FFFFFFE00
0FFFFFFE00
0FFFFFFE00
0000000000
0000000000
0000000000
0000000000
0000000000
0000000000
0000000000
0000000000
FFFFFFFFF0
FFFFFFFFF0
FFFFFFFFF0
FFFFFFFFF0
FFFFFFFFF0
FFFFFFFFF0
FFFFFFFFF0
FF80000000
FF80000000
FF80000000
FF80000000
FF80000000
FF80000000
FF80000000
FF80000000
FF80000000
FF80000000
FF80000000
FF80000000
FF80000000
FF80000000
FF80000000
FF80000000
FF80000000
FF80000000
FF80000000
FF80000000
FFFFFFFFE0
FFFFFFFFE0
FFFFFFFFE0
FFFFFFFFE0
FFFFFFFFE0
FFFFFFFFE0
FFFFFFFFE0
FFFFFFFFE0
FF80000000
FF80000000
FF80000000
FF80000000
FF80000000
FF80000000
FF80000000
FF80000000
FF80000000
FF80000000
FF80000000
FF80000000
FF80000000
FF80000000
FF80000000
FF80000000
FF80000000
FF80000000
FF80000000
FF80000000
FF80000000
FF80000000
FFFFFFFFF0
FFFFFFFFF0
FFFFFFFFF0
FFFFFFFFF0
FFFFFFFFF0
FFFFFFFFF0
FFFFFFFFF0
ENDCHAR
STARTCHAR 0113
ENCODING 275
SWIDTH 550 0
DWIDTH 55 0
BBX 43 67 6 -1
BITMAP
007FFFFFC000
007FFFFFC000
007FFFFFC000
007FFFFFC000
007FFFFFC000
007FFFFFC000
000000000000
000000000000
000000000000
000000000000
000000000000
000000000000
000000000000
000000000000
000000000000
000000000000
00003FE00000
0003FFFC0000
000FFFFF8000
003FFFFFC000
007FFFFFF000
00FFFFFFF800
01FFFFFFFC00
03FFC03FFE00
07FF000FFE00
0FFC0003FF00
0FF80001FF80
1FF00000FF80
3FE00000FF80
3FE000007FC0
3FC000007FC0
7FC000003FC0
7FC000003FE0
7F8000003FE0
FF8000003FE0
FF8000003FE0
FF8000003FE0
FF8000003FE0
FFFFFFFFFFE0
FFFFFFFFFFE0
FFFFFFFFFFE0
FFFFFFFFFFE0
FFFFFFFFFFE0
FFFFFFFFFFE0
FF8000000000
FF8000000000
FF8000000000
FF8000000000
FF8000000000
FF8000000000
7F8000000000
7FC000000000
7FC000000000
7FE000000000
3FF000000000
3FF800000000
1FFC00000000
1FFE00000000
0FFF80000780
07FFF803FF80
03FFFFFFFF80
01FFFFFFFF80
00FFFFFFFF80
007FFFFFFF80
001FFFFFFF80
0003FFFFF800
00003FFC0000
ENDCHAR
STARTCHAR 0114
ENCODING 276
SWIDTH 550 0
DWIDTH 55 0
BBX 36 81 10 0
BITMAP
07E000FC00
07E001FC00
07F001FC00
07F803FC00
07FF1FFC00
03FFFFF800
01FFFFF000
01FFFFE000
007FFFC000
003FFF8000
0007FC0000
0000000000
0000000000
0000000000
0000000000
0000000000
0000000000
FFFFFFFFF0
FFFFFFFFF0
FFFFFFFFF0
FFFFFFFFF0
FFFFFFFFF0
FFFFFFFFF0
FFFFFFFFF0
FF80000000
FF80000000
FF80000000
FF80000000
FF80000000
FF80000000
FF80000000
FF80000000
FF80000000
FF80000000
FF80000000
FF80000000
FF80000000
FF80000000
FF80000000
FF80000000
FF80000000
FF80000000
FF80000000
FF80000000
FFFFFFFFE0
FFFFFFFFE0
FFFFFFFFE0
FFFFFFFFE0
FFFFFFFFE0
FFFFFFFFE0
FFFFFFFFE0
FFFFFFFFE0
FF80000000
FF80000000
FF80000000
FF80000000
FF80000000
FF80000000
FF80000000
FF80000000
FF80000000
FF80000000
FF80000000
FF80000000
FF80000000
FF80000000
FF80000000
FF80000000
FF80000000
FF80000000
FF80000000
FF80000000
FF80000000
FF80000000
FFFFFFFFF0
FFFFFFFFF0
FFFFFFFFF0
FFFFFFFFF0
FFFFFFFFF0
FFFFFFFFF0
FFFFFFFFF0
ENDCHAR
STARTCHAR 0115
ENCODING 277
SWIDTH 550 0
DWIDTH 55 0
BBX 43 70 6 -1
BITMAP
007F001FC000
007F001FC000
003F003F8000
003F803F8000
003FC07F8000
003FFBFF0000
001FFFFF0000
000FFFFE0000
0007FFFC0000
0003FFF80000
0001FFF00000
00003F800000
000000000000
000000000000
000000000000
000000000000
000000000000
000000000000
000000000000
00003FE00000
0003FFFC0000
000FFFFF8000
003FFFFFC000
007FFFFFF000
00FFFFFFF800
01FFFFFFFC00
03FFC03FFE00
07FF000FFE00
0FFC0003FF00
0FF80001FF80
1FF00000FF80
3FE00000FF80
3FE000007FC0
3FC000007FC0
7FC000003FC0
7FC000003FE0
7F8000003FE0
FF8000003FE0
FF8000003FE0
FF8000003FE0
FF8000003FE0
FFFFFFFFFFE0
FFFFFFFFFFE0
FFFFFFFFFFE0
FFFFFFFFFFE0
FFFFFFFFFFE0
FFFFFFFFFFE0
FF8000000000
FF8000000000
FF8000000000
FF8000000000
FF8000000000
FF8000000000
7F8000000000
7FC000000000
7FC000000000
7FE000000000
3FF000000000
3FF800000000
1FFC00000000
1FFE00000000
0FFF80000780
07FFF803FF80
03FFFFFFFF80
01FFFFFFFF80
00FFFFFFFF80
007FFFFFFF80
001FFFFFFF80
0003FFFFF800
00003FFC0000
ENDCHAR
STARTCHAR 0116
ENCODING 278
SWIDTH 550 0
DWIDTH 55 0
BBX 36 82 10 0
BITMAP
0001F00000
0007F80000
0007FC0000
000FFE0000
000FFE0000
001FFF0000
001FFF0000
001FFF0000
000FFE0000
000FFE0000
0007FC0000
0003F80000
0000000000
0000000000
0000000000
0000000000
0000000000
0000000000
FFFFFFFFF0
FFFFFFFFF0
FFFFFFFFF0
FFFFFFFFF0
FFFFFFFFF0
FFFFFFFFF0
FFFFFFFFF0
FF80000000
FF80000000
FF80000000
FF80000000
FF80000000
FF80000000
FF80000000
FF80000000
FF80000000
FF80000000
FF80000000
FF80000000
FF80000000
FF80000000
FF80000000
FF80000000
FF80000000
FF80000000
FF80000000
FF80000000
FFFFFFFFE0
FFFFFFFFE0
FFFFFFFFE0
FFFFFFFFE0
FFFFFFFFE0
FFFFFFFFE0
FFFFFFFFE0
FFFFFFFFE0
FF80000000
FF80000000
FF80000000
FF80000000
FF80000000
FF80000000
FF80000000
FF80000000
FF80000000
FF80000000
FF80000000
FF80000000
FF80000000
FF80000000
FF80000000
FF80000000
FF80000000
FF80000000
FF80000000
FF80000000
FF80000000
FF80000000
FFFFFFFFF0
FFFFFFFFF0
FFFFFFFFF0
FFFFFFFFF0
FFFFFFFFF0
FFFFFFFFF0
FFFFFFFFF0
ENDCHAR
STARTCHAR 0117
ENCODING 279
SWIDTH 550 0
DWIDTH 55 0
BBX 43 70 6 -1
BITMAP
00003F800000
00007FC00000
0000FFE00000
0001FFE00000
0001FFF00000
0001FFF00000
0001FFF00000
0001FFF00000
0001FFF00000
0000FFE00000
00007FC00000
00003F800000
00000E000000
000000000000
000000000000
000000000000
000000000000
000000000000
000000000000
00003FE00000
0003FFFC0000
000FFFFF8000
003FFFFFC000
007FFFFFF000
00FFFFFFF800
01FFFFFFFC00
03FFC03FFE00
07FF000FFE00
0FFC0003FF00
0FF80001FF80
1FF00000FF80
3FE00000FF80
3FE000007FC0
3FC000007FC0
7FC000003FC0
7FC000003FE0
7F8000003FE0
FF8000003FE0
FF8000003FE0
FF8000003FE0
FF8000003FE0
FFFFFFFFFFE0
FFFFFFFFFFE0
FFFFFFFFFFE0
FFFFFFFFFFE0
FFFFFFFFFFE0
FFFFFFFFFFE0
FF8000000000
FF8000000000
FF8000000000
FF8000000000
FF8000000000
FF8000000000
7F8000000000
7FC000000000
7FC000000000
7FE000000000
3FF000000000
3FF800000000
1FFC00000000
1FFE00000000
0FFF80000780
07FFF803FF80
03FFFFFFFF80
01FFFFFFFF80
00FFFFFFFF80
007FFFFFFF80
001FFFFFFF80
0003FFFFF800
00003FFC0000
ENDCHAR
STARTCHAR 0118
ENCODING 280
SWIDTH 550 0
DWIDTH 55 0
BBX 39 83 10 -19
BITMAP
FFFFFFFFF0
FFFFFFFFF0
FFFFFFFFF0
FFFFFFFFF0
FFFFFFFFF0
FFFFFFFFF0
FFFFFFFFF0
FF80000000
FF80000000
FF80000000
FF80000000
FF80000000
FF80000000
FF80000000
FF80000000
FF80000000
FF80000000
FF80000000
FF80000000
FF80000000
FF80000000
FF80000000
FF80000000
FF80000000
FF80000000
FF80000000
FF80000000
FFFFFFFFE0
FFFFFFFFE0
FFFFFFFFE0
FFFFFFFFE0
FFFFFFFFE0
FFFFFFFFE0
FFFFFFFFE0
FFFFFFFFE0
FF80000000
FF80000000
FF80000000
FF80000000
FF80000000
FF80000000
FF80000000
FF80000000
FF80000000
FF80000000
FF80000000
FF80000000
FF80000000
FF80000000
FF80000000
FF80000000
FF80000000
FF80000000
FF80000000
FF80000000
FF80000000
FF80000000
FFFFFFFFF0
FFFFFFFFF0
FFFFFFFFF0
FFFFFFFFF0
FFFFFFFFF0
FFFFFFFFF0
FFFFFFFFF0
0000000FF0
0000001FE0
0000003FC0
0000007F80
0000007F00
000000FF00
000000FE00
000001FE00
000001FE00
000001FE00
000001FE00
000001FE00
000001FF00
000001FFFE
000000FFFE
000000FFFE
0000007FFE
0000001FFE
00000003F8
ENDCHAR
STARTCHAR 0119
ENCODING 281
SWIDTH 550 0
DWIDTH 55 0
BBX 43 69 6 -19
BITMAP
00003FE00000
0003FFFC0000
000FFFFF8000
003FFFFFC000
007FFFFFF000
00FFFFFFF800
01FFFFFFFC00
03FFC03FFE00
07FF000FFE00
0FFC0003FF00
0FF80001FF80
1FF00000FF80
3FE00000FF80
3FE000007FC0
3FC000007FC0
7FC000003FC0
7FC000003FE0
7F8000003FE0
FF8000003FE0
FF8000003FE0
FF8000003FE0
FF8000003FE0
FFFFFFFFFFE0
FFFFFFFFFFE0
FFFFFFFFFFE0
FFFFFFFFFFE0
FFFFFFFFFFE0
FFFFFFFFFFE0
FF8000000000
FF8000000000
FF8000000000
FF8000000000
FF8000000000
FF8000000000
7F8000000000
7FC000000000
7FC000000000
7FE000000000
3FF000000000
3FF800000000
1FFC00000000
1FFE00000000
0FFF80000780
07FFF803FF80
03FFFFFFFF80
01FFFFFFFF80
00FFFFFFFF80
007FFFFFFF80
001FFFFFFF80
0003FFFFF800
00003FFFC000
0000007F8000
0000007F0000
000000FE0000
000001FE0000
000003FC0000
000003FC0000
000007F80000
000007F80000
000007F80000
000007F80000
000007FC0000
000007FE0000
000007FFF800
000003FFF800
000001FFF800
000000FFF800
0000007FF800
0000000FF000
ENDCHAR
STARTCHAR 011A
ENCODING 282
SWIDTH 550 0
DWIDTH 55 0
BBX 36 81 10 0
BITMAP
1FF000FF00
0FF803FE00
07FC07FC00
03FF0FF800
01FFBFF000
00FFFFE000
007FFFC000
003FFF8000
001FFF0000
000FFE0000
0000000000
0000000000
0000000000
0000000000
0000000000
0000000000
0000000000
FFFFFFFFF0
FFFFFFFFF0
FFFFFFFFF0
FFFFFFFFF0
FFFFFFFFF0
FFFFFFFFF0
FFFFFFFFF0
FF80000000
FF80000000
FF80000000
FF80000000
FF80000000
FF80000000
FF80000000
FF80000000
FF80000000
FF80000000
FF80000000
FF80000000
FF80000000
FF80000000
FF80000000
FF80000000
FF80000000
FF80000000
FF80000000
FF80000000
FFFFFFFFE0
FFFFFFFFE0
FFFFFFFFE0
FFFFFFFFE0
FFFFFFFFE0
FFFFFFFFE0
FFFFFFFFE0
FFFFFFFFE0
FF80000000
FF80000000
FF80000000
FF80000000
FF80000000
FF80000000
FF80000000
FF80000000
FF80000000
FF80000000
FF80000000
FF80000000
FF80000000
FF80000000
FF80000000
FF80000000
FF80000000
FF80000000
FF80000000
FF80000000
FF80000000
FF80000000
FFFFFFFFF0
FFFFFFFFF0
FFFFFFFFF0
FFFFFFFFF0
FFFFFFFFF0
FFFFFFFFF0
FFFFFFFFF0
ENDCHAR
STARTCHAR 011B
ENCODING 283
SWIDTH 550 0
DWIDTH 55 0
BBX 43 70 6 -1
BITMAP
01FE000FF000
00FF001FE000
007FC03FC000
003FE0FF8000
001FF1FF0000
000FFBFE0000
0007FFFC0000
0003FFF80000
0001FFF00000
0000FFE00000
00007FC00000
00003F800000
000000000000
000000000000
000000000000
000000000000
000000000000
000000000000
000000000000
00003FE00000
0003FFFC0000
000FFFFF8000
003FFFFFC000
007FFFFFF000
00FFFFFFF800
01FFFFFFFC00
03FFC03FFE00
07FF000FFE00
0FFC0003FF00
0FF80001FF80
1FF00000FF80
3FE00000FF80
3FE000007FC0
3FC000007FC0
7FC000003FC0
7FC000003FE0
7F8000003FE0
FF8000003FE0
FF8000003FE0
FF8000003FE0
FF8000003FE0
FFFFFFFFFFE0
FFFFFFFFFFE0
FFFFFFFFFFE0
FFFFFFFFFFE0
FFFFFFFFFFE0
FFFFFFFFFFE0
FF8000000000
FF8000000000
FF8000000000
FF8000000000
FF8000000000
FF8000000000
7F8000000000
7FC000000000
7FC000000000
7FE000000000
3FF000000000
3FF800000000
1FFC00000000
1FFE00000000
0FFF80000780
07FFF803FF80
03FFFFFFFF80
01FFFFFFFF80
00FFFFFFFF80
007FFFFFFF80
001FFFFFFF80
0003FFFFF800
00003FFC0000
ENDCHAR
STARTCHAR 011C
ENCODING 284
SWIDTH 550 0
DWIDTH 55 0
BBX 46 82 3 -1
BITMAP
000001FF0000
000003FF8000
000007FFC000
00000FFFE000
00003FFFF800
00007FEFFC00
0000FFC7FE00
0001FF83FF00
0003FE01FF80
0007FC007FC0
000000000000
000000000000
000000000000
000000000000
000000000000
000000000000
0000001FE000
000007FFFF80
00003FFFFFF0
0000FFFFFFFC
0003FFFFFFFC
0007FFFFFFFC
001FFFFFFFFC
003FFFFFFFFC
007FFFC00FFC
00FFFE0000FC
01FFF000001C
01FFE0000004
03FF80000000
07FF00000000
07FE00000000
0FFE00000000
0FFC00000000
1FF800000000
1FF800000000
3FF000000000
3FF000000000
3FE000000000
3FE000000000
7FE000000000
7FC000000000
7FC000000000
7FC000000000
7FC000000000
FFC000000000
FF80007FFFFC
FF80007FFFFC
FF80007FFFFC
FF80007FFFFC
FF80007FFFFC
FF80007FFFFC
FF80007FFFFC
FF80007FFFFC
FF80000003FC
FFC0000003FC
7FC0000003FC
7FC0000003FC
7FC0000003FC
7FC0000003FC
7FC0000003FC
7FE0000003FC
3FE0000003FC
3FE0000003FC
3FF0000003FC
3FF0000003FC
1FF8000003FC
1FF8000003FC
0FFC000003FC
0FFE000003FC
07FF000003FC
07FF800003FC
03FFE00003FC
01FFF00003FC
00FFFE000FFC
007FFFFFFFFC
003FFFFFFFFC
001FFFFFFFFC
000FFFFFFFFC
0003FFFFFFF8
0000FFFFFFE0
00001FFFFE00
000001FFC000
ENDCHAR
STARTCHAR 011D
ENCODING 285
SWIDTH 550 0
DWIDTH 55 0
BBX 46 90 5 -21
BITMAP
00001FE00000
00003FF00000
0000FFF80000
0001FFFC0000
0003FFFE0000
0007FFFF0000
000FFDFF8000
001FF8FFC000
003FE07FE000
007FC01FF000
00FF800FF800
01FF0007FC00
000000000000
000000000000
000000000000
000000000000
000000000000
000000000000
000000000000
00007FC00000
0003FFFFFFFC
001FFFFFFFFC
003FFFFFFFFC
00FFFFFFFFFC
01FFFFFFFFFC
03FFFFFFFFFC
03FF801FFFFC
07FE000FFE00
0FFC0003FE00
0FF80003FF00
1FF80001FF00
1FF00000FF00
1FF00000FF80
1FE00000FF80
1FE00000FF80
1FE00000FF80
1FE00000FF80
1FE00000FF80
1FE00000FF80
1FF00000FF80
1FF00001FF00
1FF80001FF00
0FF80003FF00
0FFC0007FE00
07FE000FFE00
03FF801FFC00
03FFFFFFF800
03FFFFFFF000
07FFFFFFE000
0FFFFFFFC000
0FFFFFFF0000
1FE3FFFC0000
1FE07FC00000
3FC000000000
3FC000000000
3FC000000000
3FC000000000
7FC000000000
3FE000000000
3FF000000000
3FFFF8000000
3FFFFFFFE000
1FFFFFFFFC00
0FFFFFFFFF00
07FFFFFFFFC0
03FFFFFFFFE0
07FFFFFFFFF0
0FFFFFFFFFF0
1FF80003FFF8
3FF000003FF8
7FE000001FF8
7FC000000FFC
FF8000000FFC
FF80000007FC
FF80000007FC
FF80000007FC
FF8000000FF8
FF8000000FF8
FF8000001FF8
FFC000003FF0
FFE000007FF0
7FF80001FFE0
7FFFE03FFFC0
3FFFFFFFFF80
1FFFFFFFFF00
0FFFFFFFFE00
03FFFFFFF800
00FFFFFFE000
001FFFFE0000
000004000000
ENDCHAR
STARTCHAR 011E
ENCODING 286
SWIDTH 550 0
DWIDTH 55 0
BBX 46 82 3 -1
BITMAP
0001F8003F00
0001F8007F00
0001FC007F00
0001FE00FF00
0001FFC7FF00
0000FFFFFE00
00007FFFFC00
00007FFFF800
00001FFFF000
00000FFFE000
000001FF0000
000000000000
000000000000
000000000000
000000000000
000000000000
0000001FE000
000007FFFF80
00003FFFFFF0
0000FFFFFFFC
0003FFFFFFFC
0007FFFFFFFC
001FFFFFFFFC
003FFFFFFFFC
007FFFC00FFC
00FFFE0000FC
01FFF000001C
01FFE0000004
03FF80000000
07FF00000000
07FE00000000
0FFE00000000
0FFC00000000
1FF800000000
1FF800000000
3FF000000000
3FF000000000
3FE000000000
3FE000000000
7FE000000000
7FC000000000
7FC000000000
7FC000000000
7FC000000000
FFC000000000
FF80007FFFFC
FF80007FFFFC
FF80007FFFFC
FF80007FFFFC
FF80007FFFFC
FF80007FFFFC
FF80007FFFFC
FF80007FFFFC
FF80000003FC
FFC0000003FC
7FC0000003FC
7FC0000003FC
7FC0000003FC
7FC0000003FC
7FC0000003FC
7FE0000003FC
3FE0000003FC
3FE0000003FC
3FF0000003FC
3FF0000003FC
1FF8000003FC
1FF8000003FC
0FFC000003FC
0FFE000003FC
07FF000003FC
07FF800003FC
03FFE00003FC
01FFF00003FC
00FFFE000FFC
007FFFFFFFFC
003FFFFFFFFC
001FFFFFFFFC
000FFFFFFFFC
0003FFFFFFF8
0000FFFFFFE0
00001FFFFE00
000001FFC000
ENDCHAR
STARTCHAR 011F
ENCODING 287
SWIDTH 550 0
DWIDTH 55 0
BBX 46 90 5 -21
BITMAP
003F800FE000
003F800FE000
001F801FC000
001FC01FC000
001FE03FC000
001FFDFF8000
000FFFFF8000
0007FFFF0000
0003FFFE0000
0001FFFC0000
0000FFF80000
00001FC00000
000000000000
000000000000
000000000000
000000000000
000000000000
000000000000
000000000000
00007FC00000
0003FFFFFFFC
001FFFFFFFFC
003FFFFFFFFC
00FFFFFFFFFC
01FFFFFFFFFC
03FFFFFFFFFC
03FF801FFFFC
07FE000FFE00
0FFC0003FE00
0FF80003FF00
1FF80001FF00
1FF00000FF00
1FF00000FF80
1FE00000FF80
1FE00000FF80
1FE00000FF80
1FE00000FF80
1FE00000FF80
1FE00000FF80
1FF00000FF80
1FF00001FF00
1FF80001FF00
0FF80003FF00
0FFC0007FE00
07FE000FFE00
03FF801FFC00
03FFFFFFF800
03FFFFFFF000
07FFFFFFE000
0FFFFFFFC000
0FFFFFFF0000
1FE3FFFC0000
1FE07FC00000
3FC000000000
3FC000000000
3FC000000000
3FC000000000
7FC000000000
3FE000000000
3FF000000000
3FFFF8000000
3FFFFFFFE000
1FFFFFFFFC00
0FFFFFFFFF00
07FFFFFFFFC0
03FFFFFFFFE0
07FFFFFFFFF0
0FFFFFFFFFF0
1FF80003FFF8
3FF000003FF8
7FE000001FF8
7FC000000FFC
FF8000000FFC
FF80000007FC
FF80000007FC
FF80000007FC
FF8000000FF8
FF8000000FF8
FF8000001FF8
FFC000003FF0
FFE000007FF0
7FF80001FFE0
7FFFE03FFFC0
3FFFFFFFFF80
1FFFFFFFFF00
0FFFFFFFFE00
03FFFFFFF800
00FFFFFFE000
001FFFFE0000
000004000000
ENDCHAR
STARTCHAR 0120
ENCODING 288
SWIDTH 550 0
DWIDTH 55 0
BBX 46 83 3 -1
BITMAP
0000007C0000
000001FE0000
000001FF0000
000003FF8000
000003FF8000
000007FFC000
000007FFC000
000007FFC000
000003FF8000
000003FF8000
000001FF0000
000000FE0000
000000000000
000000000000
000000000000
000000000000
000000000000
0000001FE000
000007FFFF80
00003FFFFFF0
0000FFFFFFFC
0003FFFFFFFC
0007FFFFFFFC
001FFFFFFFFC
003FFFFFFFFC
007FFFC00FFC
00FFFE0000FC
01FFF000001C
01FFE0000004
03FF80000000
07FF00000000
07FE00000000
0FFE00000000
0FFC00000000
1FF800000000
1FF800000000
3FF000000000
3FF000000000
3FE000000000
3FE000000000
7FE000000000
7FC000000000
7FC000000000
7FC000000000
7FC000000000
FFC000000000
FF80007FFFFC
FF80007FFFFC
FF80007FFFFC
FF80007FFFFC
FF80007FFFFC
FF80007FFFFC
FF80007FFFFC
FF80007FFFFC
FF80000003FC
FFC0000003FC
7FC0000003FC
7FC0000003FC
7FC0000003FC
7FC0000003FC
7FC0000003FC
7FE0000003FC
3FE0000003FC
3FE0000003FC
3FF0000003FC
3FF0000003FC
1FF8000003FC
1FF8000003FC
0FFC000003FC
0FFE000003FC
07FF000003FC
07FF800003FC
03FFE00003FC
01FFF00003FC
00FFFE000FFC
007FFFFFFFFC
003FFFFFFFFC
001FFFFFFFFC
000FFFFFFFFC
0003FFFFFFF8
0000FFFFFFE0
00001FFFFE00
000001FFC000
ENDCHAR
ENDFONT
